<mxfile host="app.diagrams.net" modified="2023-07-28T09:46:00.740Z" agent="Mozilla/5.0 (Windows NT 10.0; Win64; x64) AppleWebKit/537.36 (KHTML, like Gecko) Chrome/115.0.0.0 Safari/537.36" etag="aDkDReLDfBE0-JjwskzD" version="21.6.5" type="device">
  <diagram name="第 1 页" id="yF7ARMe_S40DY6hJNAam">
    <mxGraphModel dx="1562" dy="822" grid="1" gridSize="10" guides="1" tooltips="1" connect="1" arrows="1" fold="1" page="1" pageScale="1" pageWidth="827" pageHeight="1169" math="0" shadow="0">
      <root>
        <mxCell id="0" />
        <mxCell id="1" parent="0" />
        <mxCell id="V-b0fp75Tb7XbdA_kdbv-2" value="" style="shape=image;verticalLabelPosition=bottom;labelBackgroundColor=default;verticalAlign=top;aspect=fixed;imageAspect=0;image=data:image/png,/9j/4AAQSkZJRgABAQAAAQABAAD/2wBDAAMCAgMCAgMDAwMEAwMEBQgFBQQEBQoHBwYIDAoMDAsKCwsNDhIQDQ4RDgsLEBYQERMUFRUVDA8XGBYUGBIUFRT/2wBDAQMEBAUEBQkFBQkUDQsNFBQUFBQUFBQUFBQUFBQUFBQUFBQUFBQUFBQUFBQUFBQUFBQUFBQUFBQUFBQUFBQUFBT/wAARCAMqBQgDASIAAhEBAxEB/8QAHwAAAQUBAQEBAQEAAAAAAAAAAAECAwQFBgcICQoL/8QAtRAAAgEDAwIEAwUFBAQAAAF9AQIDAAQRBRIhMUEGE1FhByJxFDKBkaEII0KxwRVS0fAkM2JyggkKFhcYGRolJicoKSo0NTY3ODk6Q0RFRkdISUpTVFVWV1hZWmNkZWZnaGlqc3R1dnd4eXqDhIWGh4iJipKTlJWWl5iZmqKjpKWmp6ipqrKztLW2t7i5usLDxMXGx8jJytLT1NXW19jZ2uHi4+Tl5ufo6erx8vP09fb3+Pn6/8QAHwEAAwEBAQEBAQEBAQAAAAAAAAECAwQFBgcICQoL/8QAtREAAgECBAQDBAcFBAQAAQJ3AAECAxEEBSExBhJBUQdhcRMiMoEIFEKRobHBCSMzUvAVYnLRChYkNOEl8RcYGRomJygpKjU2Nzg5OkNERUZHSElKU1RVVldYWVpjZGVmZ2hpanN0dXZ3eHl6goOEhYaHiImKkpOUlZaXmJmaoqOkpaanqKmqsrO0tba3uLm6wsPExcbHyMnK0tPU1dbX2Nna4uPk5ebn6Onq8vP09fb3+Pn6/9oADAMBAAIRAxEAPwD9U6KKKACiiigAooooAKKKKACiiigAooooAKKKKACiiigAooooAKKKKACiiigAooooAKKKKACiiigAooooAKKKKACiiigAooooAKKKKACiiigAooooAKKKKACiiigAooooAKKKKACiiigAooooAKKKKACiiigAooooAKKKKACiiigAooooAKKKKACiiigAooooAKKKKACiiigAooooAKKKKACiiigAooooAKKKKACiiigAooooAKKKKACiiigAooooAKKKKACiiigAooooAKKKKACiiigAooooAKKKKACiiigAooooAKKKKACiiigAooooAKKKKACiiigAooooAKKKKACiiigAooooAKKKKACiiigAooooAKKKKACiiigAooooAKKKKACiiigAooooAKKKKACiiigAooooAKKKKACiiigAooooAKKKKACiiigAooooAKKKKACiiigAooooAKKKKACoby7hsLSe5uJFighRpJJG6KoGST9AKmrnPiSob4d+KQen9lXX/olqAPAm/wCCmP7Na4z8TrccZx/ZOoZ/9EUv/DzP9mnGf+FnQf8Ago1D/wCR6/n/AN5f5jjJo3e4oGfv8f8Agpt+zQvX4mxfho+oH/23pP8Ah5x+zP8A9FNi/wDBNqP/AMj1+AJb3FNMnuKBH7//APDzn9mb/op0X/gm1H/5Ho/4edfszf8ARTY//BLqP/yPX4Aeb7ijzfcUAfv9/wAPPP2Zv+imx/8Agl1H/wCR6T/h55+zN/0U1P8AwSal/wDI9fgF5vvR5vvQB+/v/Dz39mb/AKKbH/4JNS/+RqP+Hnv7M3/RTY//AASal/8AI1fgF53vR53vQM/f3/h57+zN/wBFMT/wSal/8jUn/Dz79mb/AKKYn/gk1L/5Gr8A/NPrR5p9aBH7+f8ADz79mb/opif+CTUv/kej/h59+zP/ANFLX/wSal/8j1+Anm+9Hm+9AH79f8PPf2Z/+ilr/wCCTUv/AJHo/wCHnv7M/wD0Utf/AASal/8AI9fgL5vvR5nvQB+/X/Dz79mf/opa/wDgk1L/AOR6T/h59+zP/wBFKX/wSal/8j1+A/me9Jv96AP35/4ef/sz/wDRSh/4JNR/+R6P+Hn/AOzP/wBFKH/gk1H/AOR6/Abf70b/AHoA/fn/AIef/s0f9FJH/gk1H/5HpP8Ah6B+zR/0Un/yiaj/API9fgPv96N/vQB+/H/D0D9mj/opH/lE1H/5Ho/4egfs0f8ARSP/ACiaj/8AI9fgPvHrRu96AP33/wCHoH7NH/RSD/4JNR/+R6P+HoP7NH/RSD/4JNR/+R6/Ajd70bvegD99/wDh6D+zR/0Ug/8Agk1H/wCR6P8Ah6D+zR/0Uc/+CPUf/kevwJz9aM/WgD99f+HoX7NH/RRz/wCCPUf/AJHo/wCHoX7NH/RR2/8ABHqP/wAj1+BWfrRk+9AH76f8PQ/2aP8Aoozf+CPUf/kek/4eifs0/wDRRm/8Eeo//I9fgZk+9GT70Afvn/w9E/Zp/wCijN/4I9R/+R6T/h6L+zT/ANFFf/wRaj/8j1+BuT70c+9AH75f8PRv2af+iiv/AOCPUf8A4xR/w9G/Zq/6KI//AII9R/8AjFfgb+Bo/A/lQB++P/D0f9mn/ookn/gi1H/4xR/w9H/Zq/6KHJ/4I9R/+MV+B3PofyowfQ/lQB++H/D0j9mr/oocn/gi1H/4xR/w9I/Zq/6KHJ/4ItR/+MV+B+D6H8qMH0P5UAfvh/w9I/Zq/wCihyf+CLUf/jFH/D0j9mr/AKKHJ/4I9R/+MV+B+D6H8qMH0P5UAfvh/wAPSP2av+ihyf8Agi1H/wCMUf8AD0j9mr/oocn/AIItR/8AjFfgfg+h/KjB9D+VAH74f8PSP2av+ihyf+CLUf8A4xR/w9J/Zq/6KFL/AOCLUf8A4xX4H4PofyowfQ/lQM/fD/h6R+zV/wBFCl/8EWo//GKT/h6T+zV/0UKX/wAEWo//ABivwQwfQ/lRg+h/KgD97/8Ah6T+zV/0UKX/AMEWo/8Axij/AIek/s1f9FCl/wDBFqP/AMYr8EMH0P5UYPofyoA/fD/h6T+zV/0UKX/wRaj/APGKT/h6T+zV/wBFCl/8EWo//GK/A859D+VHPofyoA/fH/h6T+zV/wBFCl/8EWo//GKP+HpP7NP/AEUKX/wRaj/8Yr8DufQ/lSZPofyoA/fL/h6R+zV/0UKX/wAEOo//ABij/h6P+zT/ANFDl/8ABFqP/wAYr8Dcn0P5UZPofyoA/fL/AIekfs0/9FDl/wDBFqP/AMYo/wCHo/7NP/RQ5f8AwRaj/wDGK/A3J9D+VGT6H8qAP3y/4ej/ALNX/RQ5f/BFqP8A8j0v/D0b9mk/81Ek/wDBFqP/AMj1+BuT6H8qQE+n6UAfvn/w9F/Zp/6KLJ/4I9R/+R6X/h6J+zSf+aiv/wCCPUf/AJHr8DPz/KjP1/KgD98/+Hon7NP/AEUZ/wDwR6j/API9H/D0T9mn/oozf+CPUf8A5Hr8DM/X8qMigR++n/D0T9mn/oozf+CPUf8A5Ho/4eifs0/9FGb/AMEeo/8AyPX4F5FGRQM/fT/h6J+zT/0UZ/8AwRaj/wDI9H/D0X9mn/ooz/8Agi1H/wCR6/AvIo3e9AH76f8AD0X9mj/ooz/+CLUf/kej/h6L+zR/0UZ//BFqP/yPX4F7x60bx60Afvr/AMPRP2aP+ijP/wCCPUf/AJHo/wCHon7NH/RRm/8ABHqP/wAj1+BW8etG8etAj99f+Hon7NH/AEUZv/BHqP8A8j0v/D0P9mj/AKKM3/gj1H/5Hr8Cd49aN/vQB++3/D0P9mj/AKKM3/gj1H/5Ho/4eh/s0f8ARRm/8Eeo/wDyPX4E7/ejf70Afvt/w9D/AGaP+ijH/wAEeo//ACPR/wAPQv2aP+ijn/wR6j/8j1+BPmD1o8weooA/fb/h6F+zR/0Uc/8Agj1H/wCR6P8Ah6F+zR/0Uc/+CPUf/kevwJ8weoo8weooA/ff/h6F+zR/0Uc/+CPUf/kej/h6F+zR/wBFHP8A4I9R/wDkevwI8weoo8weooGfvv8A8PQf2aP+ijn/AMEeo/8AyPR/w9B/Zo/6KOf/AAR6j/8AI9fgR5g9RR5g9RQB++//AA9B/Zo/6KQf/BHqP/yPR/w9C/Zn/wCikf8AlD1H/wCR6/AjzB6ijzB6igR++/8Aw9B/Zn/6KR/5RNR/+R6X/h6D+zP/ANFJ/wDKJqP/AMj1+A/mD1FHmD1FAH78f8PQf2Z/+ik/+UTUf/kej/h6B+zP/wBFJ/8AKJqX/wAj1+A/mD1FHmD+9QB+/H/D0D9mf/opI/8ABJqP/wAj0f8AD0D9mf8A6KSP/BJqP/yPX4D+b/tUeb/tUDP35/4ef/sz/wDRSh/4JNS/+R6P+Hn/AOzP/wBFKH/gk1H/AOR6/AbzB/e/WjzB/e/WgR+/P/Dz/wDZn/6KUP8AwSal/wDI9L/w8+/Zn/6KUv8A4JNS/wDkevwF3/7X60b/APa/WgD9+v8Ah59+zP8A9FLX/wAEmpf/ACPR/wAPPf2Z/wDopa/+CTUv/kevwF3/AO1+tL5g/vD86AP35/4ee/sz/wDRS1/8Emo//I9L/wAPPf2Z/wDopaf+CTUv/kevwE8wev60eYPX9aAP37/4ee/sz/8ARS0/8Empf/I9H/Dzz9mf/opif+CXUv8A5Hr8BPMHr+tHmD1/WgD9+/8Ah55+zP8A9FMT/wAEupf/ACPR/wAPPP2Z/wDopif+CXUv/kevwE8wev60eYPX9aAP38/4eefsz/8ARTE/8Empf/I9H/Dzz9mf/opif+CTUv8A5Hr8A/MHr+tHmD1/WgD9/P8Ah55+zP8A9FMT/wAEuo//ACPS/wDDzv8AZn/6KZH/AOCXUf8A5Hr8AvMHr+tHmD+9QB+/v/Dzv9mf/opsf/gl1L/5Ho/4ed/sz/8ARTY//BLqX/yPX4Beb/tUeZ70Afv7/wAPO/2Z/wDopsf/AIJdS/8Akej/AIeefszf9FNj/wDBLqP/AMj1+AXm+9Hm+9AH7+/8PPP2Zv8Aopsf/gl1H/5Ho/4eefszf9FNj/8ABLqP/wAj1+AXm+9Hm+9AH7+/8PPP2Zv+imx/+CXUf/kek/4eefszf9FNj/8ABLqX/wAjV+Afm+5o8z3P5UAfv5/w88/Zm/6KYn/gk1L/AORqT/h59+zN/wBFMT/wSal/8jV+Anme5/KjzD6n8qAP36/4ef8A7M3/AEUtf/BHqX/yPSH/AIKg/szD/mpX/lD1L/5Hr8BvMPqfyo8w+v6UAfvwf+CoX7Mw/wCakH/wRal/8j0n/D0T9mf/AKKO3/gi1L/5Hr8CPMPr+lJ5h9f50DP33P8AwVF/ZnH/ADUZ/wDwQ6l/8j0n/D0b9mf/AKKLJ/4IdS/+R6/AnzP84pfM9/0oA/fX/h6P+zP/ANFFk/8ABDqX/wAj0h/4Kkfszj/mokv/AIIdS/8AkevwL8wev6UeZ9fyoA/fP/h6T+zR/wBFDl/8EOpf/I9I3/BUn9mgDj4hyn6aDqX/AMj1+Bvme+Pwo35Ht9KAP3sb/gqd+zYv3fHty300HUP/AIxXoHwS/ba+D37Q3iybwz4G8UyatrcVs12baXTbq23RKQGYNLGqnBZeM556da/nUHTI6V9tf8EgU3ftgRNtzt0C+OfTmMf1oEfuNRRRQAUUUUAFFFFABRRRQAUUUUAFFFFABRRRQAUUUUAFFFFABRRRQAUUUUAFFFFABRRRQAUUUUAFFFFABWD4+APgTxGCMj+zbnP/AH6at6sD4gnb4C8Sn00y5/8ARTUAfy/rwqfSv2m/4JSfDHwh4l/ZKtr/AFjwro2rXs2s3qvcX9jFcOwVlAGXUnAx0r8WV6JX7m/8EiiD+xxpuOo1q/z/AN/BQB9PN8F/AD4DeB/DhA4GdJg4/wDHKT/hSngAf8yT4e/8FcH/AMTXa0UAcSfgn8Pz/wAyT4ex/wBguD/4mk/4Uh8Pv+hH8Of+CqD/AOIrt6KAOH/4Uf8AD7/oR/Dn/gpg/wDiKX/hSHw+/wChG8N/+CmD/wCIrt6KAOI/4Uj8Pv8AoRvDf/gpg/8AiKP+FIfD7/oRvDf/AIKbf/4iu3ooA4f/AIUh8Pv+hH8N/wDgpt//AIikPwP+H/8A0I/hz/wU2/8A8RXc0UAcL/wo/wCH/wD0I/hz/wAFMH/xFH/Cj/h//wBCP4d/8FMH/wARXdUUAcJ/wo74f/8AQj+Hf/BVB/8AEUn/AAo34f8A/QkeHf8AwVQf/EV3lFAHB/8ACjfh/wD9CR4e/wDBVB/8RSf8KO8Af9CT4e/8FcH/AMRXe0UAcF/wo/wB/wBCV4e/8FcH/wARR/wo/wAAf9CV4f8A/BXB/wDEV3tFAHA/8KO8Af8AQl+H/wDwVwf/ABNIfgb4AP8AzJfh/wD8FcH/AMRXf0UAef8A/CjPAH/QleH/APwVwf8AxFB+BXw/P/MleH//AAVwf/EV6BRQB59/woj4fH/mSvD/AP4K4P8A4im/8KH+H/8A0JPh/wD8FcH/AMRXodFAHnf/AAob4ff9CR4e/wDBXB/8TR/woX4e/wDQkeHv/BXB/wDE16JRQB51/wAKD+Hv/QkeH/8AwVwf/E0n/Cgvh7/0JHh//wAFcH/xNei4oxQB5z/woL4e/wDQkeH/APwVwf8AxNH/AAoH4e/9CR4f/wDBZD/8TXo2KMUAecf8KA+Hv/Qk+H//AAWQ/wDxNJ/wz98PP+hJ8P8A/gsh/wDia9IxS0Aean9n34ef9CR4f/8ABZD/APE0n/DPfw7P/Mj+H/8AwWQ//E16XRQB5n/wz18Ov+hH8P8A/gsh/wDiaT/hnn4df9CN4e/8FkP/AMTXptFAHmX/AAzx8OT18C+Hv/BZD/8AE0n/AAzt8OP+hE8Pf+CyH/4mvTqKAPMj+zt8OD/zIvh3/wAFkP8A8TSf8M6/DfH/ACInh3/wVw//ABNenUUAeY/8M6/Df/oRPDv/AIK4f/iaB+zr8Nx/zInh3/wVw/8AxNenUUAeY/8ADOvw3/6ETw7/AOCuH/4mj/hnX4b/APQieHf/AAVw/wDxNenUUAeY/wDDOvw3/wChE8O/+CuH/wCJo/4Z1+G//QieHf8AwVw//E16dRQB5j/wzr8N/wDoRPDv/grh/wDiaX/hnb4cf9CL4d/8FcP/AMTXptFAHmY/Z3+HA/5kXw7/AOCuH/4mj/hnn4c/9CN4d/8ABXD/APE16ZRQB5oP2evh0P8AmRvDv/grh/8Aiad/wz78Ov8AoRvD3/gsh/8Aia9JooA82/4Z9+HX/QjeHv8AwVw//E0v/DP3w6/6Ebw9/wCCuD/4mvSKKAPN/wDhn74df9CN4d/8FcH/AMTSj4AfDsf8yN4d/wDBXB/8TXo9FAHnP/Cgfh2P+ZH8Pf8Agrg/+Jo/4UF8PP8AoR/D3/grg/8Aia9GooA85/4UF8PP+hH8Pf8Agrg/+Jpf+FCfD3/oSPD3/grg/wDia9FooA87/wCFC/D3/oSPD/8A4K4P/iaX/hQ/w/HTwT4fH/cMg/8Aia9DooA88/4UR8P/APoStA/8FkP/AMTS/wDCifAH/QlaB/4LIf8A4mvQqKAPPf8AhRPgD/oS9A/8FkP/AMTR/wAKK8A/9CXoH/gsh/8Aia9CooA8+/4UX4B/6EvQP/BZD/8AE0f8KM8A/wDQmaD/AOCyH/4mvQaTFAHn/wDwovwF/wBCZoP/AILIP/iaP+FGeAv+hM0H/wAFkH/xNegYoxQB5/8A8KM8Bf8AQmaD/wCCyH/4mj/hRngL/oTNB/8ABZD/APE16BiloA8//wCFG+Av+hM0H/wWQ/8AxNH/AAo7wF/0Jmg/+CyH/wCJr0CigDz/AP4Ud4C/6EzQf/BZD/8AE0v/AAo/wF/0Jmg/+CyH/wCJrv6KAOA/4Uf4C/6EzQf/AAWQ/wDxNL/wo/wF/wBCboP/AILIf/ia76ikBwP/AAo/wF/0Jug/+CyH/wCJo/4Uf4C/6E3Qf/BZD/8AE131FMDgf+FIeAv+hN0H/wAFkP8A8TS/8KQ8Bf8AQm6D/wCCyH/4mu9ooA4L/hSPgL/oTNA/8FkP/wATR/wpHwF/0Jmgf+CyH/4mu9ooA4P/AIUl4D/6E3QP/BZD/wDE0f8ACkvAf/Qm6B/4LIf/AImu8ooA4P8A4Ul4D/6E3QP/AAWQ/wDxNH/CkvAf/Qm6B/4LIf8A4mu8ooA4P/hSXgP/AKE3QP8AwWQ//E0f8KT8B/8AQmaB/wCCyH/4mu8ooA4P/hSfgP8A6EzQP/BZD/8AE0f8KT8B/wDQmaB/4LIf/ia7yigDg/8AhSfgP/oTNA/8FkP/AMTR/wAKT8B/9CZoH/grg/8Aia7yigDg/wDhSfgP/oTPD/8A4K4P/iaP+FJ+A/8AoTPD/wD4K4P/AImu8ooA4P8A4Ul4C/6Evw//AOCuD/4mj/hSXgL/AKEvw/8A+CuD/wCJrvKKAOD/AOFJeAv+hL8P/wDgrg/+Jpf+FJeAv+hL8P8A/grg/wDiK7uigDhP+FJeAv8AoS/D/wD4K4P/AIij/hSXgL/oS/D/AP4K4P8A4iu7ooA4T/hSXgL/AKErw/8A+CuD/wCIo/4Ul4B/6Erw9/4K4P8A4iu7ooA4T/hSXgH/AKErw9/4K4P/AIigfBHwB/0JXh7/AMFUH/xFd3RQBwv/AApDwB/0JPh3/wAFUH/xFJ/wo/wB/wBCR4d/8FMH/wARXd0UAcL/AMKP+H//AEJHhz/wUwf/ABFH/Cj/AIf/APQj+HP/AAUwf/EV3VFAHC/8KP8Ah9/0I3hz/wAFNv8A/EUf8KP+H3/Qi+G//BRb/wDxFd1RQBwn/Cjvh7/0Ivhv/wAFFv8A/EUf8KN+Hn/QieGv/BRb/wDxFd3RQBwn/CjPh3/0Ifhn/wAE9v8A/EUf8KK+HJ/5kLwx/wCCe3/+Iru6KAOD/wCFD/Dg/wDMg+F//BNbf/EUf8KG+G//AET/AMLH/uDW3/xFd5RQBwX/AAoX4bf9E+8Lf+CW2/8AiKP+FCfDX/on3hX/AMEtt/8AEV3tFAHCD4D/AA1H/NPvCv8A4Jbb/wCIpw+BXw2H/NPvCv8A4Jbb/wCIruaKAOIHwO+HA6fD/wALD/uC23/xFKPgh8OR08AeFx/3Brb/AOIrtqKAOKX4J/DuI5XwF4YU+o0a3H/slE3wS+HdypEvgPwxICMHdo1sePxSu0IzQKAPwQ/4Ke+E9E8F/td+INK8PaJYaBpken2LLaabbpBDuMCszBEAAJJ545xXW/8ABH84/a9jHr4evv8A0KKs/wD4K1lT+2Zre3qNJsA318r/AAxV/wD4JBMF/bBhHroF8P1i/wAKAP3EooooAKKKKACiiigAooooAKKKKACiiigAooooAKKKKACiiigAooooAKKKKACiiigAooooAKKKKACiiigArn/iCM+AvEo9dMuf/RTV0FYHj/8A5ETxJ/2Dbn/0U1AH8vynhK/cv/gkP/yZ1Y/9hu//APQ1r8M06JX7l/8ABIY5/Y7svbXL/wD9CWgD7WooooAKKKKACiiigAooooAKKKKACiiigAooooAKKKKACiiigAooooAKKKKACiiigAooooAKKKKACiiigAooooAKKKKACiiigAooooAKKKKACiiigAooooAKKKKACiiigAooooAKKKKACiiigAooooAKKQnFUZtf0y2v47GbUbSK9kGUtnnUSMPZc5NS5KO7E2luX6KTOaWqGFFFFABRRRQAUUUUAFFFFABRRRQAUUUUAFFFFABRRRQAUUUUAFFFFABRRRQAUUUUAFFFFABRRRQAUUUUAFFFFABRRRQAUUUUAFFFFABRRRQAUUUUAFFFFABRRRQAUUUUAFFFFABRRRQAUUUUAFFFFABRRRQAUUUUAFFFFABRRRQAUUUUAfhP/wAFZP8Ak9HxF/2DNP8A/Sdavf8ABIptv7YtgP72iX4/RDVL/grL/wAnoeIf+wZYf+iFqx/wSPbb+2TpI9dHvx/5DH+FAH7n0UUUAFFFFABRRRQAUUUUAFFFFABRRRQAUUUUAFFFFABRRRQAUUUUAFFFFABRRRQAUUUUAFFFFABRRRQAVgfEA48B+JP+wZc/+imrfrn/AIhnHgDxMf8AqGXP/opqAP5fl6J9K/cr/gkJ/wAmeWn/AGHb/wD9CSvw1Xon0r9yf+CQZ/4w9tv+w7ffzSgD7YooooAKKKKACiiigAooooAKKKKACiiigAooooAKKKKACiiigAooooAKKKKACiiigAooooAKKKKACiiigAooooAKKKKACiiigAooooAKKTNLQAUUUlAC0UUUAFFFFABRRRQAUUUUAFFFFABRRRQAUUUUAcv8S/EU3hPwDr+r2+Bc2llLJDnp5m07f1xXkPhP4B6F4k+H+m3d+j/2zqNqlxNqCyO0jyuobe24nPJ/wxXp/wAarL7d8LfEaHIVbRpGIUnCqQx4HsDUHw61uzn+GmgXiyoUisIgSrZXKoAQD35Br5DMoU6+PjTxMrQUG1rZXvr9yscFSMJ1bVNkjA/Zx8Y6jrvhe+0TWZjc6voFybGe4JyZAM7Sc9+CPwFeu14t+zZam6i8YeIBEY4dX1iWSFj0dF4yPbcW/Wvaa9TJajq5fSnJ3ut+6u7fga4VuVJNhRRRXtnUFFFFABRRRQAUUUUAFFFFABRRRQAUUUUAFFFFABRRRQAUUUUAFFFFABRRRQAUUUUAFFFFABRRRQAUUUUAFFFFABRRRQAUUUUAFFFFABRRRQAUUUUAFFFFABRRRQAUUUUAFFFFABRRRQAUUUUAFFFFABRRRQAUUUUAFFFFABRRRQB+E/8AwVkOf20PEXtpth/6IWpv+CSf/J5ejf8AYIv/AP0VVf8A4KxH/jNHxJ/2DtP/APSdKsf8Ekv+Ty9G/wCwRf8A/ougD90qKKKACiiigAooooAKKKKACiiigAooooAKKKKACiiigAooooAKKKKACiiigAooooAKKKKACiiigAooooAK534i8fD7xP8A9gu6/wDRTV0Vc78R/wDknvij/sF3X/olqAP5gF6J9K/cf/gkEc/sfQf9h6+/9p1+HC9E+lfuN/wSAOf2QIvbX77/ANp0AfbdFFFABRRRQAUUUUAFFFFABRRRQAUUUUAFFFFABRRRQAUUUUAFFFFABRRRQAUUUUAFFFFABRRRQAUUUUAFFFFABRRUU88dvGzyOI0UFmZjgADqTQ3bVgS0V5Zq37R3grS2P/EyN0g6yW0bSJ+YGPyrU8F/HHwf46vPsemaxCb0nCW02YpH/wB1WAJ/CvEo53luIrewpV4uXZM4o43DynyKauzvs01nABqNp13AZ5PSvOvEX7QXgTw5qlxp13rkL3cHE0cOXEZ9CQMZ/GvRxWLw+Ch7XEzUY92dNSrToJOrKyZp/E74pWHwu0e31C/tZ7qO4m8iNYMfexnnPQYBq18N/iLafEjw8dWs7eW2iWVoWjlIJDDB7E+teF/tE/EDwx8RvhhbP4f1eDUJbbVInkjjYh0Uq6kkEDjntXV/slzj/hUKSEFXe9m3A+oIH9K+YpZrVrZ99TpzUqLhzK3f1PIji6lTMlQg06bjf5nunmjFY/ivxGnhbw1qWsvC1xHYwNcPEpwWVRk4NYfjX4q+F/hwkQ13VIre5mG6O1U7pWHqFHOPeuN1v42eDfHPgbxLYWV+8dxNplzGIZ42UtmNhwenWvcxOZ4OjKeH9tFVEno3toelWxNGnzQ50pW7ml8Lf2gdN+KGtPptrpl3ZTLbvcb52QqQpUYGDnPz+navURNk4r4r/Yzmx46KuSznS5ufQh48/wAq92+OPxbuPhrottbaagl13VNy2pcAiIDq5X+L0Ar53JM8lPJ55jmUvhbV0rXS20PNy3GTq4J4nEu7T6HoniDx/wCHPCYQaxrdjpzucIlxOqsx9gTmtPTdYtNXsLe9sp47m1nQSRzRtlXU9CDX5w+IdK1e01S3udfWR77VA90r3JJdxkgnnpX298Fpynwq8MqSciwi/Vc1GRcR1M4zCphXS5IqN1ffdHNlua1MfjJ4aUOVRXzPSxIDiua174m+FfDdx9n1LX7C0uAceTJOof8ALrXl37TXxivfh34XtNK0SXydc1UMFmXBeCIfecD1PQe59q8w+Hv7Kt/4m0m31Pxbqd1a3F3+++x2p3ShTzmSRs/Me4A4zXZmGb4l4qWAyump1I/E3tG+3zNcXmNaOIeFwVLnmt76JH1T4b8c6H4tMq6RqUF80Qy6xNkgVv15R8MfgTonwv1qfVNPuL64upYTb5uZcqqkgnCgAckDk+leqp0r3Mvni6mHUsdBRqdUndHq4V4iVFSxMVGXZDqKKK9I6gooooAKKKKAIrmCK5t5IZo1lhkUo8bjKspGCCO4rxS5+AHhrTbx7PT9R1XSdN1BtjafbXxVDxyqhsnBG71wCcYGK9uavGviXey2/wAYPBaq3yEAYz3L4P8An2rws4VD6upV6fMuaK+92OPFSpU4KdSN9UvvPVdC0Oy8OaVbabp1slpZWyBIoYxgKK0qQdjS17cIxhFQgrJaJHWkkrIKKKKoYUUUUAFFFFABRRRQAUUUUAFFFFABRRRQAUUUUAFFFFABRRRQAUUUUAFFFFABRRRQAUUUUAFFFFABRRRQAUUUUAFFFFABRRRQAUUUUAFFFFABRRRQAUUUUAFFFFABRRRQAUUUUAFFFFABRRRQAUUUUAFFFFABRRRQAUUUUAFFFFAH4Sf8FYef20vEv/YP0/8A9Jkq1/wSS/5PK0f/ALBF/wD+ixVT/grAf+M0vE//AGD9P/8ASZKt/wDBJH/k8rSP+wRf/wDosUAfujRRRQAUUUUAFFFFABRRRQAUUUUAFFFFABRRRQAUUUUAFFFFABRRRQAUUUUAFFFFABRRRQAUUUUAFFFFABXO/Ef/AJJ54o/7Bd1/6JauirnfiP8A8k88Uf8AYLuv/RLUAfzAL0X6V+4n/BH45/ZBT28QX38oq/DpOi1+4n/BH0/8Yh/9zDe/+gxUAfb1FFFABRRRQAUUUUAFFFFABRRRQAUUUUAFFFFABRRRQAUUUUAFFFFABRRRQAUUUUAFFFFABRRRQAUUUUAFFFFABWP4m0W38TaHf6Te7xZ3sD28pjfYwVhg4PY1sV4V+1z4nv8Aw98O7a2sLl7Q6heCGWSMlSyBSxTI6A4GfauHHYyGAwtTFVFdRV7HPiK0cPRlVmrpI5jVfhX8APAGLXxDqWjRtFkquq6pucfVdwH6V4T8Vh4b8PfEzT9R8A3kM+kQra3UEljKWiSUS5KqwPTAXjtkivQP2f8A9nPwZ458Nv4i8UaXBqd/fTuyRtIyRwRIxVflVhycFiT61wPxl0nw/pvja+0jwlBFDo2nRCNWtyTGZ8kybTkkgEgfUV+TZ5Ki8po4+lRjTvJNWep8ZmEKUsFTxNGCi+ZNW33Prb4x+Nrjwz8Ob/ULNtt5OotrdifutJwSPcDcfwr5j+Anwf034oeJtXh1lDNp9lCrzLuKs8jscHI56Bq92+OmnT6t8ILbUIlJjtBDfyqgJKrsIJHsN1eS/sneObDRPHuvWeoXcNpb6nao6TSyBV3Rk4GT6+YT9BXrZ1bFcQYWjjH+4cbrtex3ZjGNbH4ZV/gt8iv8cvgbpfwat9P1bw9NdNpF7J9muLa6lMuyQHcpUnnBG4Y7YHrXrn7JcnmfCmFwTskvrlhnr/rSP6Vyv7VPxA0HXdA0nQNF1O01a8W6a6uEtJRIYVVCBux0zvrrf2SE3fB+1iJG+G9uYz7fvC2P/Hq6suw2Ew/FFSGF2VPo72d0bUKVGhmrVBacrt6ngviawl+KXxsvopZNjX+pNaCY8+VEhKjGf938zXoHiz9kvRfDXhbVdf0rXNVi1Wws5bnyWZGim2oSVI25wa8v/td/B/xbeW7/AHbWGuM0m7jCrNk/+O5r6i+Jnxi8FaT4K1UxeILC9vb2zlhtbO2mWWSR2QqBhegyeSa+eyXDZfiKeOeZNe0Upayf5HHlmHw1RYieM1nd7niH7GrZ8fOoOQ2lzZ/GSP8Axr67u/Dmland291faZZ3l1bgiCeeFXeLJ52kjj8K+Qv2N4Db/EqRW4K6ZLn8ZI6+zj9/FfU8EQhUymUJK655b/I9TILSwjj0uz5C/a/j8v4g6CigKRpgORx/y2kx/KvefgyfN+FnhM5ABsIScf7orwv9slQ3xD0Q5w50zbj2Er/4mvcPge3m/B7wk6/w2SIfqPlP6illlnxXirfyL9DmwU+bO6zj2Pnj9oTXdvx4e9uI/OtNJtY4kj4O5gGfvx1ZevpVa2b9o3xjGNf0+9g0DQ5Iw9laLKoaSPGQxGCST/tDoR0qx+1Nocmh/EiS+ljLWeqQJPCSOHZfldR+Q/76Fe/eHPij4U1DwTFrsWrQC2t4D5sO7DRugwYyvXPGK+YwdJ1MfmFHF1/ZPmb7X7a+hxYKhL65iVVqODfW+vkeZ/s1ftHeIvEHi4+CvG4iudTkMi297EqxkSR53RuBwc4JBHoa+qkPFfAH7Ouly+Jf2htLvkDfupLnUJzj7qlGHPp8zLX38vWvs+E8bXxuBlKs+blk0n5aHr5LXrVsM3WlzWbSfdD6KKK+0PeCiiigAooooAQ14n8S0/4vN4LLHg7Qv1DNmvYNX1ez0LT5r6/nW2tIF3SSv0UZA5/OvC/HXiPSte+KvgfVbXVbWPTtOaY3crk7dpQlTuxgcjH418znmIw8KUaNWaUnKLS9GeXmE4KmoOSTuuvmfQA6UtY2geLdG8SyXUWlanbahJalVnW3lDmIkZAbHQ45wa2a+jhONSKlB3TPSjKMleLugoooqygooooAKKKKACiiigAooooAKKKKACiiigAooooAKKKKACiiigAooooAKKKKACiiigAooooAKKKKACiiigAooooAKKKKACiiigAooooAKKKKACiiigAooooAKKKKACiiigAooooAKKKKACiiigAooooAKKKKACiiigAooooAKKKKAPwi/wCCr3/J6fin/rw0/wD9JY6u/wDBJD/k8rSP+wPf/wDosVR/4Ku/8nqeKv8Arx0//wBJY6vf8EkP+TytJ/7A9/8A+ixQB+6FFFFABRRRQAUUUUAFFFFABRRRQAUUUUAFFFFABRRRQAUUUUAFFFFABRRRQAUUUUAFFFFABRRRQAUUUUAFc78R/wDknnij/sF3X/olq6Kud+I3/JPfFH/YLuv/AEU1AH8v6dFr9w/+CPn/ACaIf+xhvf8A0GKvw8TotfuH/wAEe/8Ak0Rv+xhvf/QYaAPt+iiigAooooAKKKKACiiigAooooAKKKKACiiigAooooAKKKKACiiigAooooAKKKKACiiigAooooAKKKKACiiigBG6Vx3xP+GmkfFbww+iawZo4hKJ4ri3bbJDIAQGBIPYkY966PWtTGkaZdXpQyrbwvMUBxuCjPWvn65/bK02LcR4auHUcEm5Uf0rxsxzLL8HFUcfNRU1s+qODF4rDUI+zxL0kc237D08z+U/jy7isuR/o0bI7LjGCN+P89K6TxF+yBYT6Xb2ugaoumLDAIm86EyGUg8uSGHJ5zUK/tkWBwT4VnGemLpSPz21Ov7Ydiy5Phi4GOcC6H/xNfCyqcISp+ynNOPnzaenb5HhKtk3I6Slp8z2/TdAjttEs9OuQl1FDapayK6gpKoUKcqexA6H1r5u8S/sPwtqFyfD+vRxaXM5ZLLUIy5gBOdocH5gO2RnAHJ610En7Yunrgr4YuiD63C1H/w2RpocB/Ct3n2uUP8APFenmGb8NZpTjTxVZNR23TX3HTisZlOLhGnWldLbcm0D9jnQPC3gbWNL0u4WTxBqFuUOqXCAKsnJUhV6KD2HPHU13fwG+Et78Ifh5HoWpajDqmoNdS3U1zApVWLkYAzzwAK8/wD+GzNLUZHhe7+n2lKRv20NLP8AzK99u/67pWeCzDhjL63t8NVSla19btBRxmVUZqpTkk0rdTa+M37Mtr8Sdf8A+Ej0i+j0nW3jEd2sqkxXWMBGOOVYAYyAcgDPTNYPw9/Y403w/qP9p+IdRXV7oIyx20Me2KMtkbiTyx6dhigfto6Zlt/hS8AHcXKc/pSL+2ppe0bfCt4M9muUFcuIr8J4vESxVWacpb72+7YxqVsmqVvbya5vmdL8If2eL34Z+NX1mTV4Ly1FtJbrFHGQ7Bip3MTwMbcYHrXtrRfPkY/Gvmwftr6YjYbwneg8crcoaX/htXT3GV8LXX0a5UH+Rr1MBnPD2V0fYYWsoxu313fyOnDY/LMJHkozST9Tofjr+z/q/wAVfFumatp+q2VlDb2otpUuVYv95myuBg/e746V6P8AD/wW3gfwLpWgNc/a2soyhm27d5LE5x+NeLf8Np6dg7vCl0SB2u1/wpU/bW0txhfC18G9DOmPzoo5xw7Qxc8fTrL2klZvXb7iaeNyujXliYT9577nrvxI+FOh/FTw6NJ1lHRo3822vIDia3kxjKk9iOCDwfqAR8+3f7EeuR3ISw8V2T2pHM09swl+m0Eg/mK6R/209PTr4Vuj9Llf8Ken7a2j5AbwvfKT6TxnH61x5hjuF81mqmJqJy76r7zPFYvKMZLmqyu/mek/Bv4E6N8G9Mljs3kv9VuubvU7j/WS+wHRVHYCvTVGBXzU37bGldU8MX7D3mSj/htnS/8AoWL7/v8AJXrUOIsiwtONGjWjGK6JP/I6aWZ5dQgqVOaSR9L0V80f8Ns6Z/0LF9/3/SlH7a+mH/mWL3/v8lbf60ZP/wBBC/H/ACNP7YwP/Pz8z6Wor5rH7aumn/mWL3/v+lKP21NM/wChYvv+/wAlH+tGT/8AQQvx/wAg/tjA/wDPxH0nSE4r5tP7auljr4X1D8Jkpp/bY0nGR4X1A/8AbZKpcT5O/wDmIX4/5Ff2vgf+fiPfPFOhw+KPDup6RcA+Te27wMR1G5SAR7jqK/PLWk1XQdW1Lw7qbbrzTLgwTqmQTgDGPUEHOehzxX0Y37bGjDBPhTUiT/dmTivnbxl45Txj8StZ8TLpD21vfSJI9tJICzKqKuCenO0fpXxPFWZZVj6FOpRmpVIvTfZ7nzmeVsHjKcZ053kn07H21+z/AOF4/Cvwq0NfISK7voEvroqu0tJIoPPuF2j8K9IHSvmO2/bL0yxt4oV8K3rLEgQHz1HAGOODVuP9tTS2PPhe/AHpMlfW4biHJqFCFJV0uVJdf8j36OYYGhSjTjUSSVj6Sor5tP7aml/9Cxf495kpP+G09N/6Fe9/7/pXT/rPk/8A0EL8f8innGBX/LxH0nRXzZ/w2np3/QsXv/f9KT/htTTR/wAyzef9/wBKP9Z8nf8AzEL8f8hf2zgf+fn5n0pRXzX/AMNraUOvhq9/CZKP+G2dHHXw3f8A/f1P8af+s2Uf9BC/H/IP7ZwP/PxfifSlFfNf/DbWi9/Dmof9/I/8aP8AhtrRP+hc1D/v5H/jT/1lyn/n+vx/yH/bGB/5+I+lKK+bP+G2tE/6FzUP+/kf+NH/AA21of8A0Luo/wDfyP8Axp/6yZT/AM/1+P8AkH9sYH/n4j6Tor5s/wCG2tD/AOhd1H/vuP8A+Kpf+G2tB/6F3Uv++4//AIqj/WTKf+f6/H/If9r4H/n4j6Sor5u/4ba0H/oXtS/77j/+Ko/4ba0D/oXtT/76j/8Aiqf+smU/8/1+P+Qf2vgv+fiPpGivm/8A4bZ8P/8AQvap/wB9R/8AxVH/AA2z4f8A+he1T84v/iqP9Y8p/wCf6/H/ACD+18F/z8R9IUV83/8ADbPh7/oX9U/OL/4ql/4bZ8Pf9C/qn5xf/FUv9ZMp/wCf6/H/ACD+18F/z8R9H0V84f8ADbHh7/oX9U/OL/4qj/htnw9/0L+qf99Rf/FUf6yZT/0EL8f8g/tfBf8APxH0fRXzh/w214e/6F7Vfzi/+KpD+214e/6F7Vfzi/8Ai6n/AFmyj/oIX4/5B/a+B/5+I+kKK+b/APhtvw9/0LmrH8Yv/i6P+G2/D3bw5q35xf8AxVH+s2T/APQQvx/yH/a+B/5+I+kKK+bD+23oWRjw5qhz6FP8aY/7cnhyGQrL4c1dQBksfKGP/HqP9Zsof/L9fc/8hf2vgv8An5+Z9LUVwHwf+L9h8YtGvdRsLG5sUtbj7OyXJUknYrAjaT2Yda7+voKFeniaca1J3i9Uz06dSFaCnB3TCiiitzUKKKKACiiigAooooAKKKKACiiigAooooAKKKKACiiigAooooAKKKKACiiigAooooAKKKKACiiigAooooAKKKKACiiigAooooA/CD/gq5/yep4r/wCvLT//AEkjq/8A8EkP+TytJ/7A9/8A+gCqH/BVz/k9TxX/ANeWn/8ApJFWh/wSP/5PJ0n/ALA1/wD+gCgD9z6KKKACiiigAooooAKKKKACiiigAooooAKKKKACiiigAooooAKKKKACiiigAooooAKKKKACiiigAooooAK534i/8k+8T/8AYLuv/RTV0Vc98RP+Sf8Aib/sF3X/AKKagD+X5Oi1+4X/AAR7/wCTRG/7GK9/9Ahr8PE6LX7hf8Eejn9kV/bxFe/+gQ0AfcNFFFABRRRQAUUUUAFFFFABRRRQAUUUUAFFFFABRRRQAUUUUAFFFFABRRRQAUUUUAFFFFABRRRQAUUUUAFFFIaAMjxUM+HNUPXFrLx6/Ia+HPgl4P07xx8S00bWIWms3tZZvKU4+ZSMZI+pr7k8Tn/in9TH/TrL/wCgGvjz9mds/Gmz/wCvSf8AkK/OuJKcKmaZfTqK6cmmj5bNoxeLw3N3PeU/Zt8DMuG0lxj0nf8Axob9mvwRk7dPnUeguH/xr1tFBJqTaK+zlleAn8VCP3H0TwuH/kR48f2afBBAzp82B/03b/Gkb9mbwO/JsJv+/wC1ex7R6UbR6Vn/AGPlv/QPH7hfVsP/AM+0eNj9mLwKethP9PPb/GlP7MPgbtp8o9/Pb/GvY8CjFT/Y2Wv/AJh4/cL6phv+faPGz+y94E/6B83/AH/b/Gmj9lzwIP8AmHzf9/2/xr2bFGKayfLl/wAuI/cH1XD/APPtHjQ/Ze8Cj/mHyn6zt/jTT+y/4FPXT5f+/wA3+Nez4oxR/Y+W/wDQPH7hfVMN/wA+0eM/8Mu+BAc/2fN/3/b/ABp3/DMHgXGBp8o/7bN/jXsmKMUv7Gy174eP3B9Uw3/PtHjJ/Ze8C/8APhN/3+b/ABpP+GXPAgORYTg+vnN/jXs+KMCn/Y+Xf8+I/cP6rh/+faPGR+y94H/58px/22b/ABo/4Ze8D5/49Jx/21avZsUYFT/YuW/8+I/cSsHhV/y7R40P2XfAw/5c5/8Av63+NL/wy94G/wCfKf8A7+t/jXsmKMU/7Hy7/nxH7h/VMN/z7R45/wAMw+Bx0s5/+/rf40p/Zk8E/wDPrP8A9/D/AI17FgUbR6Uv7Fy1/wDLiP3C+p4V/wDLtHjh/Zm8Ed7OY/WVv8aX/hmbwP2s51+kzf416+VBNVLnUbC1bZLdQxv/AHWcA0SynK6avKjFIJYTBpe9TR5S/wCzZ4HDBY7KdWPcSt/WoV/Z28FXPypbztsOCVlzn2NeuiSKRPkcMsgIEkbD9DXKeAPAsPgiTUGTVrjVXu2DPJOVwpGegHAzkk1jUyrAKpTUMNFp7vt/mEsHh7pRpJpnKH9mrwa44tZk9hIf8aZ/wzL4OJ5huvwlr2IKNuabJPBBjzJEQnsTW8soyyOsqMQlhMIt4I8e/wCGY/BoPEV0frLTl/Zj8FH71rcN9ZTXsalXGVII9RS7RQsny1bUI/cCweF6U0ePD9mLwL3sJj/22b/Gnf8ADMPgLvpkp/7bv/jXsG0elGBVf2Tl6/5cR+4f1PDf8+19x4//AMMv+AD/AMwmX/wIk/8AiqT/AIZe+H3fSJP/AAIk/wDiq9hxRin/AGVgP+fMfuD6phv+fa+48f8A+GXvh5/0B5P/AAJk/wDiqP8Ahl74d/8AQFf/AMCZP/iq9gwKMCn/AGVgP+fMfuD6phv+fa+48g/4Zd+HX/QFf/wJl/8AiqX/AIZd+HX/AEA2/wDAmX/4qvXsCjAp/wBl4H/nzH7g+qYb/n2vuPIf+GXfhz/0A2/8CZf/AIqj/hl34c/9AJv/AAJl/wDiq9ewKMCj+zMD/wA+Y/cH1TDf8+19x5D/AMMufDj/AKATf+BUv/xVJ/wy38OP+gC3/gVL/wDFV6/gUYFP+zMD/wA+Y/cH1TDf8+19x5Af2Wfhuf8AmAt/4FS//FUn/DLHw3/6ALf+BUv/AMVXsGBRgUf2Zgf+fMfuD6phv+fa+48d/wCGVvhv/wBAJv8AwKl/+KpP+GVfhv8A9AN//AqX/wCKr2PAowKX9mYH/nyvuD6phv8An2vuPHP+GVfht/0A3/8AAuX/AOKpP+GVPht/0A3/APAuX/4qvZMCjAo/svA/8+Y/cH1TDf8APtfceN/8MqfDb/oBP/4Fzf8AxVOH7K3w1H/MBY/9vc3/AMVXsWBRgUv7LwH/AD5j9wfVMN/z7X3Hj4/ZY+Gg/wCZeJ+t3N/8XSr+y58Mx/zLSn63U3/xdev4owPSj+ysB/z5j9w/qmG/59r7jyNv2XfhgVw3hiMj3uZv/i68j/aS+CPhD4dfDpdU8O6V9iumv4YN3mM/yNu3D5ietfWzKCK8O/a9U/8ACp4sDIXUoCQfo1eRnWXYOGWV5QpJNRbWhx47DUFhptQS0Of/AGJsr4V8SLjCjUFAPr+6T+mK+kx0r5w/YrQR+EfEqg8jUgfzhSvpCt+HFbKcPb+VCyrTB015BRRRX0h6wUUUUAFFFFABRRRQAUUUUAFFFFABRRRQAUUUUAFFFFABRRRQAUUUUAFFFFABRRRQAUUUUAFFFFABRRRQAUUUUAFFFFABRRRQB+EH/BVz/k9TxZ/15af/AOkkVaH/AASP/wCTydJ/7A1//wCgCs//AIKt/wDJ6viz/ry0/wD9JIq0P+CR/wDyeTpX/YGv/wD0AUAfufRRRQAUUUUAFFFFABRRRQAUUUUAFFFFABRRRQAUUUUAFFFFABRRRQAUUUUAFFFFABRRRQAUUUUAFFFFABXP/EP/AJEDxN/2DLn/ANFNXQVgfEAZ8B+JP+wbc/8AopqAP5e1+6tfuF/wR5/5NFk/7GK9/wDQIa/D1ei1+4X/AAR6/wCTRX/7GK9/9AhoA+4aKKKACiiigAooooAKKKKACiiigAooooAKKKKACiiigAooooAKKKKACiiigAooooAKKKKACiiigAooooAKQ9KWigDJ8S86FqX/AF7S/wDoBr4z/ZkkJ+Nlj72s4/T/AOtX2Z4k40PUv+vaX/0E18W/swn/AIvbp3vbXH/oJr894h/5G2Xf4j5bN/8Ae8N6n3HH1P1qWoo+p+tS1+hH1IUUUUAFFFFABRRRQAUUUUAFFFFABRRRQAUUUUAFFFFABSGlooA8i/aK+I1/4I8MWtjo0jRa1q0vkwSJ95FGCxHoTwAf9qub8Pfsy2c2nwT69quoT6lOgknaGXgMeSMkEnB71U/aII/4Wd4MluOLW3Qvk+vmrn+Qr31ZhNEm3kbeD618XDDUs3zTE08YuaNLlUY3aWqu3ZbnhwpQxuLqKrqo2SRx/g/wJB4B0G40mzvbu9t3MkiveMGdcjGAQBxXm/7NiLbXXipYy7u10A5Z2bndJjr04xXuVzCxhkY9QjfyNeK/s9Ksc/id1BVZLlH+hO8n+dXjKVPD5xluHoq0UqmnT4TsxDjSxNCnDRWZifGfUNQj+N+hwaXPLBL/AGeCfLcr8zmT046IOvrW+/7M+n60ft9/4h1p9VlXdJIlyWiLY7I+4Y/I8dqzvHkBuP2jvDm3oY4ifoFlNe/oBhccADpXmZdl2GzTHY2piU2lPlSu7KyXmctLD08RiK3tNUmeC/APVtR8MfFDxp4Avr6XUbew8qe1mmOCFZFOAP8AgX6e9fQy9K+e/C0Ii/a28WSKOJLBN34JCK+g1ORXtcOSawtSk3pCpOK9E9jowLtCVPpFtDqKKK+qPSCiiigAooooAKKKKACiiigAooooAKKKKACiiigAooooAKKKKACiiigBD0rw/wDa7/5JOv8A2ELf/wBmr3BuleIftdf8knH/AGELf+Zrwc/0ynE/4X+Rw4//AHWp6GB+xhx4X8Tj/qJL/wCiUr6Pr5v/AGMT/wAU34pHpqKf+iUr6QrLhz/kUYb/AAI58qd8HD+urCiiivoz1gooooAKKKKACiiigAooooAKKKKACiiigAooooAKKKKACiiigAooooAKKKKACiiigAooooAKKKKACiiigAooooAKKKKACiiigD8IP+Crf/J6viz/AK8tP/8ASSKtD/gkf/yeTpX/AGBr/wD9AFZ//BVv/k9XxZ/15af/AOkkVaH/AASP/wCTydK/7A1//wCgCgD9z6KKKACiiigAooooAKKKKACiiigAooooAKKKKACiiigAooooAKKKKACiiigAooooAKKKKACiiigAooooAKwvHgz4H8RD/qHXH/opq3axfG67vBmvg99PuB/5DagD+XVei1+4v/BHwAfshnHfxDe5/wC+Yq/DteiV+4v/AAR9GP2Q+mM+Ib3/ANBioA+3q+Sv2ov2Vviz+0l8ULGC3+Lk/gX4UWtpGX0vRRIt5cXO7MnmbSisCAu1nZgmOI8kk/WtfnTN+2V8dP2tfivrngz9nXSNN8LeG/D11JBfeMdZaOcSgMyI+HjZUVsEiNUkc4BJUZFAHDftFfsz/ET9g3wpb/Fz4cfGPxRrVvp99BDqmm67MZImjlYIruN2yRPMKKyMh++CCCoNfpJ8J/HkPxS+F3hDxlbwG1h8QaRaaotuzbjD50KybCe5Xdj8K/NL9tr9m34x+Cf2bPEviv4iftA6p42sraWz8zwxHZeVaTSvcRopZw6jCb94zGOVB4IBr7j/AGF3kk/Y/wDhIZfvf8I/bgcY+UDC/pigD3WiiigAooooAKKKKACiiigAooooAKKKKACiiigAoopKAForgvEvxHutI+IGjeFrLSf7QlvbeS7mnM4jEESkDdjB3ZJAxx1rV1jx7p2gmOO7EqSv0XbjP49K8uWZ4Sn7TnnZQdpN3sm/Mx9tT1u9jqKKztV1uDSdJuNRnJFtbwtcOR3UDPFcnpPxD1jVr+3VPCV2LGZh/pS3cJ2Kf4mUsDj2GTXRVxlCjUhSnL3p7Lv9w5VIwtfqd7RUYlyB6nt3rmfEHj620O5eCOzutQki/wBcbZAwi43fMfoRVV8VRwsPaVpWQ51I01zSZ1VFchqnxBSPwLN4m0q1GpwJbm5WIyeWWUDJGcHBAB49at/DvxlH4/8AB2ma/Fbm1jvY/MEJfdt5I69+lTTxlCtP2dOV3a/yJVaEpqCerV/kdJRRRXYbBRRRQBkeJzjQNTP/AE6y/wDoBr4r/ZhOPjXpfvb3A/8AHTX2j4sbHhzVT/06Tf8AoBr4u/ZmXHxq0j/rhP8A+gNX55xHpmuXP+9+p8xmy/2vD+v6n3NHUtRRVLX6Gz6hhRRRQIKKKKACiiigAooooAKKKKACiiigAoopM0ALRRRQAUUUUAec/Gf4ZS/ELRbZ9PlSDV7CQy25k4SQEYZGPbPBB9QK4PRNT+J/hSyFg2h/axGNsUrMHCexIPIr6BIzSbB6V4GMyeliqrxFObp1GrNxe551XBKdT2tOTjLrbqcZ4PfxJP4TuJ9f8t9VcStHBCoXau35VPvn+dcZ8C/B2teH7bXTq9k9lJLdBY955cAfeHtknFey+WA2Rx9KUoCc1v8A2ZSdfDYicm5UU0m+t1Z3N5YeMpwqSd3E8Y1/wPr978ddD1qKxJ0SCEiS681cA7JABtzuzlh2716+UIBA/OrJANG0CtsFgKeBlVlTbftJczv38h0KEaDm4/adzx3RvBeuW37Q+s6/LYNHos9kIkuzIuHfEfAGc/wt1FexAYoAAparB4KngYzjTbfNJy17vcqlSjSvy9XcKKKK9A3CiiigAooooAKKKKACiiigAooooAKKKKACiiigAooooAKKKKACiiigBD0rxD9rr/kk4/7CFv8AzNe3npXiH7XP/JJx/wBf8H8zXg5//wAinE/4X+RwY/8A3Wp6HO/sYHPh7xT/ANhBP/RK19JV82fsXHOgeKv+wgn/AKJWvpIVhw3/AMijDf4Uc2U/7nT9P1YtFFFfSnsBRRRQAUUUUAFFFFABRRRQAUUUUAFFFFABRRRQAUUUUAFFFFABRRRQAUUUUAFFFFABRRRQAUUUUAFFFFABRRRQAUUUUAFFFFAH4Qf8FW/+T1fFn/Xlp/8A6SRVof8ABI//AJPJ0r/sDX//AKAKz/8Agq3/AMnqeLP+vPT/AP0kirQ/4JH/APJ5Olf9ga//APQBQB+59FFFABRRRQAUUUUAFFFFABRRRQAUUUUAFFFFABRRRQAUUUUAFFFFABRRRQAUVwvib47/AA38Fa/NofiLx94Z0DWIkWR7HVdWgtZVVhlTtkcHkc1lN+1L8GEOG+LvgQH0PiWy/wDjtAHp9FeWH9qv4Kg4/wCFu+Bv/Cjs/wD45Tx+1L8GSRj4t+Bue/8Awkdnj/0ZQB6bK+xScgAckk4Ar88Ph9/wVC1r4pftj6b8N/DnhWw1LwDqOpPplrfRmQX7qisTebt2zyxsZ9mzOz+LNdZ/wUF/bp8GeB/gJq2h+AfGmjeIfGPiWM6dbjRb6O6NpbPlZ7hmjJC/IGReQ25wRnYcfNX/AASW8MfDzwXe+IPiz448a+GND1KINpGk2GrarBbTwKwVpbkrI4IDhljU45HmetAH690V5bJ+1V8FYiQ3xe8CAjt/wktl/wDHaiP7WfwRU4Pxf8C5/wCxitP/AI5QB6vWL41/5E3Xs/8APhcf+i2rgP8AhrX4JYJHxd8EHHpr9qf/AGesTxx+1x8E4/BWvMPir4Omb7BcbYY9at2kkPlt8qqHyxPQAAk9qAP50lHCV+4n/BIAj/hkXGeR4gvc+3yxH+tfh6oxs+gr9iv+CVvx0+G/gH9l2TS/E3jzw34b1Ma7dTNaavqsNpLtZYgrBZGUkHbwRnofSgD9Fa/Mv4Uah8S/+CbviDxt4MufhL4g+JHw+1fWH1TRtd8OxGWQAjYVn2IwDFFh+RtmGWQgsG4+3z+1f8FFYqfi74HB/wCxhtP/AI5TP+Gsvgkenxh8CjrjPiOz/wDjlAz4P/aM0P8Aah/bj+HWvTn4bTfDzwLpGNQ0zwtqMwj1TVrpCFJkEgV/lRpmVSsaligG9huH3R+yB4a1jwd+zF8NdD1/T59K1jT9Fgt7myukCywsowFYDocY4q1D+1T8FnOV+L3gU5/6mOzH/tSp/wDhqP4M5I/4W14HyP8AqY7P/wCOUCPT6K8w/wCGovg1z/xdrwPx/wBTHZ//AByj/hqP4M/9Fa8Df+FHZ/8AxygD0+ivMP8AhqP4M/8ARW/A3/hSWf8A8cpP+Gpfgz/0VvwN/wCFHZ//ABygD1CivLj+1P8ABhevxa8D/h4itD/7UpB+1R8GD/zVrwR/4UNp/wDHKAPUq8M/aF/aq079mXVNKufGPhbWpfBeoL5f/CUaTELqK1uM8QzxDDJkYKsMhuQBkV0Q/am+DLdPix4JP/cw2n/xysfxn8Z/gL8R/C+o+HfEXxD8A6zoOpwtbXdlc+ILNklRu3EmQcjIIwQVBBBAIALHwn/a9+DnxuZIvB/xA0fUr1+F06eU2t4T3xBMEkYD1Cke9ewZr+en9tH4BeEPgL8QNOT4e+OdM8beEdXgee1ksdQhu5rNkIV4pWiYg8kFWwuRkYypJ5D4V/tZ/F74K3EDeE/H2s2NtEeNPnuWubMj0NvLuj/ELn3oA/pGor8cfhp/wWj+I2htHF428J6J4qtgeZtP36fcn6tmSM/ggr6l8C/8Fhvgj4mkgh1y18ReEZ3wHkvLJLmBD/vQO7kf8AH0oA+6aKzdF8R6Z4j0q21LTL6C+sbmNZYZ4HDK6sAQcj1BBq79ph/56p/31Uc8e4rruS0h7VGLmE9JU/76pfPiP/LRP++hRzw7hdHl93GG/aLscgEnw5Lye2LiP/Gtv4m2UV14NvDLGHMJV0J6r8w6Vy2s6rHa/tHaJKXxaPoFxbM4I2+Z5yOM/ghrvvE+mN4i0K5sYp0haQqQ5PYHJH4ivlVGljcNjsNCSk3KS6dUrHnwjCrGrBNXbC70tPEPg97Au0K31kIgwAJQMnXB9K46DWfFPw7sANa0my1DTYFCNqOnTlWIzgEwuOO2cOa7+RmtrNEi8vciBV8xsDgY5xXIa3puueMpYbC9u9O0/QxIr3Edm7yT3AHOzewUICcZwCfcV246mlSjUo1FGtFWTuvLRp9NDerCPu6+8jp720kvbu2uoby5tQE2tHG2Y5Aem5SOvuMGsH4aYntdaD5FzFqlzDKzD5jtfCn6bduK2Z7m8g1yyEP2YaUIJfPDv84kyvlhR3GN2axtX8PeI7fUL298M6vplit+Q80Oo2rSrFIFC+YhR1zkAZDelbVqVKVeniY2lKF09e63te25o43cXvbcyPDSJ/whPjy3iULDDf6lEifwjqTgemST+Jqf9nKIQfBrw0gGALfv/vGmajY6f8JvhHrsd1qpvbqSC7uri9uSqvdXMoZmYKOBlmwFHAGBUH7Nt/Efgn4VE0oSUWvziQ/MDubrXFRlRpZhGm5q/JLT1kjmfKsRBdbP9D1aiq39o2i/8vUI/wC2gpy39s/S4iP0cV9H7SH8yO7mXcnpGOAaZ56MPldW+jCvEfHH7Rkfwx+IOo6V4gtluNDZI3s7iwIaaM7RvWVSR/Fkgr2rkxWPw2CgqmImoxbtcwrV6eHSlUdkeo+MJNvhbWn/ALtlOf8AyGa+Ov2akK/GjSDjH7icH/vkmve7z9o74c+J/C+qRWfiazS4mtJUW1uyYZWJQgABgMn2Ga+ff2aJw/xn0bJPKT9e/wC7f/61fE55Xo4nMcvnRkpLm6ep8/mValUxOHcJJ6/qfdEVS1AjY4rzP4jfHCDwJ4mg0C30XUtb1WWET+VYxb9qkkDPPt/Kvu8XiqWDpOvWdoo+krVY0I889j1LOKr3l39mhZ9pchS20d8DNeIr+0/b6ZewxeJ/Der+HLOWRYvtl3ayKisTgZJUDBPfJr2O7uUntd6MsiPGXVhyGUjIIrnwWY4fHxlLDyu47rZr5MzpYinXUvZvVHk8n7TuiW9tLcz6fdxW8QzJJhWC849a9X8P6/B4j0Sx1O2WRLe7jWWMSoUfBGRlTyK8G/ZXsIpk8QSvGryxz+UGYZwOvH4k175qVvcXGlXcdo6R3bROsLyfdViOCfxrw+HK+OxuGeMxlVSUm7JRtZJtfocmAlWqwdWrK/kc548+LHh/4d2wfVLlnnY4W2twHk/EZwPqSK3/AAz4hg8U+H7HVrZJI7e7iEqLKAGAPY4JFfOnxM+EEfg/wHf6zezrd6muzzJVJKks4HfnvXtfwpDR/Drw8hPP2GI4/wCAioy/M8diM4q4LEU1GEYcy77219TPD18RUxUqdVWj0Oj13WotC0W91KYEw2sTTOBxkAZrxj/hrXQSqEaVf4bo2EI/9Cz+ldl8ebmSy+D3ijywTLJaNEoHXLYHH51U+Cvh7T7X4ZeGmWzt2nlsYpZmZAWaRk3NnPuTW2OrY6vmSwOCqqCUOZtq/WyKxEq1TFKjSmoq1xfBfx70jxn4ittHtrWdLmdGdC2OgGTnnivUFbNZVnothY3LXFvptrbXTLsM8MKqxHpkDpWX448ZQeBNAfVLqN5YwwTC+p6V6lKVXLsLOrmNZS5dbpW09EdcFPDUnLETvbrY6lmC9a4Xx78YdC+H8iQXby3V867ls7YBpMdickehrT8GeNrPxr4Qg1+AGK1lR32uem0kH+VeK/ArSf8AhPvH/ibxpqMazeZKYrcTLuKnJwRnphdvPvXm5hmk7Yejl9nOu9G9lFauVuunQwxGIdoRo7z6+R2Xh39pfwzreow2V0lzpE8zBE+2RlRuJwASMjrXoXifxTD4X0O71OeF5Ut8fIg5bJrhvjr4GtPEXwz1pjbp9ts4Tc28wX51KHdwfwq38HfEEvi74eaVc3hE08aGCTcMhthKgn3IxSwuJxtHFTyzFzUpyjzQmlb1TXkOhKtGboVnq1ozNt/2iNJae3Wa2kjSeRY1O4ZySB09s166jb1DeozXzj+0TYW1lrHgkwWsMU9xqSiTYgG5d6jn86+jLf8A1Mf+6P5Usmr454nE4THTU3Tas0raNXMcJOuq1WjWlfltb5klFFFfVnrBRRRQAUUUUAFFFFABRRRQAUUUUAFFFFABRRRQAUUUUAFFFFABRRRQAUUUUAFFFFABRRRQAUUUUAFFFFACHpXiH7XP/JJv+3+D+Zr29uleIftdf8kjY+l9b/8AoRrwc/8A+RTif8LODH/7pU9Gc3+xYc6B4q/7CCf+ilr6TFfNX7FJz4f8V/8AX+n/AKKWvpUVhw3/AMijDf4UcuUf7lT9P1YtFFFfSnshRRRQAUUUUAFFFFABRRRQAUUUUAFFFFABRRRQAUUUUAFFFFABRRRQAUUUUAFFFFABRRRQAUUUUAFFFFABRRRQAUUUUAFFFFAH4Qf8FW/+T0/Fn/Xnp/8A6SRVof8ABI//AJPJ0r/sDX//AKAKof8ABVv/AJPT8W/9een/APpJFV//AIJH/wDJ5Olf9ge//wDQBQB+59FFFABRRRQAUUUUAFFFFABRRRQAUUUUAFFFFABRRRQAUUUUAFFFFABRRRQB+eH7VP8AwS41/wDaM+PXiT4gW/xB0/R7TVvs+yyuNOkmki8u3ihILLIoOfKyPwrypf8AgiX4j3nPxW0oL2I0abP/AKPr9ZKKAPyfT/giVr5+/wDFnTR9NElP/txTbn/gijr8PzD4taWIFGZJH0WVSo7nHnnP5iv1ir5C/wCCn/x/HwT/AGadR0uxufK8ReMWbRbNUYB1gZc3UoHXAjOzI6NMlAH40+Dvgvd/Fb45WPw48E6jHrz6hqr2Flq7xtDDPCpbN0UJLKgjRpCvJ2jua+7rn/giPrwjjaD4raVLJgFvM0OVMHHIBE5yPfArZ/4I0fs9osfiL4x6nCS536FoyuvAUbWuZgT3zsjB7YkHOa/UoE0Afkmn/BE3xeSM/E/Q1Hfbpk//AMcp4/4Im+Lec/FTRx9NLn/+O1+tdFAH5L/8OT/FqglfirpBPbOlTj/2rWL4l/4Iz+ONF0HVtTb4jaFcixtJblIVsp1MpSMttyWO3JGM89a/YKue+IYJ8AeJgDg/2Zc4P/bJqAP5fw2SDnP0r7N/ZF/4JyeIP2qPhZP41sPGen+HbdNRlsEtbuxknZzGsZL7lcAffxjHb3r4wXotfuJ/wR7H/GIfHT/hIL3/ANBioA+d7j/gir4uJUQ/FDRGXHzbtKnXB9v3pz+lQR/8ETvGDD958T9DB/2dNnP/ALUFfrdRQB+STf8ABE3xfjA+J2ht9dMn/wDjlNP/AARL8X84+J+h/wDgsn/+OV+t9FAH5IH/AIImeL8cfFDRM/8AYMn/APjlRt/wRO8a54+Jugke+nz/APxVfrnRQB+RZ/4In+N+3xN0D/wAn/8AiqT/AIcneOP+imaB/wCANx/8VX660UAfkUf+CJ/jgdPiZoH/AIA3H/xVA/4IoeOe/wATNAH0sbj/AOKr9daKAPyL/wCHKfjsYx8S/D59f9DuOP1qJ/8Agit8QtzgfEPwy6nGGa3uAenPGPX36V+vNfOn7X3xN+L3h7RrTwj8FPAuoeIfGOuQSFdeKRpY6RGCAXMkxWIzHJ2q7ADgkN90gH4tftUfsySfsr+MrTwrf+MNE8Ta1JCZ7u10cSBrBTgxibeMBnBLBQScDJwCufDiuT1zX6M+Df8Agjf8VvGdy+p+OvG2i+H7i6kM1wUMuqXTu/zO7n5FLljyfMbJyc+v1l8JP+CSnwP+Hht7rxBbal8QNTRVLNrFwYrUOOrLBFtGD/dkaQUAfib4U8EeIfHmpLpvhnQtS8Q6i2MWml2clzLz0+VATX1L8I/+CWPx5+JkUV3f6Ba+CdOYg+Z4kuPKlcZwQIEDSAgdnC5r9yvCng3QPAmjxaT4b0TTvD+lxcpZaZapbwqfUIgAzWzQD1PhT4Yf8E6de0WS2bxT468uC3hVBB4de4TzHAxuJldgvAUYVe1e1xfsg+H7eNEi13W1IHzF7kncfXtX0BSYrx3lGBlJynTu/Nv/ADPNeX0G7tfizwJf2SdHX/mYNXP/AG0P+NTR/sqaVHkf8JFq7Kf4TKcfoa93xRipeTZe/wDlyvx/zGsvw6+z+LPC2/ZV0VoTFLrGpS5/jZ+RTP8AhlfS41xH4l1tf965dvy54r3fAo2j0qP7Cyz/AJ8JfeH9nYa9+U8PH7NGmhNg8R6+B3H21sGpf+GcLcReWPFevqnoLtq9r2j0pNoqHw/lb1dBfj/mN4DDvdfizw5v2ZrRlKjxX4gP+0127fzJqKf9mayEQaTxV4iaZOji/kGfqN2K922CopIxgnFL/V3KW7ugvvf+Yf2fh9XZ/ez5G0P4L6b4r+I+taHfzyXK6ZGsgeUl3JP4j1Fej/8ADLekyIpj1m/i24wnRQPTGaPhvj/hoLxngcGJg3/kPFe6LGK+fyHJsvrYac6lPmlzzV23olJpJeSRwYXBUK9NyqK7Ta3PDU/Zf09Tzq8/1WMD+tSf8MwaWwIbV7vJGOEFe4hAKXAr6FZBli/5c/i/8zsWW4VfZf3s8Lf9lbw7KoWbUdRduxWV0x/3ywrwr4u/DqDTvF1z4S8L6RqmtX1rEklxIkTyn5xuUFumMEfnX3QUBIPpTTGqkkKAT1OK4MfwvgMZSVKnHk13V2/xZGJy2liKaprT8T4Htf2TvGZ0G41zUksdE+zRSXP2KV/MndUUnHyghScdzU/7McG34u6Du5OJmGPXymr7T8ZQ7/Cutu3UWM4H4xtXxr+zWAfjDoeBwsUxwf8AcYV8jmOTYXKcwwMMOnrJXu+qZ4OMwNDBV6Cpd/1PuEdDXF+NPit4O8Cz7dZ1S3XUSuFgiHmTkdQoAyfwrtDkxvt+9g7fc18t/s/Wtlq3jLxLqOq28cmuJM67biMF0fe24jIyCMdfevvs2x9XDVcPhKNlKrK3NLaKSu35vsfUYqvOm4Qivi7mn8Wfin4e+KHw18Q6PbWup287QCRP7T0+SBQyMrqQxGDyB3r034RX7ap8HvBVxJlmk0i335658sA/yriPjj4msZfD8+ix3kV5qkqktbo254V5+ZvQHFdv8E4dnwc8IJ/c02JTx32814WX12+IsVSlWVRqnHZJJb6adTjpyaxtSL1XL0OM/ZeYeb4riXpHd8Efj/hXvuPlr56/ZTJfUvGn91blR+O6Qf0r6EB4rv4UVspp+sv/AEpmuVu+GT9fzPNf2hlVfhNqwYZ3SQD/AMirW98Mz/xQWgY/58ov/Qa5/wDaLYn4X3sYBYvNCMD/AK6A/wBK6H4YL/xQWgA8Ysohx/uipoy/4yWr/wBeY/8ApTFGTeYNP+X9S3488JR+OfC91pD3LWYn2/vkXcVwQenfpXlTfs3apa2CW+n+O9Qt9igLH5eEH0Abp/nNey61runeH7VZ9SvIbKF3EavOwVSx6DJ71DB4j0y5jWWO9gkRujLKMGuvHYDKcViHPFNe0svtWdumzR01aGGqTvU+I+c4fHnjj4HfEjTtC8T6tH4h8OX6grdSRbZEQtsyG9VPUEnjpX0readaatZmC8tob20cAmKdA6n04NfNPxrvoPil8VfDnh3SI2uksm8uaaMZHzMC5+iqOvvX0Tqmv2XhjRzd6hOIbaFQCx7nHQDueDXj5BiIc+Npqpz4am1ytu62vJXe6Whx4SSjKrBu9Ndxmu2cNn4S1S2tYUt4ls5ljjiUKq/IegHSvN/2ZLcWng++Q8E3jEew2J/hXqFhqVj4v8PLcWkvm2V7EVSRD2bIP5V4p8Kdf/4QbxdqnhjVWFs7S/LvO3a2OOvZhyPpXTmVenRzLA4nT2TUlforpW+8WJmoYijVXw6o9i8aKr+DtbVjhTZTgk9PuGvMv2ZN6eD7+NiSiXxVQew2JXQfGTx/pnh7wXeWpukku71DBHDEQ7kEckge2aufBfwxLoHgS0+0x+TdXZN1JGQQV3dAc9wMVc6sMXxDR9i7qlCfM1rZyasvXqdM5qri4cmtrnn/AO0m3/E/8Dt0KXx/9CTFfQNv/qU+gr54/abk2eIvA8Q4Y3m7H/bSMV9DW/8Aq0+gq8r/AORrj35w/JmGHd8XW+X5EtFFFfWnrBRRRQAUUUUAFFFFABRRRQAUUUUAFFFFABRRRQAUUUUAFFFFABRRRQAUUUUAFFFFABRRRQAUUUUAFFFFACN0rxD9rz/kj0x9L23/APQ69uY4FeJftdc/B24/6/bb/wBDrws9/wCRViP8L/I4cf8A7rU9Gcx+xP8A8gDxV/1/x/8Aopa+lR0r5q/YoH/Eg8Vf9fyf+ilr6VHSubhr/kUYb/Cjkyf/AHGn/XVi0UUV9MeyFFFFABRRRQAUUUUAFFFFABRRRQAUUUUAFFFFABRRRQAUUUUAFFFFABRRRQAUUUUAFFFFABRRRQAUUUUAFFFFABRRRQAUUUUAfhD/AMFW/wDk9Pxb/wBeen/+kkVX/wDgkf8A8nk6V/2B7/8A9AFUP+Crf/J6fi3/AK89P/8ASSKr/wDwSQ/5PJ0r/sDX/wD6LFAH7n0UUUAFFFFABRRRQAUUUUAFFFFABRRRQAUUUUAFFFFABRRRQAUUUUAFFFFABRRRQB5X8Wf2pvhN8DLv7H458d6ToN/sEn2CSRpboKejGGMM+D2O3mvkn4u/GH9i39s3xj4cXxb49lur/SPNt7C3uft2l2cqvtZhJK8aIoJQfMXQ9AT0r661f9mL4WeIviLqfjnWvA+j654l1GKGG4utVtlu1IiVVjKxyBkVgqKNygHA614F/wAFM/BXw00T9kvxXq2reGdFh1iFILTRLuGyijuorl5F2rFIAGA2h2ZQcFVYYoA+nvhb8NfDXwe8BaP4Q8I2Q07w9psbLaQCZpcB3aRiXYlmJd2bJP8AFXmnxZ/bj+CPwR1240TxX49s4Nbtztm06wgmvZoW/uyCFHEbf7LEHnpWZ/wT+stW/wCGLPhfDrJube+fSn2NI+ZFgM0htyM5wPJMZX0GK3PhV+xZ8IPhJprQ2Hg7T9c1GWR5rnW/EcEeoahcyOcuzzSKSMnHChR3xkkkGP8Agr+2l8G/2g9bOi+CfGlvf64EMg0u7t5rO4dQCTsWZF8zABJ2bsAZOK9ur8sv+Cnnw88MfBj4ofBHxP8ADLRdP8K/EG91abyk0a3W2W5aN4DE7pGACRJIFzjLB2ByBgfqbQIK534jEj4e+J8df7Luv/RTV0Vc98RBn4f+Jx/1C7r/ANFNQB/L4vRa/cX/AII9/wDJoX/cw33/AKDFX4dL/DX7j/8ABH0Y/ZAT38QX38o6APt2iiigAooooAKKKKACiiigAooooAKSlooAKKKKACiiigAooooAKKKKACiiigAooooAKjk+6fpUlRydG+lAnszwz4dfL+0L40X0jz+YjNe6p0rwn4fcftFeM/8AriP/AEGKvdk6V8vw9/u1X/r5P8zzMvf7uXqx1FFFfUHqBSHpS0UAYnjAf8UprA/6c5v/AEA18Y/s2pj4zaL/ANcpv/RbV9oeLf8AkWNXH/TnN/6Aa+Mv2bzj406OP+mU/wD6A1fnXEWucZev736o+Uzf/e8P6/qj7ejT5ia8/wDEvwJ8MeJ9dn1h47vTtQnOZpdPuGiEpxjLL0zgDkYz3r0VOtPr77EYeji4+zrwUl5n1FSnGppNXPOLD4E+DtOtZIBo0U6yDDySs3mP9XHP611lppFp4f0BbOwgFvaWsGyGFSW2qq4Ayea26Y8YdSpGVIwQa58PgMJg4uOGpRh6LX79yFShGLUFZs+Uv2bPHujeF7nxS2qajb2AurkOGnkCDguT1/3q+nNB13T/ABJpcOo6ZdR3tjNny54m3K2Dg4NYd18H/BN7K0k/hXSJXblt1nGc8554rp9P0200myis7G2is7SIbY4IECIg9ABwK8vJcvxOWUfq1SalBXtprq7nHgMPVwtP2c5XSMnxl4Ps/G2iS6XfPNHA5Db7dgrgg+4NXNB0OHw/o9pp1uWaG2jWJGc5JAGBmtOivbWHpKs8Qornatfrbsd/JFT57anP+MfBmneN9GfTdTiZ4CwkR4zteNx0ZT2Irzeb9mjSrkFJtZ1B485HTOPTOP6V7RSYrjxeV4LHSU8TSUmjCrhaNeSnUjdnG+BvhT4d+HiudI09Y7mQbZbuQl5ZB6Fj29ulW/HngDTfiD4dm0bUvNW3dlkWWBtsiODwQfzH411FFdEcHhoUHhYU0qbVmkrI19lDk9nb3exg+E/Clr4O8OWOi2Rke1tE2I0py7ck5J9eazPG3ws0Dx3NFcajbMl9EuxLyBtsm3OdpPcfX1rsaKt4ajKisPKKcErW8kEqUJU/ZNe6ea+G/gH4X8OavDqQt5dQuoW3xNeyeYI2/vKOmfc5x2rvdQvrXSLSS8vJ47a3j5eWVgqr9SelXao6zotj4h02fT9StIb6xnG2WCdAyOOvINY4bBUMDTdPCQUL67de77ihSjSi1SVj5n+OHjXR/FfjfwSmn31tqG3UI4y1tMrgAyJ6H2r6hgUrGgPUCuT0n4P+CtCuobnT/DGmW1xCwZJVtl3KR0IJGQa7DGK8vKctr4KtiK+JqKUqrT00SsrHHhcNOlUnUqO7kLRRRX0Z6QUUUUAFFFFABRRRQAUUUUAFFJRQAtFFFABRRRQAUUUUAFFRvJtYD1rxf4gfHnWPCvj648N6b4ci1JoURw73Xll9y7uBtP0rzsfmGHy2mquJlZN2+bOfEV6eGh7Sq7I9spM1xPw28X+IfFemXFz4h8PL4dkWTbDELpZzIuPvEqMDnPftT/H/AMS9N+HelG5vT590/EFnGw3yN/Qe9XLHYeGGeLqT5Yb3egLEU3R9u3aPmdpRXm/wZ+K9x8UtN1S6uNNXTWs7poFRZN+5cAg59ea9BeXGD+laYTE0sdRjiMPLmhLZl0asK8FUg9GT0V4dd/HnXtQ1q/sdB8MLqC2krRE/aPmODgnGOKu2/wAVfG29PtPg14kJAP7wn8elfPribLpt8knJJ2uotq607Hl/2thX8Lb1tomeyUVDazNLBE7psdlBK56H0qUntX1EWpJSXU9lai0V598XvizafCbw4l/LaSanqFzKILLT4SA07/XsB3OK8tu/2iviJ4etv7V134dLb6KFV3a2uzI8an+8dvH5V4uNzrBYCp7OtLVb2Tdr7XtscNbG0MPP2c3qfSW4Utcp4O+IGm+PPB1v4j0VjdWtxGzRxEgNvGco3ocjFeVat8d/iBoltNe6h8PP7MsY03mW5vARjPUlQcfjitMVm2EweHji6kv3cuqTa/A0rYqlRpqrL4X1R769eJ/tcc/Bu6b0vLfH/fwV6H4A8YyeNvCGn6zNbLaSXSEmFW3BcMR1/CvO/wBrI7/g3dgnAF5b/wDoYrmzarDE5LWr03eMoNr0a0M8VJVcFOcdmjmf2KP+QB4q5/5fk/8ARS19KjpXzP8AsTHGieKx/wBPsZ/8hgf0r6YBrLhr/kUYf/Cjlyf/AHGn/XUCcUm/nFRzNgjPSvLfhBDe3I8U3NzqF1O7a1cxxeZKzrHGrBVAUnAHHavZrYl0q1Kio3c79drK56U6vJOMLbnq+eM03zBXm1rf+INO+I1np2oXYuLGaJnBUbQwxxx9QaufEzVLyytNGtra5e1+3Xwt5ZUYqQhRjwexyP0rhjmieGrYh0pJ02046Xf/AA5msQnTnO3wnfgg9DSFgK5Pw14cl0OZZl1rUb6BkO63u5VlUE4wQxG4d+M45p3ivxlH4Z8O6lqAie4uLb5UgJ2F2JCrz6ZPWu+OJUaPtq65fK6f4o2hO9P2klY6vNGRXj/iODX/AAdYt4i/t+71SW0kikudPkZY4Gi3ASbML1CkkZ64qX4w3F9aXnhPVdPvrm1H9r21tPBHIVSSOSTHIHXt+FebPNJUqNSrVotOFm1dXs+v/AOaeIcIObjtb8T1yio4TmNe/FSV7q1OxO6uFFFFMYUUUUAFFFFABRRRQAUUUUAFFFFABRRRQAUUUUAFFFFABRRRQAUUUUAFFFFABRRRQAUUUUAfhD/wVb/5PT8W/wDXnp//AKSRVf8A+CSH/J5Ok/8AYHv/AP0WKof8FW/+T0/Fv/Xnp/8A6SRVf/4JI/8AJ5Okf9ge/wD/AEWKAP3PooooAKKKKACiiigAooooAKKKKACiiigAooooAKKKKACiiigAooooAKKKKACiiigDhvjJoXjbxJ4B1DT/AIe+KrXwZ4qkKG21e8sFvY4wGBZTG3HzDI3ENj0r85Pjj+z3+0v4attP8c/GbWtE+PXw88JXn9t33hm3vXstypG26VlW2QbEHzEAuMZyjDcK+3Lr9uD4H6d471vwfqnxA07Qte0e6ezu4NZSWyjSVPvASyoqED1DYPbIrxT9sL/goR8K9H+EPiDwr4J12z+I3jLxNYzaRY6d4flNxHF9ojaLzpJFUqdm7IiBLudowoJdUNH1F8BPjN4X+Pvwr0Txp4PaQaJeo0aW88QimtnjYo8UkYJCMpXoCQRggkEE9H418baH8PPC+p+IvEeqW+jaJpsDXF3fXT7Y4kHc9yScAAZJJAAJIFfMv/BOP4L+IP2bv2VY7fxqr6XqWoXdx4hurK5J3adE8USrG4x8rBIA7L1UuQeQRXy/qvx78I/t0fEnUdW+J3jLTvAn7PPg68WWw8PX2oJbXniO5AbZLIgJkZQOqqPlVwqkuXamB6T8AfAHiD9tr9pyL9o3xbZXGlfDXw5KYPA+k3SBZLzynby7ll/urJmUnvJtUErHz+h9fM+n/wDBQL9mnRtHs4LD4laLZafBEsEFnb2VwnkogCqixCLKKAAANoGBxxX0ToGvad4p0Sx1jR76DUtKv4UuLW8tZA8U0bDKurDgggg5oBl+sHx+M+BPEY/6htz/AOimrerB8e8+BfEf/YNuf/RTUCP5eF/hr9xv+CPj7v2Qsf3fEN6P/HYj/Wvw5X+Gv3D/AOCPH/Josn/Yx3v/AKBDQB9xUUh6V8q/Ab9pDxl8SP2yvjV8N9U/s/8A4RXwlFEbBYINsysWQfM+TuyC5OehxjHNAH1XRRRQAUUUUAFFFFABRRRQAUUUUAFFFFABRRRQAUUUUAFFFFABRRRQAUUUUAFRyfdb6VJUcp+VvpTQnszwvwB/ycT4x/64j/0GKvdk6V4V4BXH7Q/jA9jCP/QYq90j+7XyvDv+7Vf+vk/zPLy7+HL1Y+iiivqT1QooooAx/FXPhzVf+vSb/wBANfF37Nxz8b9IH/TKf/0Bq+0fFP8AyL2q/wDXrL/6Aa+Lf2bf+S4aR/1yn/8AQGr864h/5G+Xf4j5bN/96w3r+qPudKfUcfNSV+jM+qYUUUUhBRRRQAUUUUAFFFFABRRRQAUUUUAFFFFABRRRQAUUUUAFFFFABRRRQAUUUUAYvizxND4U0O71KcbkgA+XpuJIAH5mvMF8efE7VVW407QNDNk4ym+8k3sO38IHSu7+KXhe48X+DL/TrIj7W22SNWbaGZSDtz2zjFeX6B8R9V+HVlHp/i7wtf6XZW+I4tQjAmj2AcbmQkZ696+MzWviaeNjGpOUMPy/FFX96/XtoeRiZVfbKN3GFt13PR/BXiHxJqOnSP4i0yDTblZNqC3l3gj39P1rEtvihqNz8X7vwo1rbrp8NuZBMM72O1T6+/pXTaJ4j03xVp8eoaZdxXtox2+ZG2cH0PcH615jBsX9ou8bOGeAqB/2zXn/AMdozGvVw1DA+xruSnUim/5k+jHiak6FKj7OfNdpN90e3+fkDBxXA+FPiVf678U/Evhq4tIY7PToo5IJkJ3tkDIb867VxtGeuBXj3w+cS/tCeMyRjNsB09PLFenm1erRxWChSlZTm0/NcrZ04qcoVKKi9G9TrPif8TLvwHd+HVgtoZ7bULp4Z3kYgooTOR+P8q5q9+KnxA1edj4a8HQT2AHy3N1dBQ/4DkfrVT4/wrfal4JtZMlJdTZTjvnap/Q17DaWkVtbW0SIFRUChV4AwK8ypTxuPzevh6eIcKUFHRJXu10fTzOVxr4jE1Kcaloqx5FoX7R89ppmvQeKdF+xeJdJmER020l3eduAK7SR3Bz9Kjufiv8AFh4xfR+ALC108p5hWS/MsgHvhRg/gfrWJJo0Vx+1vfb0BX+zo5SCOCyxhAx/OvfhCFGxssDwc965MvhmOZU8TTlinH2U3GLSV3a2su5NKGJrc0PaW5dL9/U5n4WfEq2+KHhK21uGH7NKXaKe2LbjE6nBH9fxrzDxBGs37UNuGQFWijGSO/kk/wBaZ+zChs9V8eWC8RRajuAx6tIP/ZRVvW8H9pO2OfmEMf4/umrzsXi54/J8DXraydWKfnaTX6E1arq4SEqm91+Z7tHbLFtPPGK8/uPg7pL65eavdz3OqX07M6m6kLLH1wFXoMV6OvKA1FcqFglY9drfyr9CxmDoY6ny4iPMlfTpsevWp06sLVFdI8S/ZcmM2n+KlwAE1aQDHcbVx/Kva7oiKMyf3AW/LmvD/wBlT/kEeIsdPt5J+u0Zr3OWBZ4njcbkdSpHsRivB4UUY5NRVNWXvW/8CZ5+WL/ZEo6bnz98CNY0nSz4gvtTv7XTZLq7dg13Ise5S5PBPavdNM1XTtVRjY6hbX4XqbeVXx+RrzKX9lvwPJ5vnW13cq+f9ZdOCvOeCpGK8x+KHwRb4P6W/izwfrV7aGzkiLwvySpcA/N/EOnBHIzzXh4P+1OHcC41qMZwg25NPWzbd7PqclGeIy/DqM6ScU3ex9QajJNa2FxNbJ588UTMkAON5A4Argvhz8RNe8V3s8Wq6FPpUCfckljZCx9ORzXRfDfxYvjrwbpeulFimuYsyRocgOCQ2PxBro5IRI/IAHWvs4w+vVKGNoVmqdr2W0k1pf0PYSdaUK0J+7bbueAeIbRvHv7TlnBdIHsdAsd8SMOC5GSSP+Bj8hXuEtlBcWklrPCs0MiFHVgCCpGCK8i8MRBf2mPFZYbSbEYyf9mHp9cGvaGUbT9K8Xh2mqtPFVq3vSnUmn6R0S+RzYOnGftJz1bbX3HzR+zrZ/8ACC/Fz4i+BIi66ZHKb60i3HbGMjgD/dkQf8Br134rQ+b8KvEysC2bN15+leZeBSJ/2uPGDR/dNgwOPUCAH9a9V+LWYvhh4iI/59yPzIFeblcnPIcXRfwxdRL01MsO08FVp20TaRn/AAIJb4ZaSDnKq64P++awv2rFz8Hb0Dqbq3/9DFb/AMChj4b6X9H/APQzXN/tbytb/B6dl5/023B+m6u2Stwsl/05X/pKFJ2y1+hyf7E52ab4ujJyRcQH8TGa+mlJr4j/AGdPiu3w4stfeTwzrGuRXNxGzT6TB5+zCkBXGRjivbV/aosCoI8I+IUz/DJa7TWHDuZ4ajlVCnVnZpdn/kcuV4mlTwkIyex7ZJ8zDPTNecfBlVS08UxBsldauSfb5un6VzjftQWDYH/CKa+uejfZc498ZzXnPgn4yah4L8Q6/cy+FdburHU7lrlVjt2JUsS3Q/Wt8ZneEjiqFSKlJLmu1F6XXoa4jH0YVqUr6a30PftaUP8AEXw+uSzC2mYD1x1/mPzrZ1zSrDX7J7PU4EntCwYh32YI6HdkYryJP2nNLmIlPg3xCLiIED/QcuoPUA571U1r4/aPrtg1tP4W8QiJzkxXOlOeh4PGa0/trL6Htp6y5neyi9dEu3kbyx2GipOLvfyOghsm03462ttoayppI0iSXUdgYwKQ22JQfu7ySTjrha6f4g6Jc+K/Bl/a2n767WSOWFCeSUkD4/Hbj8a84sv2hNH0xBCvhfxKxC9IdHlA/IgH9Kms/wBorSbBpT/wjfiVhI+/EWjzZ3Ed+OK4MJm2W0qH1dqSVRtv3XaLfQwp4vDqFm9Jb+RufEnxppVz4EuLKxu0vdW1pBY2VlB887SScYKDldoJJJxjHNa3xdtVXSfDkbHdKmsWIUjuwlXP6Bq4df2l9CtLz7X/AMIX4g8/GwSjS8SY9NxPH51yPjv45at401DR3tPBWuwWNhcrdFZLVzJKR0AVQR6nOa5MXm2HqYevJtzlJpJKLWi+RGLx1B0Zcrb+TPrNBhVx6U4V4CP2qZYEQH4feJmHQtJbiP68Gpl/amdyP+KB8Q8jIwkZ/wDZhX1Cz7AcqfO//AZf5HYsww3Kve/BnvNFeCTftXw2oLXHgXxLbxjrJJFFgfgJCf0r0L4VfFiw+K+l3d7YWs9oltN5LLPjJO0NkYPTmt8PnGBxVZUKU/eeys1+aNaeNoVZqnCWr9TuaKKK9o7QooooAKKKKACiiigAooooAKKKKACiiigAooooAKKKKACiiigAooooAKKKKACiiigD8If+Crf/ACen4t/689P/APSSKr//AASR/wCTydI/7A9//wCixWf/AMFWv+T0/Fv/AF56f/6SRVof8Ekv+TydI/7BF/8A+ixQB+59FFFABRRRQAUUUUAFFFFABRRRQAUUUUAFFFFABRRRQAUUUUAFFFFABRRRQAUUUUAeW/EX9l34TfFm9nvfFnw+0HV9Rnx52oPZrHdSYGBumTa5wOBlu1R/Df8AZV+EPwi1KLUvCXw80HSNVhz5WoraiW6jyMHbNJudcjjhulerUUAQX1jBqVlPaXUSz208bRSxOMq6MMEEehBrw2D9g/8AZ+to0RPhR4dIQYUyW5cgc9ySe9e80UAeHt+xD8BXKFvhT4aYJ91TZjaPw6V7Foeh6d4Z0ay0nSLG303S7KFbe2s7WMRxQxqMKiKOAABgAVeooAKw/HYz4I8Qj1064/8ARTVuVieOOfBXiDv/AMS+4/8ARbUAfy6r/DX7h/8ABHg/8Yiye3iK9/8AQIa/D1ei1+4P/BHcf8YjTf8AYx3v/ouCgD7jr8nvhd+0z4Y/Zw/ba/ad1rxNHqGoX2oak1jpOkaZbma51G4FyQsSdlwMHLEDGepwp/WGvy9/Y78AaZ4o/wCCn/7QOtalaw30mg3eozWXnqG8m4kvFUSKPUJ5ig9t1AHpfib/AIKJfGPwXpJ8Qa/+yr4l0jwzGGkmup9Qk3QxBSxeT/RfkwAT82B719b/AAL+OnhL9or4dWHjTwZevdaVcs0TxToEntZlxvhlQE7XGQepBDKwJVgT2N/Y21/Y3Nle28V3Z3MbQzwTIGSVGBDKwPBBBIIPXNfmJ/wTTab4QfttfHL4P2U8knhuCO7mt0lYkg2t4kcJ9MmK4fce+1fSkM/UqiiimIKKKKACiiigAooooAKKKKACiiigAooooAKKazqiksQoHJJqC21C3vC32eeOcDgmNw2PyqeZJ2b1As0U3eMkd6ZJcxQxmSSRY0H8THAptpK7egbK5LRUFrfW97GZLeZJkBxujYEZ/CptwxQmpK6d0JO6uhahmPyn6VJ5g7EH6Gqs11BuMfnRiXGdhYZx9KaaW7C6szxjwEv/ABkJ4vOMfuR/6DFXuKdK8Q8BOH/aD8Vkcq1sCDn2ir29elfNZAuXDVLdak3+J5mXWdKTXdjqKKK+lPUCiiigDG8WHHhzVj/06Tf+gGvi/wDZs/5LbpJH/PGf/wBAavs3xcceG9W/685v/QDXxl+zYoHxs0rnpBOfr8h/xr864j0zbLn/AHv1PmM2X+1Yf1/U+5IjUtQQnips5r9Ge59S9xaKKKRIUUUUAFFFFABRRRQAUUUUAFFFFABRRRQAUUUUAFFFFABRRRQAUUUUAFFFFAGL4m8Tab4W0/7Zql3DZW5cRCSZwqlj0GT3rmLv4leF20u5uLrV7SSyCEygyBxtx0wP5V2Wr6JY69aG11Gzt762JDeVcRh1yOhwe9crefBHwLqDhrnwtpk2OQDAK8nFU8fKbeHnHkatyyTf43OOssQ5Wp2t5nkv7Pdss3jvxXe6OrQeF52O1ASE8zPy4XtxuPtmk+Jupj4cfHXQtcv5RDpGooUE8nCA42spPQEZU/Q/WvoTTNCsNEsI7LTrSCytI/uw28YRB+AFGq6Dp2u2RtNSsbfULUnJhuolkTPrggivDhw9y5XSwUqv7yEuZS6KV77duhyvAL6tGlf3k7o4e7+NHgqy0/7WfEmnyRvwnlTiQkngDC5PU15z8FNZj1r40+J7hVcNPavKCQeFMi7fpkAGvYLH4R+C9NvFu7XwtpENwp3LItnHlT6jjiuht9KtbSV5ILeKGR/vtGgUt9cVpPLcyxeNw+JxVWKjSbfLFPVtW1bZcsPVq1ITnL4Txn43zR23i/4fxyf8tL5gmf72Vr2OBcRpn0puo+HtN1We1nvLC2up7Vt8Ek0Ss0Teqkjg+4q8Ih+VevhcDLD43EYuUrqpy2XaysdNGi6dWdVv4jwUSR/8NW3aZzK+kr+GMV7eYy2R3FQjwtpK682tjTrZdXaIQteiMeayf3S3XFaBgBJNTlmAlgPb80r+0m5el0tPwHh6LpObk/iZ8/8A7Os0d34h8dTxDav27Y/ru3yU/Vk3ftHRNnn92oHt5Rr2zTvDun6PJObCwt7ITv5k3kRhPMb1bHU18/fEDWX8L/GuXUpbaV1g2Ou1CQylMHB+hNfG5lgZZTlmEoy95U6ik2l0bb/U8jHR+q0ILdX1PpFDwO9Qai+2wnI7Rsf0rmPAHxDsPHS3C2Uc8bW4BkE0ZQjOcfyrsWiWRCrqGUjBB7iv0GjXp4ugqlJ3TR7Uaka9K8Hozwr9llxLouuSKu1JL1mz6nAzXubsI42YnAUEmqGi+GtM8Oxyx6ZYwWMUjmR0gQKGY9SQO9aLxh1KkAgjBB71wZPgJZZgoYSUruN9fVtmGDoSw1FU272PP9O+NvhDVYvOTWIIoyCcTNsbHqQeleb/ABs+LOieLtA/4Rfw9cDWr6+lRGjswZCADkDjqSQB+NelXnwF8BXt1JPL4ZsmaRtzKFKqT64BwK2fDPwz8K+DZfO0XQLDTpyMGaGECQj3br+teNjMBnGPw8sHVqwUJaNpO/L5a2vY55UcTXi6dSSSfYzPhd4bl8DfDfSdOvAI7i2gMtyo52MSXYe+M4/CrXgr4l6P46uLuLTHZ2t/vbhjPUZrrfJUhgQCGGCCOtZOkeD9F8P3NzcaXpVpp8tyczNbQqhkPqcDmvoI4etQ9hSw0kqcFZp7tJWVn3O32c4ckKTtFbnifxXjvfhp8V9P8fJun0O6UWl4iocwuAAMnphhyCe647iut1r9ofwXoPhdtYOrRXYYYitYTmUt/d29QR716dfaVaapYzWd7bRXdpOuyWGZA6OPQg9a5LTfgj4C0i+F5a+EtKS5U5WRrZXKnOcjdnH4V48ssxmFrVpZdUUY1XdqSbtLq169u5g6FSnOToyspHnP7OnhC+n1bXPH+r2k1le620gt4LhdrrAzhgfbOF/AV3nxpby/hR4gOdu6ELn6sBXesgA4XgdhXgPxp+Lmia34W1fQLOSR7wOI5ImQqV2sCT+YrmxcMNkOS1MNKbd1L1k3e+3mzKryYPCum3du523wJGz4YaRnrh8/99muV/a/Yj4L3eOpvLcf+P11/wAEIZE+GGitIrIzRl9rDBwWJ6Vx/wC2BkfBqdem6+tx/wCPVdRP/VlJq37pf+koh65br2OU/Yltx/YXifHUXkbA45zsIP8AL9a+m1Vj1/lXzf8AsTqP+Ee8TtjGb5V/8hj/ABr6XAxXZw2/+EjD3/lHlVlhY6EW0/5ApNnsKnor6W562nYrmIt1x+QpVh2+n5VPRQFl2IPK7YH5Cl8rHYflU1FLQLLsRhMf/qpduevP1p9FMNOxF5eDwMfhR5eB0/SpaKAsuxUuIy8TAkkYPHavEP2VmBtPFe1AijUmwAMdhXuV1xC30P8AKvEP2XQVt/FgzwNTfA9OTXzGYa5pgv8At/8A9JPKxDX1uj8z3YdKWkHSlr6Y9UKKKKACiiigAooooAKKKKACiiigAooooAKKKKACiiigAooooAKKKKACiiigAooooA/CD/gq1/yen4u/689P/wDSOKr/APwSS/5PJ0f/ALBF/wD+ixWf/wAFWf8Ak9Txf/16af8A+kcNaH/BJL/k8nR/+wRf/wDosUAfuhRRRQAUUUUAFFFFABRRRQAUUUUAFFFFABRRRQAUUUUAFFFFABRRRQAUUUUAFFFFABRRRQAhIUZJwK82P7SPwyX4rt8ND4z0xfHKsEOjNIRJvKBwgYjYX2kHZu3e1RftK/GzT/2efgt4n8dahtc6bbYtLdj/AMfF05CQRjvy7LnHRQx7V+R//BMz4T65+0F+1wfiFrc015aeGp31/VL+brcX8pfyUyP4jIzSemIyO4oA/b+iiigArG8ZqX8H66o6mwnH/kNq2ax/GO7/AIRHXNuN32GfGfXy2oA/l0XotfuF/wAEe1x+yPL7+Irw/wDkOGvw/QZCV+4X/BH1if2SZgQAq+IrwLj08uA8/iTQB9v1+RPwu/aD0D9nT/gpx8YL3X7j7N4V1/VLzSb2/wAMUtJmlSSOQgAkgSIyEDoJCx4U1+u1eTXf7KXwk1M+KjqPgPSNUbxNqTavqb6hD9oeS6ZNhkRnJMRwWx5ZXBdiMFjQBb+I37Qnw9+GHw9m8beIfFWmw+HBF5sFxb3Mc7XhIyqW6oT5rN2C57kkAEj4i/4JWeB9b+InxY+LX7ROs2T2Fn4nubmz0tJOTJ5tyJ7jaT1WMpDGGHBO8dVIr3vQf+CYH7Pug+Ijqsnhe+1iJGD2+l6rqs89lbsDnIj3DeD3WQuD6V9QaHoum+GdJtNK0fT7XStLtIxFbWVjAsMMCDoqIoCqB6AUDNCiiigQUUUUAFFFFABTRIpfZuG7rtzzTq8D/az/AGVrD9o/wqkunardeE/HulRu2i+IrCZ4ZI2PPkzFCC0LMBnHKn5l7hgD3vOaWvw6T9uT9qT9knxXdeDfGGpSaheWMhLWHi+2+3F1JOClyHWR4zzhhIV446Gvon4Y/wDBbHRZ1gt/iB8Pr2xk4Et94euUmTPqIJSpA9vMY0DP08orwL4Tft2/A/4yrDHofj3T7PUJeBpusk2NwD/dAlwGP+4Wr3qKZJo1kRw8bDKsDwR6igQ+ikJpCT6UAY/i+Ro/C+rMpwVtJWz9FNch8M/C1sngvTnj3RPLEHeWI4Yk5Jz69e9dd4vH/FKayx/hspj/AOOGsv4aSrJ4I00I24LEBkfjXh16MKmZ0nNXtCX5o46kIyxEL9mcxpOnXmj/ABskg+2SzWNxo7ShXY/eDqOnr7+9N+KGrafY65Z2usQyPYiESrM0TSRB9xyGAB5xitSa2vP+F5W9x9mm/s9PD7D7RsPl+aZx8u7pnAzit3X/ABlp3htN1+0+xycLBbvMW9sKDXF/Z9OWBxGFcuSHM9d9NH9wvq9qUqTdle5k+BLrw7dR3E/h6a1KtzcpbLsO7AAZ1454xk0vjTxNead4R1ErC1veFTErA8fMQAyn6H9KyPA11F4j8eazr9pYXdhp7WcdsWu7drc3D7mOdrdcAAZ962PE8Y8U+C9TjtY2kuVBEcP3W3qdwH0OB+dVh51cRltsO1GV2lZaSS0ur7afiNRk6DitzkfFXhK78C+EbnxDZaxfS6lpiJdSxzTExXCqwLoR2yu7GO+Km+JenJNqfhTWYkKsLwpgjB2vE7D8iBUXi/xTL8RvC9x4U0Kwv11PVEWGWW6s3jhtItwMrSOwwCFDAAZJJFbfxceO00XQtrfPHqtqi+pHKn9Cawq0aDwWJ9h8PLa+u6vff5HNVpxpYebjordTjvhSxb48+IE640iOU8f3mQf+y176vSvBfhWf+L9a+qjgeH7ct9fNOP617wpPpXVw7Hly6mPLI2wsR9FJzSZPpX0h6g6kJwKQsfSsiHxfo11rl5oqajbnVbTb51mXAkUMoZTtPUEEciplKMbczsS5RjbmdiHxef8Aim9X/wCvOb/0A18b/s4DHxp032t5/wD0E19i+MInbwnrYAwxsZ9v18tq+QP2cSrfF6xK85t5wvt8vNfA8RpPNMu/x/qfPZtb61Qfn+p9qxPtFZWl+OtE1jXrvRrO+SfUrRS00Kg5QDAP8xWghzGecGvC/hOir8dPF8pYJxMh5wD86Y/lX1GZY2eExOGpRWlSTT+657GJryp1KcUtJPU+hAc0EgVnRa7pnnm3GoWpuRwYhMu8H6ZzVuRskDp3r14yjJ2i7nXFqT0Y9p0Q4ZlU+5xSrKrjKsGHsc18pfEzRJvFfx/fQnu54ILrZtaOVl2DyiTgAj0r3b4b/Dqz+HOmS2dhd6heCdg7yX9w0xBxj5c9B7V87l2a1swxFWlGjaFOTi5NrdeR5uHxVSvWlBQ92PW53AcUB1J4INeIfEPxp4i8RG+0bwzaXNrHE3ly6hkqTj7wHp0qr+zLNcyW+u+fdzXRWVU/fSFyDznrXK+I6Eszp5bTg3z3977Om689iXj4vErDxi9ep71kVHJcxRHDyKp9CaYZSoGc8nrXzH4Z8FD4s+N/GM9/qN5bW9jfPEhtZmVmwxAA56YU/nXfmmY1cDOhRoUvaTqtpK6Wyu3qa4vEToShCnDmlI+nRewM20TIT6bqmByM14vafs7WVu6yW/iTWFKnOHkB/nz1969ftx9jgiiJJCIBk+wrpwVfGVZSWKo+ztt7yd/uNMPPET5vb0+W3nctU0uB1NVbfVbS8dkguI5nX7yxsCRXj3xx8U6lqmrab4F0G7a1vdQ/e3d3DIUeGPBIGRyM4HT1ox+ZUMBhXipPmWyS6tuyS87l1qyo0nV3PZ/tkG8L5qbj23VLnmvnq+/ZitZNMa407xDqcOsCPInmmLozgZ5B56985FbnwH+IereINI1fw/4hTPiTw/Oba7fIPnoc7X9+mK4MNmmI+tQwuNoezc/hd007a202djCjiZzmqdWHK3sexteQq21pUB9CwqSOVJl3Rurr0ypyK+cfiF8HbDQvCOratYanqTSWsBk8m6m3o+CODnnn2Nd/+zkzf8Kv09WdpGWSXLMcn7xOP1pYfNa88ylluIocjUXJO6d1dL5bmcMTV+s/VqsLbtO56lRRRX0p6YUUUUAFFFFABRRRQAUUUUAFFFFABRRRQAUUUUAFFFFACGo5LeOXG+NX/wB4ZqWik0nuJpPcYkKRfcUKPQDFPoooSsCSWwUUUUxhRRRQAUUUUAFFFFACEZpn2eMtuMalvUqM1JRSaT3QrXGFABwMfSvD/wBr5N3wjkA5xfW5/wDHjXuR6V4l+1wM/CSb/r8g/wDQq8PPnbKsT/hZw492ws/Q5f8AYnGPDXif/sIL/wCilr6Wr5r/AGK+PDXif/sIL/6LFfSlYcOK2U4b/Cjnyr/dIf11CiiivpD1wooooAKKKKACiiigAooooAr3n+ob6GvEv2Yj+78Wj/qJOf1Ne2X3+of/AHT/ACrxL9mP/mbh/wBRFv5mvmce/wDhVwS/x/8ApJ4+J/3yj8z3UdKWkHSlr6Y9gKKKKACiiigAooooAKKKKACiiigAooooAKKKKACiiigAooooAKKKKACiiigAooooA/B//gqx/wAnqeMP+vTT/wD0jhrQ/wCCSX/J5Oj/APYIv/8A0WKzv+Cq/wDyep4w/wCvXT//AEjhrR/4JJ/8nlaN/wBgi/8A/RVAH7oUUUUAFFFFABRRRQAUUUUAFFFFABRRRQAUUUUAFFFFABRRRQAUUUUAFFFFAH5i/tg/ti/tKfDf9pbxV4V+HOkXV34WsRarZqnhprzeXtYpJG3hCW/eO/fAwB614637eP7adzKUh8O6iG/ux+CJCR+cZr9nKKAPxoj/AG2f24ZD8vhjW3+ngSQ/+0afJ+3D+23atmbwrqy4GSsngWZePX/VCv2Uryr9qH43W37O/wAC/FfjqZEmudPtdljbueJ7uRhHCh9t7KT/ALIY9qAPw1/aX/a6+NHx5htvDHxLvzDbaXdfaBoiaaln5VwFZQ8i7d+4K7ABjwGPGSa7j4EfHT9pL9l3wZdeHPBXgnUdNsNRujqUst94TnmmlkdEUMHZBldqLgcjqe5rqf8Agm58FtS/ad/aluvHnjDz9Y07w/Mdf1S8uV3LeajJIWhR+MZMm6UjpiLGMEV+3tAH4myf8FCf2xEclra7QE4APg8AD84qh/4eIftgHpHd/h4QX/41X7c0UAfiR/w8M/bAKZKXqj1/4RBP/jVUPEP7ff7XN54c1K2vpr+3spreRJ7n/hFEiMcRU7m3+SAuBk7u3Wv3GrmPiiA3wz8WgqGH9kXfBGQf3L0AfzDhuVx0HAr6b/Zy/an/AGgvg38PrjQPhl9rbw2189y7ReH1vlSdlQP+88tsEhU4J4696+YF6LX7g/8ABHmBY/2RXdQA0niK9ZiO52Qj+lAHxTL/AMFAP2w0QsZ9QVcZz/wh8WP/AERUEP8AwUK/a/crsub+X/uUIjn8oK/b+igD8Sl/4KCftinpHfN2/wCROX/4zSP/AMFA/wBsRDho75T/ANico/8AaNfttRQB+JB/4KGftgKeVvP/AAkE/wDjNKn/AAUQ/a9/553TfXwiv/xqv22pMUAfieP+CiP7Xuf+Pa5P/coj/wCNU4f8FEv2vP8An0nP/co//a6/a7ApaAPxR/4eH/tfH/lxuP8AwkD/APG6cn/BQ79r9uFsLhj/ANigf/jdftZRQB+LA/4KE/thP8o0u4yfTwc5/wDadMn/AOChX7X33jaTwCIguP8AhDyAfQEtGcZ/Cv2qrzz47/HTwp+zt8Or/wAY+Lrw29hb4jgt4hunu5yDshiXqzHB9gAWOACaAPwR/af+OfxY+PGq6HqnxStWglsYJINPb+yfsCsjMGfHygvztPU4z714cTX0P+0L+0H8S/24PiHBeTaVcXkNoHj0nw7oVvJcJZI5GQAqlnkbau5iOcAAAACu1+EH/BLb47/FdEubzQIfAmmsCRc+KJTbyNg4IFuoaUHv8yqD60AfIiyFehx64NekfBr48+Pvgz4nstQ8IeJ9V0yZZVza29xIYbjn7kkO7bIDkjaykc+uCP05+F3/AARW8D6JKtx4+8b6r4qcYYWelW66dCPVWYtI7DrypQ19WfDX9h34FfCS9ivfDXw20iG/idZYry/8y/mideQyPcM5Q55+XFJq6sJq6sfPHwh/ac/aV1qKxTXfh3cTxSYEl3caNLbyAYGWKgqOeT0HWvoC0+LPxLmtllm8H+WpG4gRNuA9xn+Rr3nYPTFJsxXhTy2vKTccTJJ9NDzvqtW91VZ4PqXj/wAf6nZSW8/hqdbWZSjtbxc7T1yOSOK5rw38SvFfhzULnRrLTPtzxEN9jkO10yM4B/xr6YkQtkdj1rwvw5AV/aR1oEfIYnCjsPkjOf0r53HZbiMNiMPUjipOU5ct30TXT7jhxWHnCUG6jd9DQi+I/jRtpl8FXqnvg8frUy+PfFDMSPBd5u9C/X869fWHAwCfzp3k+5r6CeV4iWixUkvRHdLBzas6rPHW8eeL5Af+KOu4wP4Q4/Wkg8b+LIlz/wAIbcEdAEYfhXsfk+5pTDk5zWf9k4m6axclbyX+RLwdTS1V6Hj5+JHjVc7PB0kCkfKZJC3PYYzXMeJ77xr4qubKW90WaK3tZlmVYUDYwRycV9DiLHeopI+CO2O9Y4jI6+Lg6VXFycX0sl+Q5YOc4uM6l0fKnh/xH4j0L4nateaVYw3GoNZRW08E6nIRfmHIPv8ArXpkfxB8fPErPpEKu3O0Qtj9TWZ8O4c/H7xYrDCCFwo+hj5r3NYBjqT9a8jJsuxNXCOMcU4qMpLRLo7HBg8PUqUnao1Z2+48g/4Tz4gd9LgH/bI/405fH3j9RkaNBL/2zI/rXr/2daXyB617P9j4vrjZ/cjsWDrr/l+zx+b4ifEQAeX4Ugm9Tv2/zbNeA/HSfU7nW21fUrMaNql0irJHDNksF4GT2/8ArV9vGMgjnivLNb/Z/wBF8W+N9V8QeI5X1eG52Jb6eSY4oEVApBIOWydx+pryc4yHHYzDxo08Q5u63sl63WphjsFXr0Y04zu79T5F0X4yeONFspNKtdYudQsZkaIx3O+4YKQd2CSSvGeTxXUfs0iQ/FbS3HLFJlIJzxsJr6pvvAXh7wp4M1m10XRbPTYDZT5EMQyT5Z6t1P4mvmH9nBNnxY0gfdPlzHH/AAE181icsxWWY7Awr13P3lby11SPCxeFq4Wth41J82v6n2Yh2xtwTXyppXhubxz8bPE/hz7VPZ2Qmmnu5bZyjtGHA2A+5K/hmvrBV+Vh6189/CW5it/2ifGokIEkwmC7u+JEPFfZ8R0KWJxOBhV29p+m3z2Po8whGpKlGT3Zsaz+yx4Qn0iSPSLabSdRCHybmOUk7gMgtnrz+NRfs7fETV9bXWvCevsZdV0CQILhmy0iZKkH1IK9fQj3z7iBubdnGOea+b/gjbyX3x1+IesQ/NY/vIMjpvMoI/8AQW/OliMNRy/OMG8KuX2nMpJbNJXv8h1KMcLXpOjpfRoteJY9v7U2kTAk4ETYHoYiP8a+kOnSvnDXS3/DTdgWOMCBB/37b/GvpAfdxVcPO9TG9vav8kVgmnUrW7lO8iV1Zto2hWLY78V4d+y4cnxPIeslwGC+gyxr3a8wLWX/AHW/lXhP7LaFYfEO48+eoGPTmrzN8ubYCK2vP/0knFy/2ujFeZ7pcFmt5CilnCkhfU4r5o8Da94h+H02umy8L31/cXk73MiyIVwdx6ZHTn9K+nU4FDOckdT1Fd+ZZS8fXo4inVdOVK9ra/ErM68RhnWqRqRlyuJ4Np/7U9hbah9l8R6LeaMdyqX8tvkJOPmyBx717YZYtZ09lgmWS3uYTsnjO5SGGAQa82/aJtIL74YX4nCtP5kRhLYJDBwePwzVr9n6SdfhdpSzdFLpH/uhyB/KvKy/E4rD5pUynEVPark5+bRNXdrNdjno1qscRLC1Xzabj/hp8JZPhzJcTTavJqdzPgEsoAAGelcfawrdftJa0ZF3NbwLsY88eUnT8/0r3jaWkz0PvXg099Bon7Sd2J22fa4wq7j/AHolAI/FcVyZxhMNl0MBCEbU4Vot/O+//b1icTTp4enThH4bo9vC4jwPTpXg/gyP7B+1B4vjjO1Lmx3yIOhYeUQf1Ne9J+8Ru2B1rwr4dK2uftDeJ9UiUm0itniZyOCwZFA/8dJrvz9t4vARg7S9p+Ci7/ga4ufv0VHe6O2+LkQT4YeI9x625wffIqD9m7/kmNp1/wBdJ1+tT/G8+V8JvELY4KIPzkWo/wBnH/klunt2aWQ/+PU568Tc3/Tl/wDpSJry5syj/hZ6lRRRX1p6QUUUUAFFFFABRRRQAUUUUAFFFFABRRRQAUUUUAFFFFABRRRQAUUUUAFFFFABRRRQAUUUUAFFFFABRRRQAjdK8S/a25+Ekv8A1+W//oVe2N0rxP8Aa1/5JJJ/1+wf+hV4Of8A/IpxP+Fnn5j/ALpU9Dmv2L+PDfif/sIL/wCilr6Tr5s/Yx/5FzxP/wBf6/8Aopa+k6x4c/5FGG/wo58o/wBzp+n6hRRRX0h7AUUUUAFFFFABRRRQAUUUUAVr/wD493/3T/KvEv2Y+D4u/wCwgf617Zf/APHu/wDut/KvE/2ZeJPFw/6fz/Nq+Wx//I3wX/b/AP6SePif98o/M91HSlpF6UtfUnsBRRRQAUUUUAFFFFABRRRQAUUUUAFFFFABRRRQAUUUUAFFFFABRRRQAUUUUAFFFFAH4O/8FVv+T1fGX/Xrp/8A6RQ1o/8ABJP/AJPK0b/sE3//AKKrN/4Kq/8AJ63jP/r20/8A9IoK0f8Agkp/yeXov/YJv/8A0VQB+6VFFFABRRRQAUUUUAFFFFABRRRQAUUUUAFFFFABRRRQAUUUUAFFFFABRRRQAUUUhOBQAZr4U/4Kp/Bf4r/HLwr8P9D+H2jvrWiQ39xcatDFcRRbJ9iJbSP5jL8gVrgEgnG4ZHSvRPjH8E/2gvjJ8UdUj074yQ/C/wCGUSQiwt/DdqZdTnOxfNM0p2FCX342uVC7flJya8G+P37Nnxi/ZX+FniX4meC/2jPGPiKTSoUutQ0nxPILyO7TeqOw81nTIU5wUOQuM9KAPpL9gT9nW5/Zr/Z20jQdWtPsnijUppNV1pC6uUuJMKseVLL+7iSJPlJBKsR1r6OBB6V4/wDswfHKX9oH9nXwp8RDo7afd6lazedp8D7h58EskDiMsfus8TFdx4DDJ4Jr51t/2XP2gP2lrrUPEPxe+KmtfCy0lkb+yvBngm9CrZJuOPPljbbK2O5Lk7s5X7gAPuuivy3+IPiP4r/8Ey/i14Lm1L4kax8T/hD4luXS9ttdJmubfy9vmBGdmKOqOHXYyrIUIZQBmv1HoAWue+IgB+H/AImB6HTLrP8A36auhrnviGM+APEw/wCoZdf+imoA/l9XotfuN/wR9x/wyCuP+hgvs/lFX4cqeFr9xv8Agj8u39kBPfxBfH9I6APt2iiigAooooAKKKKACiiigAooooAK80+JX7OXw9+MfiXSdb8b+H4/E9xpSNHZW2oTSPaQhjlybcMI3LYXJdW+6voK9LooAyPDPhHQ/BWmJpvh7RtP0LTk+7aabapbxD6IgA/SteiigAooooAKKKKAGOMg14boAz+0lrw9IOB/2yjNe5P3rw/Qhj9pDXfeD/2lHXzecaVcH/19X5M8nH/FT/xI9wjHFPpqdKdX0h67CiiigQVFN9xqlqKU/K30poT2Z4d8PlA/aB8X/wB4RH9RGa9zTpXh/gEY/aD8Yf8AXJf/AEGOvcU6V8vw8/8AZqv/AF8n+Z5eW/wpf4mOooor6c9UKawyKdSHpQBieLl/4pXWB62ko/8AHDXx7+zoCfjBpI/6ZTDn/cP/ANavsPxcceF9X/69Jf8A0A18f/s6DHxk0oekM/8A6Aa/PuIX/wAK2Xx/vfqfKZv/AL3h15/qj7OhGTj+dfPU/wAEPGDeNdX8T2FxbabeC9lktEaXeZkJ4JxwARkYNfRccfJqQRr6V9dmGW4fMnB17+47qztqfR4nDwxPLzdDwnVr34w+INMl0W30Gw0iedSj6q94AqD1AUFs/TNdt8LvhlD8NfDP2Ezm91K6kNxfXrdZpT1x6L6CvQdvGDzSCMA5rDC5VSw+J+tznKc0rLmd+VeQqWHjTlzyfM/M+c/EDon7S9kGOE3oxJ7ERHA/MCvomOQOMg5ryLx78CLvxT4ruNdsNc+wzS7SEMROwhcZDA+tdd8O/COveF0uV1rXv7aDhREPK2mPGc855zxXkZRQxuCxeIp1KX7uc3JSv38jzMHHEUa9SM4e7J3udXexvLaSqgy5RgBnGTjivK/gT4B1jwRHqyatbrBJPNuQiQOWXseK9dxQFAOe9fQV8DTxGIpYmbfNTvb56O56dTDwqVI1Zbx2Kl6s7WcwtmCXJjbyy3TdjjP414g+ufFXSbh4DpK3cgz+8G0o3vu7V70Rmk2Cscfl/wBecJKrKDj/ACvv3JxFB17Wm427HzxqHgD4jfFS6t4PEjwaNpaNuJhcFgOhwoBy2M4ycCvbNF8PQ+G9BttJ01PLtrODyYN55OBwSfXPJrbCAdqXArLLsooZdOpWTc6k95Sd3bovJeQ6OHhRvJat9TyT4PWPxDtdX10+NTGtsWxZhJxJuG4/MMDgYxxV/wCLvw1n8ZaZBqGlhU1+wO6BiQpmTIJjLfUZB7H65r0vYM570uK1WV4f6k8DUvKDvu7vV338nsCw0PZOjLVPueAGb4valpB0aPSYLWdsxtfzXCx4X1OM5/CvRvhj8Novh5obQtMbzUrljLd3Df8ALSQkk49BzXc7RTWXHPaufCZNSw9dYmpOVSUVaPM78qfYijhY02pSbk13PMP2gJPL+FOrxLje/lYB7jzFJ/TNSfs7xCL4U6OF6EyNn/gZrH8Z/CTxb4ym1KG58R2babPJm2jMLBoV7A88mu/+HXg//hBPB+m6Ibg3bWibWnK43kkknHbrXDhaeMrZzUxdWlyU1DlTbV273+446ca9THe1nG0Umjp6KKK+tPZCiiigAooooAKKKKACiiigAooooAKKKKACiiigAooooAKKKKACiiigAooooAKKKKACiiigAooooAKKKKAGt0rxP9rb/kkkn/X7B/6FXtjdK8U/a1GfhHL/ANfsH/oVeDn/APyKcT/hZ5+Y/wC6VPQ5n9i//kXfFH/YQT/0UtfSQr5t/Yu/5FzxR/2EF/8ARS19J1hw5/yKMN/hRzZR/uVP0/VhRRRX0p7IUUUUAFFFFABRRRQAUUUUAVdQ/wCPd/8Adb+VeKfszD954u/6/wA/zava9Q/493/3W/lXiv7M33/F3/X+f5tXy2Yf8jfBf9v/APpJ42J/32j6M9zXpS0i9KWvqT2QooooAKKKKACiiigAooooAKKKKACiiigAooooAKKKKACiiigAooooAKKKKACiiigD8HP+Cqf/ACev40/699P/APSKCtH/AIJK/wDJ5eif9gq//wDRVZv/AAVS/wCT2PGv/XDT/wD0hgrR/wCCS3/J5eh/9gq//wDRNAH7p0UUUAFFFFABRRRQAUUUUAFFFFABRRRQAUUUUAFFFFABRRRQAUUUUAFFFFABRRSE4GTQB5v+0B8dPD/7OXw2vvG3iW01O80q0kjiaLSbXz5iznC9Sqovqzso98kA/nP8df21rP8Ab+0DTPg94Okj+GNpq1+k2p6p4xu0gt57eIeYsauhZd25VbYSNzKgBxur9XCcnjNfO37eXgbwP4j/AGWfiRqXi7TtMeTTNFuLqw1G6hTzbe8VP9H8tyMhml8tMA/Nu296Bnrnwb+GWm/Bn4WeF/BGku01joVhFZJM6bWmZV+aRh2LsWYj1auwY4BwM/Svjb/gk34j1vxD+x7o41h55o7TVb62sJpySWtw4bhj1AkeVR6bcdqr/tNftNeKviN47l+Af7Pk5vPiBNL5HiHxPDn7L4agBXzcygELLhtpYZKHKL+9I2Ajxv8AaX1A/ty/t0eA/hJ4a/0/wb8P5pL7xJqMah4PMEiG5Q84YDy47cd/Mkk4IU1+m9eO/sv/ALL/AIS/ZX+HUXhrw3G11fTlZtV1u4UfadRuMcu391RkhEBwo7lizN7FQAVg+P13eBPEY9dNuR/5Cat6sLx3/wAiR4h/7B1x/wCimoA/l4XotfuV/wAEghj9j6D316+/9p1+GydFr9yf+CQX/Jn8H/Yevv8A2nQB9tUUUUAFFFFABRRRQAUUUUAFFFFABRRRQAUUUUAFFFFABRRRQBHJ3+leJaRx+0Xq/vD/AO0o69tkPX6V4lpnH7RGqH1h/wDaaV8znX8bBf8AX2P5M8jMN6f+JHt0fSn1HH0qSvpT1wooopgFQSng1PVebv8ASqW4dGeLeBhj9oLxef8Apiv/AKDHXt0f3a8S8EcftAeLT/0xH/oMde2x9K+U4d/3Wr/18n+Z5OXfw5erH0UUV9SesFIelLSGgDG8WLu8N6qvraS/+gGvj39nU5+NWlj/AKYT/wDoBr7E8TjPh/Uh62so/wDHTXxz+zmc/GzTP+uM/wD6Aa/PeIf+Rvl3+I+Vzf8A3vDev6n21GcmpKiiqWv0I+rYUUUUCEpaKKACiiigAooooAKKKKACiiigAooooATApaKKACiqep6pb6RYT3t3KsNtAhkkkboqjrXiz/tA6trd1KNC8NXF3YqxWO4GW34OM4A46GvKx2Z4bL+VVn70tktW7eRx4jF0sKv3jPdM0A5rgfh949vvFE9xbajpU+nXESCTMiFVYH0z/n86g8ffFu28GTw2FraSavrM/KWUJAIXGcn8qP7Uwqwn12cuWHmrO/a29yo4qlKj7e/uno1JuFeHSfHPxHoq/ata8Iz2mn8bnUsSnrk4xXqPhjxbYeLtFttV02YTWs/Q91PdSOxFZ4HN8HmE3Soy99a2aadu+osPiqWIlywevZnQZpa84uvik8Pxag8GpZKY2tjPJdl+QcZA213pnywUHmu7DYuji3UVF35Hyv1RvTqRqOSi9ty1VS91S106MSXU8dvGWCBpGC5YnAArhtB+Kg1r4l+IPCj2Jh/s2BJUn8zJkJALDGOMbhXmn7RPjC/S90OwawltLFLrzRcs2RKwUgAY9OTXjY/PMPhcuq5hR99QbVvNOzOHE4+lQw8sQtUnb5n0cGDDIOQaWvNPCvj7Wb3XbPSpPDd+1q6AtqeAIEGO59a9Lr1MDjqWYUI4ijs+6sdVCtGvBTiFFFFegdAUUUUAFFFFABRRRQAUUUUAFFFFABRRRQAUUUUAFFFFABRRRQA1uleK/taD/i0U/teW/wD6HXtTdK8W/a0/5I/c/wDX5b/+hivBz7/kVYn/AAs4MfrhKnozl/2Lf+Rb8T/9hBf/AEUtfSdfNn7FfPhjxP8A9hFf/RS19JVhw5/yKMN/hRy5P/uNP0/Vi0UUV9KeyFFFFABRRRQAUUUUAFFFFAFXUP8Aj3f/AHW/lXiv7Mv3/F3/AF/n+bV7Vf8A/Hu/+638q8U/ZkPPi7/r/P8ANq+WzD/kbYL/ALf/APSTxsT/AL7Q9Ge6L0paQdKWvqT2QooooAKKKKACiiigAooooAKKKKACiiigAooooAKKKKACiiigAooooAKKKKACiiigD8Gv+CqP/J7Pjb/rhp//AKQ29aP/AASWP/GZuhf9gq//APRJrN/4Ko/8ns+Nv+uGn/8ApDb1o/8ABJf/AJPO0H/sF6h/6JNAH7q0UUUAFFFFABRRRQAUUUUAFFFFABRRRQAUUUUAFFFFABRRRQAUUUUAFFFFABSMAwweRS0UAfF/xT/ZR/aGuPiHrviL4cftG6jpGm6lcNcQaHrcbTQ2YP8AyzQ/OgQdsRg465PJ4PUv+Cdnxl+O2t6VH8ffjk3ibwnp0/2kaNo0BTznwVyDsjRG2kgOUdgGYDGSa/QvApaAOIHwrsPD/wAI7jwH4JkHgm0j0uTTdMutOiBbTy0ZVZlB+84J3Ek5ZsknJzXwX8M/+CXXxg+DEWrJ4H/aJPhc6oY/th07SZEa5Ee7yy7ednK+Y+MdNx9a/SuigD88f+GBf2mTcxk/taeIWjD7ywuL4EZOT8ouMH6E49q+8vA+jar4d8HaLpeua2/iTWLO0igvNYkgWBryVVAaUxqSF3EZwCetblFABWB4/O3wJ4kPpptz/wCimrfrA+IHPgPxJ/2Dbn/0U1AH8vidFr9yP+CQX/Jn8H/Yevv/AGnX4bp0Wv3H/wCCQP8AyaBF/wBh++/9p0AfbdFFFABRRRQAUUUUAFFFFABRRRQAUUUUAFFFFABRRRQAUUUUARSd/oa8T04Y/aH1H3h/9ppXtknf6GvE7D/k4bUP+uB/9FpXzGd/xsF/19j+TPIzH/l1/iR7bF0FSVFDUtfTdT1wooopgFV5u/0qc9Kry9/oaqI1szxjwX/yX7xV7wj/ANBjr2yPpXingv8A5L54o/64/wDssde1x9K+T4c/3Sr/ANfKn/pR5GW/BP8AxMkooor6lHrBSHpS0UwMnxJzomoj/p2l/wDQTXxr+ziM/GzTvaGc/wDjhr7L8Qj/AIk1/wCn2eT/ANBNfG37OBz8bNO4/wCWE+P++DX59xF/yNcu/wAR8vmyvi8N6/qfbMRqWoIj1qev0Jn1LCiiikIKKKKACiiigAooooAKKKKACiiigAooooAKKKQnAoA8Z/ao1Ca1+GT2MDMG1G6it2weq/eI/Hbj8a7j4e6Fb6F4J0O2hRUEdnFu2DG5toyfzrkv2mNBn1j4cS3dujtJplwl2wjXc2wZDHHoAcn2FS/C/wCKmjaz4T05bm9htbm3hWKWN3AGQMZB7gjmvjPb0sLn9SWKajzU4qDe1k/e19bHjOUKeObrdUrHpEsQc7s4AHJFeGfCLTf+Ej+LXjbxDe4kaOb7Pb7xnCbiMr7YUfnXsGl+MNI1q7mtNNvI72aJQ0iR/wAIJx/SvGPDWqR/Cn4t63oupt5VrqhE9tcSfKu0s23nv1IPpgfgZ3Wozq4LEVJJ0FPV9Oa3ut+j/E1xzi50ZP4Lnt9/Y22oWU9lPEJbeZWR1YZyCK+f/wBnVpvDvxL+IfhNZZJLG0mE8Cs3yjDFTj32lQfpXsviX4haL4Q8PXWrXlwrxxplEjO5pD2ArzD9m7R7q+n8UeMb22eCTWLpltzIuC0eSxYe2SB+FXja1HEZ3glhmpTjzOTTvaNutvPYK6hPE0nR38uwy9cN+1FA2ME2YBP/AGzP+Fe6nCHPU4r52+Iuqx+Df2nPDF5dOIbC9siGeQ4AOGUHP1Iz6V7bdeOvDthYNd3Gt2MduRxIZgc/THX8KwyPF0cHXxtLFTjFqo5au2jS7+hGBqKnUrxqOzueT+Dv3n7UXjMBcEacPmx7QU/9paAf8Ido7kbmXVEC568qwNZXwj8Q2/iP9o3xbc25zE9gXiYdWXMQ5+uCa6T9pW13+DtHDjag1aL5z0BKvgE+54rxKLVfhjGTgrpynJdbrnvf7jjcVPLaum8m/wAT2bT41is7bYMDy1wB9KujpXPeH/EdjqNla7LmMSMoQRMwDZx0x68dK6Felfo2Dr0cRQhKhJNWWx79KUZ04uD0sLRRRXYaBRRRQAUUUUAFFFFABRRRQAUUUUAFFFFABRRRQAUUUUAFFFFADW6V4t+1px8HLw+l3b/+jBXtLdK8Y/ayXd8HrvPQXdvn/vsV4Wff8irE/wCF/kcOP/3Sp6M5b9ixSPDHib/sIj/0UtfSI6V85fsYKV8KeIjxzqIHH/XJK+jR0rn4c/5FGG/wo5Mn/wBxpen6sWiiivpT2QooooAKKKKACiiigAooooAqX3/Hu/8AuN/KvFf2Y+vi7/r/AD/Nq9qvv+Pd/wDcb+VeKfsxdfF3/YQP8zXy2Yf8jbBf9v8A5HjYn/faHoz3UdKWkHSlr6k9kKKKKACiiigAooooAKKKKACiiigAooooAKKKKACiiigAooooAKKKKACiiigAooooA/Bj/gqj/wAnteN/+uOn/wDpBb1o/wDBJj/k87QP+wXqH/ok1m/8FUP+T2vHH/XHT/8A0gt60v8Agkx/yed4f/7Bmof+iDQB+61FFFABRRRQAUUUUAFFFFABRRRQAUUUUAFFFFABRRRQAUUUUAFFFFABRRRQAUUUUAFFFFABRRRQAUUUUAFc/wDEE48BeJT/ANQy5/8ARTV0Fc98Q/8AkQPE3/YMuv8A0U1AH8v6dF+lfuN/wSA/5NAj/wCw/ffyjr8OU6L9K/cb/gkD/wAmgRf9h++/lHQB9t0UUUAFFFFABRRRQAUUUUAFFFFABRRRQAUUUUAFFFFABRRRQBFJ/F9DXien8/tDX/8A1xP/AKLSvbJO/wBK8S07/k4W/wD+uJ/9FpXzOdfxsF/19j+TPGzLel/iR7bD0qWooelS19K9z2gooopiEPSoJe/0qxUEvQ/SqiPozxbwV/yXvxR/1x/9ljr2yLoK8S8EnPx78Uf9cj/KOvbYugr5Phz/AHWr/wBfJ/mePln8Of8AiZJRRRX1KPXCiiimBk+JHEehaix5C20p/wDHDXxv+zgdvxn0ts/8sJ85/wBw19keKInm8P6msalnNrKFVRkk7DxX57aVq3iXwfri6tpdheW97DujWU25IGeo5GP0r844pqSoY3BYhRbUW27I+TzmoqOIw9WS0ifotGXYk4OKkDEdjXwxD+0T8SghaR5VOf8An2A/Sph+0f8AEdcYd/xtQf6V2y4xwa2pTfyOyWe4a+kW/kfcW4+lLlvSvhz/AIaU+JJHDN/4Bj/Ck/4aU+JfZm/8Al/wrL/XLCf8+Z/+Amf9vYf+SX3H3JlvSl3H0r4bH7SvxLPdv/AJf8KP+GlfiXnq3/gEv+FH+uWE/wCfM/uD+38N/LL7j7kyfSjJ9K+Gz+0r8TPVv/AEf4Uf8NLfE3/a/wDAEf4U/wDXLCf8+Z/cH9v4b+WX3H3Jk+lGT6V8N/8ADS/xNA6H/wAAR/hSf8NL/E7HQ/8AgCP8Kf8ArjhP+fM/uD+3sL/LL7j7l3H0oyfSvhr/AIaX+JxPRv8AwBH+FH/DS/xO9G/8AR/hR/rjhf8AnzP7h/29hv5ZfcfcuT6UZPpXw1/w0r8TT2b/AMAR/hR/w0l8TT/e/wDAEf4Uv9ccJ/z5n9wf29hv5Zfcfcm4+lG5vSvhz/hpD4mnu/8A4Aj/AAo/4aO+Jp7yf+AQ/wAKP9ccL/z5n9wv7ew/8kvuPuLefQ0Fz6V8Pf8ADRnxNxnL/wDgEP8ACl/4aN+JY67z/wBuQ/wo/wBcsL/z5n9w/wC3sP8AyS+4+2pQXUqyB0IIKkZBHoRXnd/8CPB1/dNOmmPYO5JK2srRrkn+6DgfhXzQf2k/iSuTtYfWy/8ArU1f2l/icGx19AbEf4Vy4jifLsZHkxGGk15xIqZvgq6tVpN/I+vPC3gjSPBaTLpNisEk2BLLjLyAZxknnjJqx4o8GaN41sFtNa02O9jQ5RyMOh9VYcj8DXx6v7S/xEAO6LJ7kWdK37TvxGx8iY+tlmphxRl0KKw0cLJQ7cuhcc3wfJ7NU3btY+l7D4C+DbGUM2nSXyKciK9meVQe3DE138NusEMcMECRQxqFREXAUDoAOwr4pH7S/wAQ3GXhDn0Fpio5P2nfiHE4iYLG7E7Y2tSGPXt3qaHEuV4GTlQwso83W1hQzjC0dIU2vkfXvjfwB4f+IenxWXiLSItRhibfGzZWSM+qsCCPwPNcvZfs7/DvTypTwpazsp3A3O6U5zn+ImvmWD9p/wCJN1ny/lI6bbP/ABzTk/ab+JLH5yZB/wBeQ/wrStxHluIfNWwkm/8ADf8A4cbzXCOXPOk7+h9haL4K0Tw/q0upafpEFleyxCF5IF2AoMYG0cduv0q/rehWHiPTJ9O1awhv9PnGJLedAytzkfiDyDXxl/w0x8SVHyISB2+w/wD1qd/w058SXHCFT6/YquHFuBpQ9nTwslHso6fcUs7wkU4qm7eh9SaF8GfCnh7WrfVLHTGju4P9WzTSME+gLEfpXeByT0xXxAv7TfxNY5K5X/rxA/pUw/aT+IzDo4PtZj/Cs8PxRl+Di4UMNKKeuiMYZ1gqStTpyS/wn25k+lGT6V8Rn9pH4jY5Lj/tzH+FM/4aR+Ih/jk/8BB/hXX/AK44b/nzP7inn2H6Ql9x9v5PpRk+lfEI/aP+In96T/wDH+FKP2j/AIiesn/gGP8ACj/XDDf8+Z/cL+38P/JL7j7dyfSjJ9K+Ix+0f8RvSQ/9uQ/wpf8AhpD4j/3X/wDAIf4U/wDXDDf8+Z/cP+38P/JL7j7byfSjJ9K+JD+0j8SP7r/+AQ/wpP8AhpH4k/3X/wDAIf4U/wDW/Df8+Z/cP+3sN/JL7j7cyfSjJ9K+I/8AhpL4lf3H/wDAIf4Un/DSPxK/uv8A+AQ/wp/63Yb/AJ8z+4P7ew38kvuPt3J9KMn0r4i/4aQ+JR/hf/wCH+FIf2j/AIlekn/gEP8ACj/W7Df8+Z/cH9vYb+SX3H29k+lGT6V8QH9o74l/9Nf/AACH/wATSf8ADRvxL9Zf/AJf/iaX+t+G/wCfM/uD+3sP/JL7j7gyfSjJ9K+H/wDho34mesv/AIBL/wDE0h/aN+Jn96X/AMAl/wDiaX+t+G/58z+4P7ew/wDJL7j7hyfSjJ9K+HP+GjviZ/el/wDAJf8A4mj/AIaR+JvrJ/4BD/Cj/XDDf8+Z/cH9vYb+WX3H3Hk+lJlvSvh4ftIfE4/89P8AwBH+FKP2kPicP4ZT9LJf/iaS4xwv/Pmf3D/t7Dfyy+4+3n3Y4BzXj/7VEfm/B67D9rq3J/7+CvBB+0n8TQrkw3B2AH/jwXv/AMBrnPF/xu8a+OtJk0zWrO8lt94cpDZY5HTgLn+fSvOzTimjisFVw9KhNuSaWnc5cXndCrh504Rldrse8fsYL/xROvvgjdqh59f3SV9FDpXgf7H9le2/w9v5L2wudOM1+zRxXULROy7FG7DAHB559q98HSvreHoyhlOHjJWaij18p/3GlpbQWiiivoj1gooooAKKKKACiiigAooooAqX3/Hu/wDut/KvE/2Yjk+L/wDsIH+te2X3+of/AHW/lXiX7MP3/GH/AGED/Nq+WzD/AJG2C/7f/I8bE/77Q9Ge7jpS0g6UtfUnshRRRQAUUUUAFFFFABRRRQAUUUUAFFFFABRRRQAUUmQDjNLQAUUUUAFFFFABRRRQAUUUUAfgx/wVSGP22fG3vBp5/wDJG3rS/wCCSwz+2doXtpeof+iTWd/wVTbP7bPjYekGnj/yRt60/wDgkkuf2y9GPppOoH/yFQB+6dFFFABRRRQAUUUUAFFFFABRRRQAUUUUAFFFFABRRRQAUUUUAFFFFABRRRQAUUUUAFFFFABRRRQAUUUUAFc78Rjj4e+J/wDsF3X/AKKauirnPiR/yTzxR/2Crr/0S1AH8wSfdX6V+43/AASB/wCTQIv+w9ff+06/DlPur9K/cb/gkF/yZ/D/ANh6+/8AadAH21RRRQAUUUUAFFFFABRRRQAUUUUAFFFFABRRRQAUUUUAFFFFAEb9/pXiGm8/tCaj/wBcj/6KSvb5O/0rw/Sz/wAZC6l/1zP/AKKSvmc6/jYL/r7H8meLmXxUv8SPb4elS1FD0qWvpXue2wooopiCoJfut9KnqKQfKfpTQdGeI+Bz/wAX88U/9cj/ACjr2+PpXh/gTn4/eKv+uR/9Bjr3CPpXy3Dv+61f+vk/zPIyz+HP/EySiiivp0euFFFFMBCM1E9sjkkqpPrgVNRSaT3E0nuVTp8JPMSH6qKPsMX/ADyT/vkVaoqeSPZBZdiodPh/54x/98ik/s+H/nkn/fAq5RRyR7L7gsuxS/s+H/nkn/fApf7Oh/54p/3wKuUU+WPZfcOy7FP+zof+eSf98CgafD/zyT/vkVcoo5Y9l9wWXYqfYIf+eSf98ij7BF/zyT/vkVboo5I9kKy7FT+z4v8Anmn/AHyKP7Pi/wCeaf8AfIq3RRyR7L7gsuxU+wRf880/75FH9nxf880/75FW6KOSPZfcFl2Kf9nxf88k/wC+RS/2fGP+Waf98irdFHJHsvuCy7FT7BH/AM80/wC+RR9gj/55p/3yKt0UcseyCy7FM2EZ6xof+AimnTIW6wxn/gAq9RRyx7ILLsUf7Ni/55J/3yKT+zounlJ/3yKv0mKfLHsh6djP+wQqf9Sn/fIrwL4tWQT48+C3VAqiOIELxkmVgc/hX0Wwwa8F+KmP+F1+EnbniFf/ACIa+cz9R+prT7cP/SkeZmTiqK06o9tFhGoA2KQOnyinDT4s58pM+u0VbVadivpLR2semkrbFUWMY6RqP+AikNjGesaf98irlFTyR7L7gsuxR/s6I9YkP/ARR/ZsQ6RIP+Air1FLkh/KvuFyrsUv7Pj/AOeSf98ij+z4v+eSf98irtFPkj2X3BZdin9gj/55J/3yKPsEf/PJf++RVyijkj2Qcq7FP7DH/wA81/IUv2JP+ea/kKt0UuSPZByrsVPsSf8APNfyFH2JP+ea/kKt0UckOyFyx7FT7En/ADzX8hR9iT+4v5CrdFHJDsg5Y9ip9iT+4v5Cj7En9xfyFW6KOSHZByx7FT7En/PNfyFH2JP+ea/kKt0UckOyDlj2Kn2JP+ea/kKPsSf3F/IVboo9nDsg5Y9ip9iT+4v5Cj7En/PNfyFW6KPZw7IOWPYqfYk/55r+Qo+xp/cX8hVuij2cOyDlj2Kv2VP7q/kKVbZQc7Fz64FWaKPZw7Idl2I1iC9AF+lSUUVe2gwooooAKKKKACiiigAooooAKKKKAKl9/qm/3W/lXiP7L7Zk8ZDv/aJ/m1e23x/dn6GvD/2Xubjxr0/5CJH6tXzGY/8AI1wL/wAf/pJ5OKX+2UPRnva9KWkXpQa+nPWAkCmrKGPBB+hrnviFO1v4F16VDh0spWU+4U1xvg7w2b/wjo87X2oWzTWscpEF3MBlhn7u8Dv6V5dbGVIYpYWlT5m4uW6VtbdTlnWcavsoxu7XPVN3FIHz0rx/W9TbStS01tN1j7bLBqlvaXKCXe2GlVHVxnggMTz6V1XxBk1weEtQl0S/FjewxtKCyBtygZKj0PvXJQzWdSjXnUotSpbxum3pfToKGIUoTk18J3GaMiuM+F+tXeqfDnw/f30puby4s45JJM8sSuR+PNL408ZS6R4UvbrT4n/tNmS1gimXbtlkcRqxz1ALZ9wDXesdR+qxxc3aLSfnqtvU2jUUqSq9GdlkfWkLYOK8W1u48T/DXRZPEN34kl1m3tXie6spYkVXVnUNsYDIIBJHY4q18S/tuk+PPCWrWF7NDb3l/Fa3FqGKhs5wxwecg4IPoK82ebunSc6lFppxum1e0tn/AMA5niXGLk47W/E9hopqnI/CnV9EdwUUUUAFeD/tdftE6p+z94S8Lr4b0a01/wAYeLNftfD2jWN/O0UHnTE/vJCvJQYAIBHLjmveK+Yf24v2W/En7Q+keDdb8EeI4/D/AI48Fag+p6QbtQbaWRjGfm+U4dTEjKcEfeBBByEwOP1CL9ufSpvtFtc/CHXIzz9nVLtSvfALeXntzmvpf4S6x411X4d6NcfELSbDRfGTxuNQs9LlEluriRgpQ734ZArY3HBYjJxXyFZ/8FCvHvwP1Kx0b9ov4O6n4StncQv4t0MGfTnYjIIX5lJPUqsrMOcKelfZvgLx54f+JvhjTvEvhbVbbW9C1BDJb3tq2UcAlWGCAQQwIIIBBBBAIoQz5s/Yy/ab8c/Hb41/Hnw34lTTl0XwZrP2HTRa25SVVM9zGFZtxDfLbgknnJOMDivrO9keGznkjAMiRsyg9CQOK/P7/gmkyj9on9q4EgSP4n3le/8Ax+6h/jX3/qUvkaddSf3Inb8gaYj5M/4Ju/tN+Of2nvhn4q1rxz/Z73um62bG3l0+28hSnko5UjJBwWOD1weelcX8cP8AgoT4y+Dn7XmsfCfTfh2PH8EtlZro+n6ZM0F7JdyxrI299rgx4LdE+ULknGccp/wRPvGm+DXxBtz0TX45vxe3UH/0EVU1LTobz/gtdpzyRhzBonnru5w39lyKCPzoA7O98S/t/eJLJ9ZsvC3gHwuqMWi0B5UlnlXjAZ2lZcn/AH0PPQVQ0T/gqJe/FXwXofh/4a/D6+1v44aoXtZfDs6lLHT5E4e4klLDMWeQpKkYO9lABb9Ac1+aH/BK/wAI6f8A8NHftLay0CG80zVhYWrleYopry8aRR6ZNvF+VAzR+KHx0/bS/ZW0aDxx8QNN8FeNPBNs8R1QaSuw2yyOFVGYbHRtzKgcJIoLDO7ofuv4M/FPS/jZ8LPDHjnR1Mdhrlkl0sLsGaBzxJExHBZHDocd1Nefft0aRFrf7H/xbt5kEiJ4fubkA/3oh5qn8GQH8K8//wCCWM7TfsReA03FhFPqaAHt/wATC4b/ANmoA/Mj/gqYxb9t3x6D/DFp4H/gvtzW9/wSOXd+2RpZ/u6Nfn/xxR/Wuf8A+CpP/J7/AMQf9zTv/TdbV0v/AASHTd+2JZnGduhX5/RB/WgR+5NFFFABRRRQAUUUUAFFFFABRRRQAUUUUAFFFFABRRRQAUUUUAFFFFABRRRQAUUUUAFFFFABRRRQAUUUUAFc38SePh14q/7BV1/6Jaukrm/iX/yTjxV/2Cbv/wBEtQB/MHH91PpX7j/8Eg/+TP4P+w9ff+06/DiPon0r9yP+CQn/ACZ9b/8AYdvv/ZKSGz7YooopiCiiigAooooAKKKKACiiigAooooAKKKKACiiigAooooAjk7/AErw7SP+Th9T4/5Zt/6KSvcZD1+leIaMuf2g9VPpG3/ouOvmc6/jYL/r6vyZ42ZLWl/iR7dD0qWo4hxUlfTdT2mFFFFAgqOT7jfSpKilPyN9KaE9meIeA/8Akv3iz/rkf/QYq9wi6V4h4AGfj34t/wCuZ/lFXuEfSvleHv8Adav/AF8n+Z5eWq1OXqx9FFFfUI9UKKKKYBRRRQAUUUUAFFFFABRSZozQAtFFFABRSZpaACiiigAooooAKKKKACiiigAooooAKKKKAGP1FeDfFVc/GLwofQwf+jTXvL9RXhPxT/5K/wCF/ZoP/Rhr5viB/wCyQ/xw/wDSjyM00oL1R7uvSnU1OlOr6TqestgooooGFFFFABRRRQAUUUUAFFFFABRRRQAUUUUAFFFFABRRRQAUUUUAFFFFABRRRQAUUUUAFFFFABRRRQAUUUUAFFFFABRRRQAUUUUAU74ZjP0NeHfsvkC98bAf8/5b82f/AAr3O7GUP0NeFfswuv8AanjcgYzejj/gT4r5nMVfNMC/8f8A6SeTiv8AfKD9T31elKelMXP0p3NfTnrnNfENBJ4I1uM5+a1kTj3U1n+EJ7fT/A/h9bieOFEsYUMkjADIQA8mun1zTF1nRr2xc7BcQvFv/ukggH8K5Pwd4IntfBUOgeJvsuuIi+W26PKOo6ZB7+9eW6VWGP8ArEVdOPL6a3OZc8cRzpaWOY+IY0pte8PXOmC3uNQur2PzHtmB83kYLY69M5r0DxPi38OavI3OyzlJB6H5TTdB+H3hvwu4fSNAsNPkHSSCBVYfjjNb0kCzxvHLEskbgqyOAQwPUEd648HltXDzxVSc1es76LRe7bvr3LjTtKcr/EcT8Iowfhb4ZQg4FjCvTGcIBmq/xUVr7wNNe2wNz/Z1zDdlYxuYrFIGcYHoAT+Fd7b20drCkMMKRQoNqIigKo9AB2psNpHaBhBCkIdizBAACT3rpeCm8FDBuSslZu3Xo18xqnaiqTPGPiH4t0Lx74Ck0Dw9qUOs6nq7wx29ragyOi+Yu55AozGiqCSzYHGOpAroPixEpvPBydX/ALatypzjhSST9MD9a76z0PTtLmlnstNtLSeYASywQIjOB0DEDJ/GuU8XeCNS8YeMfDV2bu3tdD0i4+2SQhC09xKFYKN2cKmSCeCTiuDF4DEVacpSknUk47Kysn6sxr05Spvl1bt+Z3aZwPpT6bzS5PpX0p1WsLRSfhR+FAC15D8Zv2rvhd8ANf0zRvH/AIl/4Ry71O3a5tXmsbmSGRVYKR5kcbKDk9M8d8ZGfXfwrE8VeCvD/jrT/sHiTQNL8Q2PX7NqtnHcx/8AfLgjtQM+RP2j/wBvH9mzxD8DvGGg33jCz8YLq+mT2sOj2FpLJNNIyHyyCyBY2V9rh2I2lQRyBSf8EmfAPizwH+zRcnxRp91pcGr6vJqWmW17lZfszQwoH8s/6tWaNio7j5ujZP0jo/7N3wl0DVLfU9M+F3g3TtStpPNgvLXQLSOWJ85DI6xgqfcV6Nj2oA/Kn4QfHXw5+xb+3v8AHvS/iVcS6DoHie9kvbfUPs8kyoWla4gJSNWYqyXLjcAcFQPp7z8bP+CofwXg+H+vaf4I12/8ZeJ77TrqDT7fS9LnCpOYmEbSNIqYQMVztyfavr3xj8PPCvxEs47TxV4Z0fxNaRklINYsIrtEJ6kLIpA6D8qg8FfC3wZ8No508I+EdC8LJcczLoumw2Yk/wB4RqufxoA+Cv8Agikn2T4S/EK2nSSC+/tmCYxSxsh8lrcBGGRyCVfp6VSm1OMf8FsIojICTpAh4PQ/2Qz4P5g/lX6UBFXooHGOBWQPBfh5fEzeJBoWmDxC8XkNq4s4/tZjxjYZdu/bjtnFAjWPzEc1+eP/AAS31G2vPjh+1Z5DLtk8TxTRgHqhutRwR7cj86/RA4rL0Xwponhue+m0jR7DS5r6Xz7uSytUha4k/vyFQN7cnk5NAHmf7Yl9baf+yn8XZbuVYov+EW1FAz9C7W7qi/Usyge5ryT/AIJSP5n7E3g8/wDT5qX/AKWSmvrPUtNs9YsLix1C1gvbK4QxzW1zGJI5UPBVlIIIPoareHfDWkeENIg0rQtLstF0uDPlWWn26QQx5JJ2ogCjJJPA70AfhJ/wVJwf23PiAR/c07P/AILraum/4JBkD9sK3yeug32P/Idc5/wVMZX/AG2vHmxg2ItPzj1+wQDn8q3/APgkSJP+GxbDYPlGh3+847YT+uKAP3LooooA434x/FDSfgt8LvE3jfW2xp2iWT3Tx5wZn6RxKezO5RB7sK+NP+Cdv7c/xP8A2p/iF4i0HxXoGkHR9NsDfNq2nQyQNbu0irFCwLsr7gJCPun5CcnpXlH/AAWY/aEd7nw58H9Iu/3cajWtcSJ+rHItYnwew3yFT6xHtX2N+wR+zcn7NX7PejaTeQRp4o1cDVdblVfm8+RQVhJ9Ik2p6ZDEfeoA+jqKKKACuX8dfE/wl8MLaxufF3iLTvDVrfXAtLe51S4W3iklIJCb2IUHAJ5PauormPiT8NvDnxc8F6n4U8WaXDq+h6jEYp7aYfkynqrqcFWHIIBFAG9YalaarZQ3lldQ3lnMoeO4gkDxuvqGBwR9Ks1+C/7TnwO+KH/BP34oxDwz4u16z8NagWm0bXtNvJbXzVH3oZljYDzFzhgeGUhsckL1nws/4K8/GzwO0UHiUaR4+sVIBOoWotboKOyywbVz7vG54z60Aft5RXwN8K/+Cx3wh8WQRx+M9L1jwFeE4ZmjOo2q+/mQr5h/79DvX2B8Nvjl8P8A4xael54K8YaP4ljZQzR2F2jzR57SRZ3xn2dQaAO5opMiloAKKKKACiiigAooooAKKKKACiiigAooooAKKKKACiiigArmviZ/yTfxX/2Cbv8A9EvXS1zXxM/5Jv4r/wCwTd/+iXoA/mEj+6n0r9yf+CQv/Jntr/2Hb7+aV+G0f3Vr9yv+CQ3/ACZ5af8AYcvv5pSQz7WooopiCiiigAooooAKKKKACiiigAooooAKKKKACiikJwKAForzvWPEfi6TxBfWmmwafDawOFRrlXZnGM5yCP5Uxbz4jMTk6IE7bbeXP4nf/SvDlm9FTlTUZNxdnZHH9ahdqz+49CcdfpXi2jL/AMZAat/1xLZ/4BHXWaVrfjeHXIbbWbDS59NlVs3Vk7o0ZHqrZzmuS0Bi/wAftUPYW7Y9/ljrzMyxEMRUwbSa/eLfQ4sfLmdF+aPa4ulSUyLpT6+v6ntMKKRjgV5re+K/F174j1Wy02CwitrSQRobhXLPxnOQf6VwYzG08FGM6ibu7Kyuc9WtGjbm6npVQy/db6VwUN58QWBL/wBkbe22KT9TuqfRdc8Uprz2WuW9gbR7ZpY7i0DK24EDBDE9j+lZYfMYYifIoSV+6shQrxqXST+aOM8AKB8dvFZHUxk/pFXtsf3a8Q+Hmf8AhevisnoIuPfIjNe4J0ryuHXfC1H/ANPJ/mcmX/wperHUUUV9SemFFFFABRRUc08duheR1jRQSWY4AHrQBJRXD6p8ZPCGj7jca1b4H/PNt/8ALNafhf4ieH/GXmLo+pRXcsYBaIZDgfQ8151LMsFWqeyp1ouXZNHPHEUZS5YzV/U6WkJAqJ5lGMnrXOa38RvDOgXhtNQ12ytboDJgeZQw+o7V2VatPDw9pWkox7vQ2nONNXm7ITxx8Q9H+H2nxXuszvBBNJ5UZRCxZsZxxUvgnx3pXjzSG1HSpXlt1kMTblwVYAHH5EV4v+09rOmeIfAWky6fqFvfKupqd0EgcbfLcHp+Fa37KcgHwxmkIwzXzhvchVFfLwzWtPPf7Pi06Thzab39TyFi6ksyWFjZwcb3Pdd4xxWbr2u2vh7R7vU7xilpaxmWVgM4Udaqa14p0jwvbLPq+oQWEb/d86QKT9BXF+LPHfhrxn4B8TWumavbXqvp86MI25GUODj619FiMTSoqUedKSTer8j1KtWFNSXMuZI0fA/xs8OeP9VfT9Jed5liaXMqbQQpGcc5/iHau9Ewr4r/AGQLgnx98+SzafMB7HchP8jX0h8V/ifD8L/Dgv8AyDe6hcsY7S27M395vYV8zkedPE5VLMMwkoqLab2VlseXl2NdbCSxOJ0sz0Ke9gtULzzRwqO8jBR+tOhuoriNZInWSNhlWU5BFfnL4x8Y69408QRah4gu5JXugz20ZZhCiDjCLnAxX2n8FpzH8MPD6mQysLRDk57jOOfrU5NxLTznHTwlKm4qMbpvrqlsYZfmv1/FTw8YWUep6UXA+lVbzVrLTl3XV3Dbj/prIF/ma8p+Pvxhn+Fvhi2GmLFLreoMyW4l5WNQMtIR3xx+deDeDfgf46+L9qniLWtVNkl0xeE3sjM7rnG7Z0AOOK6MwzuVHFPA4Kk6tVLW20e1zTGZlKjW+rYam6k+vZerPszTtdsNXDmxvLe7Cfe8mQNt+uKvV478HfgnP8MdXvL2bV21FpoBEIwu1Qc8n9BivYU+7XtZfVxVfDqpjKfJPte56mHnVqUlKvDll23HUUUV6J0BRRRQAUUUUANbrXhPxS/5K74YP+1B/wCjDXuzda8K+KA3fF3wzj1g/wDRhr5riD/dYf44fmePmv8AAXqvzPdU6U6mr0p1fSnrrYKKKKBhRRRQAUUUUAFFFFABRRRQAUUUUAFFFFABRRRQAUUUUAFFFFABRRRQAUUUUAFFFFABRRRQAUUUUAFFFFABRRRQAUUUUAFFFFAFW8GYW/3T/KvkD4Vt8QLjVfFg8FnTyiX+yb7a5AGC2McHtnNfYF6P3L/7p/lXhf7Lluqv4xcdJL/lT2ILf418lm9CGJzDB05Sa+PbR7HiY2mquKopu25ZisPjUYwZbnSVYj+CZf5eV/WpBYfGXB/f6dn/AK7J/wDGq9qEAp3lD2/KuqWRUZO7rVP/AANnZLBpu/tJfeeJLZ/GnoW0v6mZT/7J/SmG0+NSP97TZlPrMgx/5Dr3Hyx/kUuwCpWQ0F/y+qf+BsX1Jf8APyX3niBtfjQy8R6VGfa6U/8AtKoxafG3+IaT9fPUn/0AV7nso2U/7Co2t7ap/wCBsl4CL/5eS+88K+y/G7d00rH/AF3T/wCIpRZ/G8HONIH/AG3Uj/0D+te6bKNlNZFRTv7ap/4Gxf2fD/n5L7zwv7L8cBz5WhN7GXB/lUEtl8dh8ytowH/PNZl/mY/6173to21X9h0f+ftT/wADY1gYrapL7zwP7B8cpOf+JcnsbuL/AOMml/s346HpPpS/71wh/wDaNe97aXFL+w6XStU/8DZLy+Ld/aS+88BOk/Hs/dvdDH+84P8A7TpraP8AtA/w6l4c/wCB5/olfQGKMVX9i01/y+qf+BsP7Pj/AM/Jf+BM+fzp/wC0NF0uPC0noQz/ANQKh1FPjm3h7WbbVV08CWylWG80VT5sLFT82zcXYjqAgJ9Oa+hqWm8nha0a1Rf9vMv6lFKynL7z8TvHsnxe8jQx4U1X4p3eoPHcW1/ZW2oaysdvcxyucqjR7grKyYGcj8MHm2s/2u5Dm3tPjft7lLnWeRz/ANMxj8M1+6tJtHoK9ehSdGCg5N+bO2nDkiot3Pwl/s39szB8uL45AnPP2nWBx26/59qemk/tpfL5cXxsGMZ3XWrc/ma/dbYv90flRsX0H5V0Gh+FDaN+2q7nMXxr65JF1qoz+tI+hftsMg3L8ayo6D7Zqv8AjX7s7R6CjaPQUAfhF/YH7a2eE+NQI/6etV/xpp8O/tr7ceT8amX0N7qvPP1r939o9B+VG0egoA/COLRP22YnysXxpVh0xd6rj+dPl8PftqySHzIvjQ82M7heapjj3zj8K/dnA9BRQB/Md8VNP8ZaT471S28fxaxD4tBje+XXnka8JaNWQyGQliShUjJ6YrR+B1h8QNV+Imn2/wAMP7Z/4TB0kNsdAnkguggQmTa6MCBtBzzXvH/BVIs37bfjcMcgQacF9h9hgP8AMn861/8Agkfj/hsTTAVDf8Sa/wAAjv5YoAty+Gf23JYizRfGFXTkk6pflj/5E5/DNc/43n/bF8BeFL3xN4m1n4q+H9A09U8/UdR1u7gjiDuqIDmUHlmVemea/eNkUnOOfpX5Tf8ABZv4+NPf+GfhFplwUS3H9t6ysbfeYgraxtj0HmOVOfvRntQB8DeAfh38T/2h/G2p3PhvR9d8deII/wDTb68R5J5gScB5J3OQxI4LMCdpwcivou88O/tx2vEjfGJiCQfK1a+l/Ly5CMfSv0k/4Jxfs4Tfs8fs46bDrNkbXxX4ik/tjVY5UxLCXUCGBu4KRhcqejs9fU2B6CgD8LU0j9uGbBH/AAufHbdf6mv9RT18MftxTHIHxiJJ/j1XUF/m9fufgelLQB+GX/CHftxKwynxfBPPGsX56f8AbSpG8M/twWhBP/C4hjJ/dajfMP0kNfuTXG/F34t+F/gb4A1Txl4v1FdM0TT0y7gbpJXPCRRr1d2PAUfjgAkAH4XfG3wl+1BYfDm9u/irc+NU8GR3ERePxTqbPAZif3eyKSUszZ/uqSOpwK+Y2OG4NfV3x7+Ivxh/4KF/E0axofgXWdR0TTgYNJ0fR7OS4hsInYZaWVV2+Y5VdzsVHAAACivRvhf/AMEdPjD4vaKfxdqOi+ArQtiSOeYahdgeojgPln8ZRQM+Ct2DV7SPt1xqFtFpouJL9nCwJa7jKzHoFC85+lftP8L/APgj38FPB8cUviu41vx9fBAJFu7s2VqW/vLHAVcfRpWr67+Hfwe8D/CPT2svBXhLRvC8Dqqyf2ZZRwvNjoZHUbnPuxJoEflp+yV4R/brtNLH/CO3GpaH4dVhsi+ILgo3IyscVwGnVSDnKKqnBwc1+p3wvPjj/hEbUfEJdCHiYFvPPhxpjaEZ+Xb5oDZx17Z6V1mOc0tABRRRQAUUUUAFFFFABRRRQAUUUUAFFFFABRRRQAUUUUAFc18TP+Sb+K/+wTd/+iXrpa5r4mf8k38V/wDYJu//AES9AH8wkf3Vr9yv+CQ//Jndn/2HL/8A9CSvw2TotfuV/wAEiP8Akzux/wCw3f8A/oS0kM+1aKKKYgooooAKKKKACiiigAooooAKKKKACiiigAooooA5Hxvqb6FLok8a5+0alFbSHH8DAg5/IVrarrtro01mk+7/AEuQxIQOFO0tz6Z2moPGfhtfFWitZfaWs5RIksc6jJRlORxXGT/Cm71jyzrfirUb+SNsweQkcKRHnBAwSxx3YmvCxLzCnUqPCU1LmSs27JNb3/Q5Z+1g3yR3Oru9XddbsLQQeZbXEUrmYH/Vsu3Ax75P5V5t4dJPx91PPIFsSvtlY67Twx4AuPDc7z3niLUddmI2xfa/LVIV7hVRRye5JPQVyGiIsXx+1MLyTanPt8kdeVmDxM54KeJSjL2i0XT5nDjk3KlKXdHtEfSn0yP7tPr7LqeywrjvEuo/2P4m8PxiMFNSuJIJTj+7Ezgn/vnFdjXO+MPDK+J7GGJbt7C5glE0NzGoYo3TofYmuXFRqzoyVFLm6X7mNVScfcV2R3fiq003xDaaVKkhkuYnlWRR8qBezHtntVO91RZ/GMVmq7ozp7SB+2d4GK5+5+FM+p3C3Oo+JLyW/XiOe3iSNUHb5TnPXvW34e8FHw9LLPcapd6xeuvli4ugi7E/uqqKAOecnJrgw9bNKmJarUoxpNb3u0ZwdecmqkbI4b4fg/8AC8/FQP8AzwUj8Uj/AMK9uTpXi3gkBPjx4oQHLCAZ/wC+Iq9pT7tedw6rYSov78/zOTLtKUl5sdRRRX1R6gUUUUAFYvinS08QaDqGlSyPBHe27wGaM/Mm4YyPcVsmvE/2oPHOqeDvCNlFpN09lcX9wY2niO11VRkhT2z61w47F0sDhamJrK8Yq7SMK9anh6UqlX4Uccn7LOk2YNvqGu3dwB1laRYhj3BHp714n42hPwX+KscnhvVjqEWntDcRzRSghlLfPExU4PAIP1rr/hZ+z3YfGfRptW8T67rUsz3LxJDBeHaArEEuWDE/nXD/ABX8GaD4F8Y32g+HblrrT7GJA0rvvIm/jUsOuDjPp0r8azalhaeWUcxwuGVK8k0+a73PjMbQwywkMVhocr5k0767n2N8S/iE3hL4fXuuQEG5MQW2VuMyPgD8sk/hXyd8JvhzcfGTxhqMN5qD28cUf2m8uD8zsWbAA/I17r8fLKeX4Q2d4FJhhkhnmwMiMbG5Ptk4zXnf7HuuWkXjnxNZyyKj3drE0OcchCc/+hivoc8gsyz/AA2BxT/cct7bXdjrzKmsXmGGpVv4dtujOb+LvwV/4UzLp89lqk+paTqUjg+eMPFIozg44IKk4+le2/soyBvhnK+4lH1Gdh9MisP9rrWLFNC8P6VHcRT3zXUkzQo4Zo0EZG5h25PGevNb37KduY/hDBGSu8XdwDg9PmrfLcDhcFxTOlhtlT0V763R00KNHC5pKNLZRdjxP4g6hqHxX+LVzbeYFDXf2C1znbGoJGceuRmtfxN+zLf+DfC2q+JofEZkksbVp5LNYSC6Y5AbP8xXH6Vq48NfFKC5vMKtvq+Zd3G3Evzfpmvrb4pa/o+k/DjXry6vbVEuNPmjhjeQZmZkICqO+c14eT5fgszpY7E5lK9SMpK7k9P6Z5+W4KjiFiMRi3eabt5Hzx+yIu74hjaRt/s+ZsY9WUf1r6h8UfC/wv451Ox1HXdIiv7yxUrAZGbYAexUHDfiDXzB+yJ8nxK2jOBp0wyeuC6GvsrHzV9LwVSp18nlSqRUo88t9U9j1MijGrg3Tkrq7Pjf9ruwhsvG3hi0t4Y7aOLTCQsa7QAZWAAx/u19BfBnB+F3hfBG1rKJiR34rwj9sdfM+I2jHOD/AGYAP+/sn+Ne4/Axt/wh8KOvazRST6jIP6inlnKuKsSo6LkX6GOBaWc1uVW0PBv2jdWh1L43WkN9n+zNMs1Vl65J3MeP++fyp9z8cfivcwi98N6IumeGYkHk3NzbCYyKO+eABxwAOPU1iftSWZ074q6g7qw+120M6EdCCNpx/wB8mvqHw3rnh9vCFnqen3UI0OC1X50IVERVHy//AFq8PLaOLxOPzCmq/spKTd7atdN+ljiwNGrVxeJTq8j1OC+BP7SknjvXB4c8Q2sFrrEiF4Lm3+WOfAzgqTw2Ofw7V9Bo+4V+f/wTtn1n9oXRrizUx2xvZ7hRjH7oB8fh0r7+TrX1nC2YYjMMHKWJfM4ya5u9rHsZNiK2Iw8vbO7TaT7okooor7E90KKKKACiiigBrV4X8TAf+Fw+FhgfN5X/AKMavcLq4itYWlmkSKJRlndsKPxrxD4gzQX/AMZfBksE8bwKjCWQHKjblxyPy/Gvns7lS+rKM5JPmi/uZ5GaWdBRvrdfme5r0Ap1VrW+trt2WGeOV1ALKjAlc+tWa+gUlJXi9D1k01oFFFFMYUUUUAFFFFABRRRQAUUUUAFFFFABRRRQAUUUUAFFFFABRRRQAUUUUAFFFFABRRRQAUUUUAFFFFABRRRQAUUUUAFFFFABRRRQBWvv9S3+638q8N/ZZYsvjIH+HUyB+X/169yvv9S3+638q8N/ZaGD409P7UOPyr5nH/8AI1wX/b/5Hk4n/e6Poz3uikFLX0x6wUUUUAFFFFABRRRQAUUUUAFFFFABRRRQAUUUUAFFFFABRRRQAUUUUAFFFFABRRRQB+Cn/BU9s/tu+PB6Rad/6b7atf8A4JJSrD+2PpZfp/Y2oc+n7sH+lZX/AAVRXb+2545PrBp5/wDJC3rU/wCCS9ut1+2JpaNjb/Y2obs9cGMA/wA6AP0o+JH/AAUy+CHw88SXmgW+p6v4z1qzma3ntPC+mtdbJFOGAkYpG+DwSjMM8V4nofjz9kT9p79pLQfGWpW2t6J8U2v7Y2ml+IoJrKO+nhVUhDjLwMylUAUupchVwxOD94+C/hb4O+HL3z+FfCujeHJL+TzryTSrCK2a5fOd0hRQXOSeTnrX5+f8FbbrRvHmqfDH4deErODVPi9faws1rHZxr9rgtnjeMBnHKq7lGGSAPJ3cAAkGfo/qusWGg6Xd6nqV7b6fptnC9xc3l1KscMMSgszu7EBVABJJOABXx94h/wCCovgFFvrvwX4H8e/Ejw/p7+XeeItA0R/7PhbaGKmSQqQwBBwyqOc5xX1VrfgvT/HXga48N+LbODWbHULMWupW0gIjuAVAccHIBPPBpPAfw68M/C3wvaeHfCejWmgaJaDEVnZJsXOACzHqzHAyzEk9yaBHnn7OH7XXw2/am0q5ufBGrSNf2ah7zR7+Lyby2UkgMyZIZSR95CwGQCQTivZ6/MHRPDelaJ/wWXtrPwFZpp9haadNc+ILWxHlW6ySafKXOxeMF5rZiOnmEt1r9PqACuS8d/Cbwd8UJdJfxd4csPEaaVM1xZw6lF50MUhABfy2+RjgcFgcc4xk11tFADIYY7aGOKJFiijUKiIMKoHAAA6Cn0UUAFFFFABRRRQAUUUUAFFFFABRRRQAUUUUAFFFFABRRRQAUUUUAFFFFABXNfEz/km/iv8A7BN3/wCiXrpa5r4mf8k48V/9gm7/APRL0AfzCp0Wv3L/AOCRP/JnVh/2G7//ANCWvw0TotfuZ/wSK/5M50//ALDV/wD+hrSQz7TooopiCiiigAooooAKKKKACiiigAooooAKKKKACiiigDE8WXurWGkvLounRapfBgBBLN5Q29znvj0rk08R+OTHuHg+0SXnl9TAHt0Q11nijVJtHtLWWCIzNLdxQEAZwrMATWhfK8VlM8JxKqEqcZrgrUfbTdqko6dDCUXKWkmrHnPgG08fQeKNbvvFMOnw6bdon2WC1u2mMbLweqgAEH0rntDP/GROqYJx9mIIP+5HXtpVWTOOozXiWif8nD6uT/zwbHv8kYr53MKEcNLBUoybtUWrd3rfqefjYpeyXZo9vj6U+mRfdp9fYdT2GFYPiy81ex07zNFsYtRu94HlSy7AF7nPf6VvVk63eyWDWQjQv59wsLEDOAc/4VjXSdOSba81uZz+F62OPXXvGnlk/wDCL2yTY4Y3w25+gUmjwNH4zjvtUk8TW1nBbSkNbC3uDMQecjkDAxiu11ZpbTTpJYCfNUqc4zgbhn9M1blVSpOB0rghgFGuqzqylyrRN6a9+5lGm4v3pNningb/AJOB8VHJ/wCPYZ/74ir29OleIeBwV/aC8WDt5GR7/LFXt6dK8vhz/dan/Xyf5nLgI2py9WOooor6o9IKKKKAEYZrgPjD8LLL4reHE0+4uGsrq3k8+1uVGdj7SMMO6nPP4eldtqV/HplnNcyhjHDG0jBeuFGTXi9z+1p4JSRla21JlHVxEmP/AEOvJzHF4ChT9jj5pRmrWfVHJiamHjD2eJaSkeP2H7N/xY028fTtL1eLSNPnys17Ff8AyMozj92Buziuj8c/sl6rHaQJ4ZurS7Tykjn+1OUkZ/8AlpITg5zyetdyv7WHgQAEw6iP+2I4/wDHqmH7VngQc773B7GEjH618Q8Nwq6H1eVZOF7pOT09DxI0cqVN0lUuvU9Ji8N2134di0vUIku7d7Vba4hf7kg2hWz9ea+WfEX7JnjHw7rhbwjdQajp5LGG4mnEE8Kn+B+xwABkZz1wK9db9qzwInA+3MCccQ//AF6UftXfD9es94pxkg27cV6uZYrhzN4wjia8Xy7NOzR2Yt5di4xjUnrHZp6nntn+yJqWm+A9aml1OPWPG15GphVyEghIP3FcgE8H7x64r1T4B/DXWPht8PE0nXpLZ9Ua7luHNq5dAGIwMkDJwKzf+Grfh6ck3d0n1t3/AMKQ/tX+AGBxNeP9IDUYKtw5l9dYmhWSna1+a90KhLLqNVVoT95K25y/xw/ZtvfFOvzeJPCvlNd3K/6ZpssgjEjjpIhPAJ75x696534d/smaxeLPd+M7mO2kUFbWwWQTANzhmYZAHTgV6Qv7V/w+JO6a9jwM5aA/0zQP2sPh6xOZ7xB6m3bmuLEUOFcViJYmpVV5brmaTfexjUo5XOs6znvur6MwfgT8DfE/w98fvqOqRQLYJbSQCVJVYuSVxhR0+73r6HZAGyCDXig/a5+HofZ516SP+ndqf/w1r4A2533xHtB/9evYy3H5FlVD6vhq8VG7e/c6cHUwGCp+zo1Fa99zn/2jfgl4t+JPjPTL/QYbaeyhsxA7TXIiKvvY9MdMHtXqfwv8IX/g74c6NouptE19aI6SGFty8uSMH6GuIf8Aa5+HqZ/e359vIP8AjSj9rnwA6go98+e3kYP6mooYzIsNjamYQxC55qz10JpTy+jiJYqNT3nvqdH8YPgxpvxb0a3iknOnavZ7jaXyruC56q6/xKcevB/EH5wvf2Yfi1psT6VYS2N7pch52aiUg/4EjDP5Cvbf+Gs/AecMb9R6+Tn+RqWP9rP4fsOLq7X1DW7cVw498NZnVderWXO9G1Jq/qY4r+zMTP2kp2fk7XJvgZ+z3afCa1GoX10NS8SSoUluFyIoVPJSNfT3PJx2r2RK8UP7WXgAH5Z7x/cQH+tH/DXHgXOB9vP/AGw/+vXr4TNMkwNCOHw9aKivM66OKwGHpKlSmkke30V4f/w134HA+5qP/fgf/FUn/DXvgfH+r1H/AL8D/wCKrr/t/Kv+giP3mn9o4T/n4j3GivDv+GvvA/8Ac1Ef9sB/8VR/w154FPbUB/2wH/xVH9v5X/0ER+8azDCv/l4j3GkLAV4h/wANdeBPW/8A+/H/ANelH7W/gNh9+/H/AGw/+vT/ALeyrb6xH7y1jsK/+Xi+89Q8b6M/iPwjrGmQkLPc2zpEx7Pj5T+eK+BNZ8Q6zYXlxpt7LJDd2crRTRqSHBH8I5r6mn/a6+HkShnuL7n0tzmvlH4heKtN8Y/FTWtesg9vpV3OkitIoV8BQrEDPUjP6V8LxVissx1KnVpVk5J2+TPl89dDEwhOlO8k+/Q+1P2fvDK6B8OdPvJR/puqRpeTuevzKNo59BivTAeK8D039rL4c2dpbWkEt6IYI1iRUtiAqqMAdfatFP2t/ATHAkvR7+R/9evscJm+VYbD06KxEfdSW59DQxGEw9GFJVFou57bRXiv/DWXgbs18f8Ath/9ekP7WfgnsmoH/tgP/iq6f7eyv/oIj95p/aGF/wCfi+89rorxQftY+Cz0j1D/AL8j/wCKpf8Ahq/wZ/cv/wDvwP8A4qj+3sr/AOf8fvF/aOE/5+I9qorxb/hq7wX/AHb/AP78D/4ql/4as8F+l/8A9+P/AK9P+3cs/wCf8fvD+0cJ/wA/F957RRXjH/DVngr/AKfv+/H/ANej/hqvwV/0/f8Afj/69P8AtzLf+f8AH7w/tHCf8/Eez0V4z/w1X4K/6fv+/H/16P8AhqvwV633/fj/AOvR/bmW/wDP+P3h/aOE/wCfi+89morxn/hqzwV633/fj/69H/DVngn1vv8Avx/9ej+3Mt/5/wAfvD+0cJ/z8X3ns1FeM/8ADVngn+9ff9+P/r0v/DVngn+9ff8Afj/69H9uZb/z/j94f2jhP+fi+89lorxr/hqzwR/evv8Avx/9ek/4as8Ef3r7/wAB/wD69H9uZb/z/j94f2jhP+fi+89morxn/hqzwR/evv8AwH/+vR/w1Z4I/vX3/gP/APXo/tvLf+f8fvD+0cJ/z8X3ns1FeMf8NW+CP719/wCA/wD9ej/hq3wR633/AID/AP16P7cy3/n/AB+8P7Rwn/Pxfeez0V4x/wANW+CPW+/8B/8A69J/w1f4H/vX3/gP/wDXpf27ln/P+P3j/tDCf8/F957RRXi//DV/gf8AvX3/AID/AP16X/hq3wN/z0vf/Ac/40v7eyz/AKCI/eH9oYT/AJ+L7z2eivFj+1h4GH/LS8/G3P8AjUUn7XPgOL70l9+Fuf8AGk8/ytf8xEfvD+0MJ/z8R7dRXI/Dj4n6L8UdJn1DRWlaCCXyXEybSGwG9T2Irrq9mjVhXpqrSd4vVM7IVI1YqcHdMKKKK2NAooooAKKKKACiiigAooooArX3+pb/AHWrw/8AZeGG8Z/9hM/yr26+/wBQ3+638q8T/ZhGH8Y/9hI/1r5fMP8AkbYL/t//ANJPIxP++UfRnuw6UtIOlLX1B64UUUUAFFFFABRRRQAUUUUAFFFFABRRRQAUUUUAFFFFABRRRQAUUUUAFFFFABRRRQB+DH/BVT/k9rxt/wBe2n/+kMFa3/BI91X9sfTATgtot+APU7FP8gayv+CqnP7bXjb/AK9tPH/kjBVn/glRqL6R+1taXkdjPqTQ6DqcotrUKZpNsO4KgYgFmxtAyOWGSBmgD9Xf2ov2b/Gfx6j0n/hEfjN4k+FT2W/zo9HDmK6yVILCOaF9wK8EsRyflr45l0b4o/8ABMC6k8Z+ItO8PfF/wjreqbdQ8SeU0PiGG4mTDE3Mm9ysnlj5WLqSvVC24+/+Df8Agq98A/EemTT6vqmr+Eb2AlZNP1TTJJpSwzkKbbzVPIPUg+wr56/ao/awP7flpp3wK+BnhjVNZGpajbz6p4h1K1MNvaRRvkMVAZo4w21mkfacIUVGLjAM/Tvw9r9h4p8P6Zrel3Ud9pmpWsV5aXURyk0MiB0dfYqQR9a8U/a4/az0L9l/wIty8Q1vxpqxNr4e8OQ5ea/uSQoJVfm8tWK7iOuQq/MwrM8eePNG/YD/AGQtGk1OS78TDw1p9po1pHu2Pf3JUIq7jkRR8M3P3UXAyQAfz9/Zg/as+Ddh8TNY+Nvx28Qavr3xduJ5Bp1jBpzzWWkW+NqLbhSV3bSwGThQf7xZqAPt79gr9lzXPg/o/iD4ifEeZr/4u+OpTe6xJIwY2UTMXW3GOA2Tufb8oIVV4jBP1nXxR4b/AOCt/wADPE3ifS9Et4fFVs9/cpai6uNLTyoizbVZwspfBJA+VWPPSvtVW3KDzyM8jFAh1FFFABRRRQAUUUUAFFFFABRRRQAUUUUAFFFFABRRRQAUUUUAFFFFABRRRQAUUUUAFc18TP8AknHiv/sE3f8A6JeulrmviZ/yTjxX/wBgm7/9EvQB/MKnRa/cz/gkV/yZzp//AGGr/wD9DWvwzTotfub/AMEi/wDkznTv+wzf/wDoYpIbPtKiiimIKKKKACiiigAooooAKKKKACiiigAooooAKKKKAM3WtYt9EthPcltjOEUDux6Csg+P9MHG993upGPxxW5qlnaahaPFfQQz2vVlnAKj35rirjXPhna3P2Ka+8PebF83kSPC2zPfB6V5OKWJjNzhWjCFuq6+pzVfaJ3jJJeZY8KfEUeJ/Emu6Yln5MGnBAs+/d5hYHt26Vw2gkv+0HqgI+7AwH/fCH+teu2IsJ7NZNO+zta/wta4Kn8RxXkmhEH9ojV+f+WBxj18uL/69eLmEaieB9rPml7RarY4MZzL2XM7u6Pbo+lPpqdKdX2HU9lhWdq+r2+jwiW5JCFtq4GcnrWjWfqdta3tsyXsEU1uvzN5wG0e/NZVY1JU5Kk0pdG9iWm0+Xcx5fHOmRo2XYnHKsD0ql4T+IEPirUNXs4rV4DYlR5jNkSBgeR+VUJvEXw0hvBaXGo+HvtEfzCGR4iV568+9dfbi0ls0ksvINswyjW5BRh7EV5eGhi/br22IUklrFJL08znj7Vt80lt0PI/AbFvj74rB7QDB9tsZr29OleJeBefj94rIIwIAP8Ax2KvbU6V5/DumGqr/p5P8zmwDfsnfux1FFFfUnpBRRSHpQBkeKufDmqZ5H2WXP8A3wa+C/hf4Bt/iN47j8P3cr28c0byGWMZK7cnFfefinnw9qY7G1l/9ANfH/7N5H/C6rEY6205/wDHa/OeJqVOtmeApVVeMpNNHymcQjLFYdS2bPSF/Y88PDj+1dRPrkp/8TTv+GOPDbf8xXUl+hX/AOJr6JVQTmpNor6WXDuUP/mHR7f9m4O38M+b2/Yx8OMf+Q1qYHoCn/xNIf2L/DWRnWdU4/2k/wDia+kto9KNoqf9XMo/6B0L+zcGv+XZ83j9jHwyM51bUz7Fk/8AiaT/AIYt8Mk5Gr6mPxT/AOJr6R2j0o2j0qf9W8o/58L8SP7LwT19mfN3/DF3hrvrGpn8U/8AiaB+xf4bGf8AicakfqU4/wDHa+kdo9KNo9KP9W8o/wCfCH/ZmD/kPm5v2L/DTLj+1tQB9fl/wqL/AIYq8OHAOt6mAPTZ/wDE19LbR6UbR6Uf6t5T/wA+F+JP9l4L/n2fNJ/Yq8Nf9BjUz9Sn/wATQP2LfDYP/IX1EfTZ/wDE19LbR6UbR6Uf6t5T/wA+F+I/7Lwf/Ps+az+xb4aIH/E51TP+8n/xNJ/wxh4cXAXV9SwO5KHP/jtfSu0elJsHpT/1byjb2CH/AGZg7W9mfNo/Yz8Pc/8AE2vwPov+FL/wxn4eBz/bGo/+O/4V9JbR6UbR6VP+rWUf8+F+JP8AZWC/59nzX/wxl4fP/MZ1H/x3/Cl/4Yx8Pd9Y1L/x3/4mvpPaPSjaPSq/1byn/nwvxH/ZeC/59nzZ/wAMX+Hf+gxqP5r/APE0f8MY+Hx01jUPxC/4V9J4FBUGl/q3lH/PhfiL+ysE/wDl2fNo/Y28Pjrq18R6YX/CnD9jjw6BgapfD8B/hX0Yyg007FOCwB96f+rWTpfwF+InlGAS1po+dJv2QPDhIAv7sN26GoZv2Q9AlCxi+ugyHJV8YP4Yr6OlRSMZK7hgMK4L4ZeEvE/hOXVf+Eo8UDxJJcS7rYiARiGMcBfc+v0rnqcO5VCdOMcLdPrfYmWV4KEoxjS0Z5iP2PPD4wyXt0jdxgGnD9j7QiONRul9wor6LCDbn1p2FUckD610vhrKP+fC/E0llWBW8EfOY/Y80P8A6C15/wB8inD9j3Q/+gtffkv+FfRigHkU4KPSkuGsoW1BfiR/ZGB/59nzoP2P9CH/ADFb78l/wp3/AAyDoP8A0Fb/AP8AHf8ACvoraPSjaPSj/VzKf+fCH/ZOC/59nzof2QNB/wCgtf8A/jv+FJ/wyBoX/QXv/wDx3/CvovYvpRsX0o/1cyr/AJ8IP7JwX/PtHzn/AMMgaF/0Fr//AMd/wo/4ZA0L/oLX/wD47/hX0ZsX0o2L6U/9Xcq/58IP7JwP/PtHzn/wx/oX/QWvv/Hf8KP+GP8AQf8AoLX3/jv+FfRmxfSjYvpR/q7lX/PhB/ZWC/59o+cv+GP9C/6C19/47/hR/wAMf6F/0Fr7/wAd/wAK+jfLX0o8tfSj/V3Kv+fCD+ycF/z7R85f8Mf6F/0Fr7/x3/Cj/hj7Q/8AoL335L/hX0b5Y9KPLX0o/wBXcq/58IP7JwX/AD7R85f8MfaH/wBBe+/8d/wpP+GPdD/6C99/47/hX0d5Yo8tfSl/q7lX/PhfiH9k4L/n2j5w/wCGPND/AOgvff8Ajv8AhS/8MeaF/wBBe+/8d/wr6O8sUeWvpR/q7lX/AD4X4h/ZOC/59o+cf+GPNC/6C99+S/4Uf8MeaH/0F778l/wr6O8tfSjy19KP9XMq/wCfC/EP7JwX/PtHzj/wx5of/QYvvyX/AAo/4Y70P/oMX35L/hX0dsHpRsHpS/1byn/nwvxD+ycF/wA+z5yH7HegDrq1+f8Avn/CkP7HPh88f2vfj/vn/Cvo7YPSjYKX+rWUf8+F+I/7JwP/AD7PnBv2NtAYc63qAA7YX/CvN/jf+z3Y/C7wgus2OpTXn+lRwlJowMBs9x9K+05I8ivEP2tYc/C2Nf8AqIwn9Grys34fyzD5dXq0aSUlFtHJjMswdPDTnGFmkYv7GBZPDHiCMjhb4HrnP7tf8K+jh0r5y/YyCr4Z8SAE5+3r1/65LX0aOletw2rZRhv8KOnKdMFTXl+otFFFfSnrhRRRQAUUUUAFFFFABRRRQBUvv9Q3+638q8U/Zj+/4w/7CJ/rXtd9/qG/3T/KvFP2Y/v+MP8AsIn+tfL5h/yNsF/2/wDkePif99oejPdR0paQdKWvqD2AooooAKKKKACiiigAooooAKKKKACiiigAooooAKKKKACiiigAooooAKKKKACiiigD8Gv+Cq3/ACex4z/69tP/APSKCtH/AIJKIH/bK0fPI/se/wCD/wBchWd/wVW/5PY8Z/8AXtp//pFBWp/wSOIH7ZOlZxzo9+P/ACGKAP2Y8TfAv4b+NNWbVfEPw+8K67qjjDXup6LbXEzfV3Qk/nXS+H/C+jeE9PWw0PSbHRrBfu2un2yQRD6KgA/StSigCnq2jWGvWL2Wp2NtqNnJjfb3cKyxtg5GVYEHBGaop4L0CKHyU0PTEh/55rZxhfyxW1RQBi2vgvw/Y3CXFtoWmW9whyksVnGrKfUEDIraoooAKKKKACiiigAooooAKKKKACiiigAooooAKKKKACiiigAooooAKKKKACiiigAooooAK5r4mf8AJOPFf/YJu/8A0S9dLXNfEz/knHiv/sE3f/ol6AP5hU6LX7nf8EjP+TONN/7DN/8A+hivwxTotfud/wAEjf8AkzjTP+wzf/8AowUhs+0aKKKYgooooAKKKKACiiigAooooAKKKKACiiigAoopGOBQBwvxdlaHw7aSu+3T49Qga/8AT7Pu+Yt/sg7SfYGsDxXqGg32reGNNsBY32qXF0EFtA6F0t/LYyOQM4QLg4PBOO9Wdd+Jc2ka/f6fqXh3VxbLIUiuILNp4pUx97Kg9cnjtWfpnxJ8KaLLLNZ+Hr20upAA/laLJFK4HQH5AT1718bi8RhKtatGtezXK1Z206o8qpKlWbTdv+Aauk+CIvAnjg3WjFLXStVtGF7ZICIxcRkbJEA4VmVmDcc7V9K5Tw6f+Mh9T9TEx5/65pXW6d4/k8UatbQW3hbX4IDkveXlkYIkGOuWwT+ArlPD5I/aDvt4wfs7D6nYlTjp0pSwKo35edWMca4qVFQ2uj3NOlOpkfSn19p1PcYVxPxNYLZ6Ukz7dPe9Buyfu+WI3YB+wXcFzniu1Y4HFeQ3/wASrvTPFmuadrGi6k9is3l20sNqZEZNvJ4HIOTXj5rWpU8O6dWTip6XSbt9xyYicYwtJ2uMv9U8OeI/F2i6DYGzvtQKvLMsCBxBAIzyWHAydo2nrmtTw94afwZ471eKyAi0S9sIrgQIcRx3CsyvtXoNylScdwazNJ+KHhjTA5sNE1C3cjDLBpTo7AduFrY0Dxi/i/WJfK8P6xp1rFDg3WoWjQI5PQLu5P5V5uXVMv8ArMfZNuq1ro+nqYUYUU5STvJ/5HKfD/j4++LR38kH/wAdjr3JOleF+AHb/hoHxcG4H2dcf98x17onSjhy31Spb/n5P8yMud6UvVjqKKK+qPUCkPSlpDQBj+J+dA1Mf9Osv/oBr46/Ztkz8bdOH/TtP/6DX2P4mH/Eh1L/AK9Zf/QTXxl+zQ2fjdpv/XvP/wCgmvzziH/kb5d/iPlc3/3vDev6n2/H1P1qWo4+pqSv0M+rYUUUUCCiiigAooooAKKKKACiiigAooooAKKKKACiiigAooooA8w+PXxRn+GHg5rjT0WXWbx/IskIBw2MlyO+P8K880j4DeL/ABXZQanrvj3UrW+u0EphtyzJHkZCkEgccdBinftEBL34p+DYLrBtLePzdp6EtIBk/wDfNfQaMDDGE/ujkV8X7CnnOZYiliW3ClypRTaV2rtu254qprG4qcaj92NtDjPAngrUPAnh240y98QXPiEl3kjuLxQroCPu8dq8/wD2dtX1DU7zxT9svLi7KXIVEmlZlTl/ugnjIAr2q9jYwSk9fLfH/fJrxT9neEQXHihgCFe5Rvx+fNXi6ccNm+XYek2opVNLvX3fxOqtaliaNOO1mZ3xq+IHiDw78YNC03SL6dLN9PNxLaq3yyMS+Mj6IcfWrF98CPGPiuZtWuPiXq+l3VwBIthagtbw8cLgsN31qt8RbP7f+0x4YBGR9niJz02r5xr6GiRURQoAAGK83A4ClmuOxk8RKThGXKo8zsrJa7nLToRxGIrc70R4f8A/GfiK18aeKPAnijUP7UvdK2PDdtgM6lVPT3DA+1e9p0r548O2/kftceIpEGBLZJu98RxgH+VfQ6civZ4cqTeFqUpyb5Jyir9k9EdGBk+SVN/ZbQ6iiivqj0gooooAKKKKACiiigAooooAKKKKACiiigAooooAKKKKACiiigAooooAa/SvEv2sx/xa6PPa/hP6NXtr9K8T/az/AOSWL/1/w/1rwc+dsqxP+FnBmH+6VPQ579jXjw/4mHpfJ/6KWvo4dK+cP2ND/wASLxOP+n2P/wBFCvo8dKw4c/5FGG/wo58p/wBzp+n6sWiiivpT1wooooAKKKKACiiigAooooAq33+ob/dP8q8T/Zk+/wCMP+wgf617Zff8e7/7prxP9mT/AFnjD/sIH+tfL5h/yNsF/wBv/wDpJ4+J/wB9oejPdR0paQdKWvqD2AooooAKKKKACiiigAooooAKKKKACiiigAooooAKKKKACiiigAooooAKKKKACiiigD8Gv+Cq3/J7HjP/AK9tP/8ASKCtH/gkn/yeZon/AGCdQ/8ARVZ3/BVb/k9jxn/17af/AOkUFaP/AAST/wCTzNE/7BOof+iqAP3UooooAKKKKACiiigAooooAKKKKACiiigAooooAKKKKACiiigAooooAKKKKACiiigAooooAKKKKACiiigArmviZ/yTjxX/ANgm7/8ARL10tc18TP8Akm/iv/sE3f8A6JegD+YWPotfuf8A8Ejf+TONM/7DN/8A+jBX4YR9Fr9z/wDgkd/yZxpn/YZv/wD0YKQ2faFFFFMQUUUUAFFFFABRRRQAUUUUAFFFFABRRRQAUnWlooAZ5f4/WlCkU6igCKRd3XtXh+lyZ/aNv1xgLGwX/v0le5P0P0rwfSj/AMZJ6kM9EPH/AGwSvms5/i4P/r6vyZ4+Yaul/iR7xHT6jiqSvpT2BKbs5z3p9FADQp9ahnj35zViopvut9KaC9jw/wACPv8A2hvF3GAIcD8o69yj6V4X4BH/ABkR4x9oP/ZYq90i6V8rw6v9mq/9fJ/mebl6/dy/xMfRRRX1J6QUUUlAGR4oONA1Q/8ATrL/AOgGvjD9mY/8Xs0w/wDTvP8A+gmvszxWceHdV/69Jv8A0A18Z/s0L/xerS8doJ8/98GvzviPTNsu/wAR8vmy/wBrw3r+p9xRVLUUVS1+iPc+pYUUUUCCiiigAooooAKKKKACiiigAooooAKKKKACiiigAooooA8n+O/wzvPGWnWWqaOgl1fTWJEG7b9oiPVM/wB4HkfiO4xxuhfHLUvDunrp+q6RdC8hG1JJIXGB2DDB5r6JIzTTEjHJUE+pFfO4vKHVryxWFqulUkrNrW/bTueZVwcnV9tRnyt7+ZxXhHxJe+KPBtzql1B5E0iy+TGFKllCnHB5znNcD+z/AGF2reITPbSW6+eihpVK7mAbOM+n9a9zESht3ehow3XmumWWKpicNiqlRudFNet1ZtnRPDqdSnUlLWJ4X4j0PVLn9oXQr0abdGxhtipu1jJhxtkHLdAct/KvbAp2kDr61Z2DGKAoAxWmAy+GAnWnGTftJczv0Y6GHVBzle/M7niOkaNfr+0vq97JYXMdm2nqFumiIic4QcN0J4P5V7cowKXaKWqwGBjgIzhGV+aTlr5lUqKo81uruFFFFemdAUUUUAFFFFABRRRQAUUUUAFFFFABRRRQAUUUUAFFFFABRRRQAUUUUANfpXif7Wn/ACSxf+v6H+te2P0rxL9rX/klQ/6/of614HEH/IpxP+Fnn5h/ulT0Oc/YzOdE8Uf9fkf/AKLFfSI6V82fsYHOieKf+vyP/wBFivpMdKx4b/5FGG/wo58o/wByp+n6sWiiivpT2AooooAKKKKACiiigAooooAq33+of/davE/2Y/8AW+Mf+wgf5mvbb7/UN/utXiX7Mf8ArfGP/YQP82r5fMP+Rtgv+3//AEk8fE/77Q9Ge6jpS0g6UtfUHsBRRRQAUUUUAFFFFABRRRQAUUUUAFFFFABRRRQAUUUUAFFFFABRRRQAUUUUAFFFFAH4N/8ABVb/AJPY8Zf9e2n/APpFBWj/AMElP+TzNE/7BN//AOiqz/8Agqt/yev4y/69tP8A/SKGtD/gkp/yeZon/YJv/wD0VQB+6dFFFABRRRQAUUUUAFFFFABRRRQAUUUUAFFFFABRRRQAUUUUAFFFFABRRRQAUUUUAFFFFABRRRQAUUUUAFc18Tf+Sb+K/wDsE3f/AKJeulrmvib/AMk28Wf9gm7/APRL0AfzCx9Er9z/APgkd/yZvpf/AGGL/wD9GCvwwj6JX7of8Ejv+TN9L/7DF/8A+jBQNn2fRRRQIKKKKACiiigAooooAKKKKACiiigAooooAKKKKACiiigBknQ/SvB9J/5OV1P/AK5E/wDkFK93k6GvCtKH/GSWpf8AXE/+ikr5nOtK2C/6+r8mePmHxUv8SPdYqkqOPpUlfTdT2AooooAKY/Q/Sn1HJ0NNCex4Z8Pmz+0L4w9oOv4RV7pH0rwfwBOq/tC+LR0zC2M/9sh/Q17rGwxnI/Ovmsh5fq9RL+ef5nl5a17GV39pk1FNDg9x+dLkV9IepdC0jdKCcfSvKdc/aL8M+FPGWo+H/EBm0o28irFesheGQGNWySoypyxGMY461y4jFUMIlKvNRTdlfuZVK1OjZ1JWudx4skA8Oas3YWcxP/fBr46/ZoH/ABejTT/07T/yr6evfiT4T8VeGNWGk+IdNvw9lKSIrlSwBUjJGc18u/s0yBvjPpY55inGfX5H/wAK+I4glCrmeXuDTtI8DNJRlisO4u//AA59xw1LUERwK4zx58XtA+Ht7BZ6jPI9/OnmR2kCF5WX1Cjnsfyr7rE4ilhKbrV5csV1Z9FVqRpLmm7I7nOKhuLpbeMu2doBY49B1ryrQv2lPCGt6nFYTS3Wk3EriNDqNtJApY9BkjA545r0nUHV7eQEdEbr0IxWGFxuHx0JTw01K34EUq1OtFypu9jhZ/2hvA9nbvPca1Dbwp9558oBzjuK7rQ/EVj4j0a01TTp1ubG6QSQyp0ZT0NfOf7MnhXSteXxG+padbX5iuBGsd1CsigZJ4BB75/IV9F3qPYaHcf2dZrJNBC32e1iwiswX5VHQDsK8Th/FY7H4f63i5R5W3ZJW2bXfyOXBVKtaHtamxS8W+OtF8Daab3Wb2O0i6KrHLMfQDqa0dE1q31/SLPUrRi1tdRLNGSMEqwyK+XviR8NNai8J6n4n8W3TTantDCDdvSEFwqpkEjPPbvXvfwmUxfDnw5HzxYQ4zz/AAioy/N8RjM0q4KrS5IxjzK+71tf0Zjh8VWrYmVOcbRWx1Wp6lDpVhPeXD+XbwIZJG9AOtedf8NF+CQoI1PzCeyoSau/Hm7ksfg54taEbpmsJI09iw2g/rXIfBv4PeEZPhr4dub3w9Yahd3NnFcTS3EIdi7qGPJ9zWmOxOPnmEcFgZRXu80m1frZdTavVre3VGjba+p3Phf4zeF/F2tR6Vp195l9KhdImQqWA64yO1dznNcvo/w88M+H9RTUdN0Kzsb5EaNZ4YgHCnqAan8VeLrPwZo76lqDMIFbblRnJPQV6dGpXwmGlVzKcfd1bWisbwdSlTc8Q1p2OhJxXNeK/iJ4e8EwrJrGqQWRcZSN3G9voOtT+FfGOm+MfD0Gs6fNvspQxDNwV2kg59MYNeCfC/w/H8Xfib4h8V6zbx3lhDIYLSCddyggkKQD2Cj82zXBmOaSpwoU8ClOpWfu9kt3J+SRjXxDioKlq5beh634c+OHg/xRfRWVlq0f2qU4SKUFSx9Oa6rWfEFloGmXOoX8wt7W3GZJH4A5x/M15B8ePhRpc/w51bVNLsIbHWdNQXdtcWqeW42MCRlcZ+XIrrfh/rsPxL8AaVfahbxXKzxYnhlQMpdSVJwfpmpwmMxkcRPLsY4+1ceaMls+m3kwoVavtHRrLW10TWvxu8JzSQqdTjTznCITn5iTgDp716ACGAI6GvmH9oPw3pnh7UfBzaXYQ2c11qab0hXAZQ65/XFfTcH+pTP90fyqMnxeOqV8RhcfZyptWcdE00Z4WrWlWqUq1vdtaxJRRRX1J6YUUUUAFFFFABRRRQAUUUUAFFFFABRRRQAUUUUAFFFFABRRRQAUUUUAFFFFABRRRQAUUUUAFFFFABRRRQA1uleI/tb/APJKM/8AT9D/ADNe3N0rxH9rn/kkjH0voP5mvBz/AP5FOJ/ws4Mw/wB0qehzX7FpzoXin/r9T/0WK+lB0r5q/Yp/5APin1+3J/6LFfSo6Vhw3/yKMN/hRy5P/uVP0/Vi0UUV9KeyFFFFABRRRQAUUUUAFFFFAFa+/wBQ3+6f5V4j+zGf3vjH/sIH+bV7fe/6lv8AdP8AKvD/ANmL/W+Mf+wi382r5jMP+Rrgv+3/AP0k8fE/75R+Z7uOlLSL0pa+nPYCiiigAooooAKKKKACiiigAooooAKKKKACiiigAooooAKKKKACiiigAooooAKKKKAPwd/4Kr/8nreMf+vXT/8A0ihq/wD8ElP+TzNE/wCwTf8A/oqqH/BVj/k9bxh/166f/wCkcNX/APgkp/yeXov/AGCb/wD9FUAfunRRRQAUUUUAFFFFABRRRQAUUUUAFFFFABRRRQAUUUUAFFFFABRRRQAUUUUAFFFFABRRRQAUUUUAFFFFABXM/E7/AJJt4s/7BN3/AOiXrpq5n4nf8k28Wf8AYJu//RL0AfzDR9Er90P+CR//ACZvpf8A2GL/AP8ARgr8L4+iV+6H/BI//kzfSv8AsMX/AP6MFA2fZ9FFFAgooooAKKKKACiiigAooooAKKKKACiiigAooooAKKKKAIpD1+leG6V/ycjqf/XA/wDopK9yk6H6V4dpY/4yP1P/AK4H/wBFJXzGd/xsF/19j+TPIzHel/iR7lH0qSo4ugqSvpnueuFFFFMAprDNOooA8T8S/ArVbzxVqGt6T4kbTZ7uQvhUI2rx8uQeegqqnwd8Zr97xaJPVvNlFe67RTTGDXgyyPAyblytXd3Ztas83+z6F29VfzPEv+FS+Mx08Tce1zL/AIUh+EvjXoPFDKT/ANPU39BXt3lCjy6x/wBXsDe/vf8AgTKWX0Ftf7zxJ/hB42li2f8ACc3Fs3ODG8rn9XWvnv4+21t4b8RJok1/Nr2urGr3M5QhySPlXAJycAHvX3g0WSD3FZNv4Q0Wy1O41OHSrOPUrht8t4IVMrn3YjP4V5+Z8L4bG0FRpPl13bb+7XcwxeW08TTVJM+ANI+B3xB1fTZdch8Prp9hbxtMTeuIZWjVSSVjIyeB0NdN+y6jL8XtE8w5bZNyPXy2r7T8VwhvDWsMcgiymx/3wa+M/wBmkbvjDoxAxthmYj/gDD+tfH47JMPk+Y4GNGTd5K9/JnhYvBU8FWw8YO+p9xAkDNcz4it/CGian/wk2vR6bZ6ikH2ddQvCocRgltoJ9yeldIrfIx9ASK+XPg5oVr8UvFuveJfE8a6nPHK0dvZ3h8xUO9sNtPQADA471+k5pjvYVKOEjDmlVdle1lbW7ufV4ivyShT5buRpfGj4g+Avid4A12w0LWLHUdYtESeMRxMrKyuCDuKjPTHB716x8ONWl174WeFb6cs8txpULuW6kmMZJrgPjXpOk+HPCE0dpY2ttf3XCRW0SqxHUkgY45rtfgsh/wCFP+FEIx5enRx/gFwK8DAzlT4hxVGck7U47d9eh5lGTjj60Wkly9Djf2XyFn8UxrjCXK/XvXvoA2+lfPP7Kknm6n4y7gTp+e6Qf0r6FB4rt4Tv/ZNP1l/6UzpyvXDJru/zPNP2iFH/AAqbV8gHe8Cn6eatbvwxOPAPh/H/AD5Rf+g1gftGMf8AhVt9GoyzywjA/wCugNb3wt+bwBoHtZRD/wAdFKi/+Mlqr/pzH/0pijNvMHF7cv6ln4j+GLjxn4M1HSbOWKG5uEwrT52de+Aa8msfhd8WdB0e2sNN8S6SkFvGI0jO4soHYEx9PrXvM9xBbIDNKkQJwC7AZNAaN+d64/3hXbjslwGNxH1is2p2tpJrTfozsqYalVnzS3PnnQvi74z+HXxEsvDPxD+xT2OoRjyr+2Up5RJ2qSehBPB6YyDk9K9313w5pvijS5NP1W1jvbKQhjG44JHQ185/tI3Nv4p+IXhrQrJWvLpFETeXySXccfgBmvo2bVbbR9LE17cR20EKDzJZWCgYHqfpXj5HW5p4zB1KntKFNpKT1VmrtN9bHHhJPmq0ZvmgurMq+0Sy8MeCNTsNKt1tLaGzn8qOJcKpKsen1NeffsuW4t/Bt/6/a2+oGxP/AK9ervLaeI9FkFtOk1reQtGk0TAqQwIyDXiXwA15NC1zWfC98RbXiylhG5wd6/Kwx+ANbY506Ga4CaSVO0op9E2lb7ycRKNPE0ZL4dUex+M4EufB2uROcK9jOCT/ALhryv8AZYuGk8B3cR3BYr5kUHt8iHj867b4weKLXwv8PdWkmcefcQPbxRDlnLDHA+mazf2fvDcmifDTT3nXy7i8ZrplxggMflB/ACt6slX4hoxpu/s6c3L/ALeaST/M6KklPFwUeidziv2l2H9ueBm7pfHp2+ZK+g4P9Sn0FfPH7T0gi1zwUg4Y3e4D/gaV9DQf6tPpSyvXNce/OH5MwoO+LrfIlooor609UKKKKACiiigAooooAKKKKACiiigAooooAKKKKACiiigAooooAKKKKACiiigAooooAKKKKACiiigAooooAa/SvEf2u+Pg/MR1F7b/APoVe3N0rxD9rvn4OXXteW3/AKHXh56r5XiP8L/I4cf/ALrU9Gcz+xNzoHin/r+T/wBFivpYdK+aP2JhjQPFX/X8n/osV9LjpXLw1/yKMP8A4UceTf7jT/rqxaKKK+mPaCiiigAooooAKKKKACiiigCvef6pv90/yrw79mI/v/GQ9NRb+bV7jd8xH6GvDv2Yf9d4y/7CTf8AoTV81mH/ACM8F/2//wCknj4n/fKPzPeF6UtIOlLX0p7AUUUUAFFFFABRRRQAUUUUAFFFFABRRRQAUUUUAFFFFABRRRQAUUUUAFFFFABRRRQB+D3/AAVZ/wCT1fF//Xpp/wD6Rw1f/wCCSf8AyeXov/YJv/8A0VVD/gqz/wAnq+Lv+vTT/wD0jhq//wAEk/8Ak8vRv+wRf/8AoqgD90qKKKACiiigAooooAKKKKACiiigAooooAKKKKACiiigAooooAKKKKACiiigAooooAKKKKACiiigAooooAK5n4nf8k18Wf8AYIu//RL101cz8T/+Sa+Lf+wRd/8Aol6AP5ho+iV+6H/BI/8A5M30r/sMX/8A6MFfhfH0Sv3R/wCCSH/Jm+lf9hi//wDRgoGz7OooooEFFFFABRRRQAUUUUAFFFFABRRRQAUUUUAFFFFABRRRQBDL3rxHSx/xkdqn/Xuf/Rcde3ydD9K8Q0r/AJOO1T/r2P8A6LSvmM7/AIuC/wCvsfyZ5GY70v8AEj2+HoKlqKHoKlr6bqeuFFFFMAooooAKKKKACiiigApCMilooAxfFnHhjVv+vSX/ANANfF37NaY+M+jn1inH/jjV9peK/wDkWtV/69Jf/QDXxl+zZx8aNIA/54z/APoDV+dcRa5vly/vfqj5XN/97w/r+qPtyNeTkZHavKNf/Z8gu9eudV0DXr7w3LdMXngg+aNmJ5YDIK59M4r1yMc1JivucZgsPjoqGIgpW27r0fQ+lrUadaymtjxuy/Zr0VFlbUtRv9WuZBgzzPgjqOM59f0r0TR9AtvCvhm10uzDi1sbYQxeYxdtqrgbiep4610FMlhWaNkYZVgQR61z4XK8FgnKeGpKMmrN9X6t6shUKcE+RatHzF+yrr1npl/4xW7uYbXfcqVaZwuQGkJPJ6c19LWd3BfQLNbTRzwt0eJgyn6EV5hcfsweALm5klfRt287mQzybfy3V6P4d8O2HhXRrbS9MtktLK3XbHFGOFH415mRYPGZbR+qV0nGLdmnq7u+xxZdTr0Kfsqq0Rk/EPwSvj3w8+ltdGz3OriVV3dO2MirnhLw5/wi/h2y0sTG4FtGI/MIxux3xW5ilr3FhKMcS8Wo/vGuVvyWtjvVKCqe1tqcn8RPAdr8QPDz6bczyWkiuJYbmHG6Nx0PPX6V5VL+zn4jli8pfHEkaDo/lOWP4b6+gCM0YFcOMyfBY+p7XEQvK1t2vyMK2Do15881r6nmHw3+AehfDrVDq6z3es64yFWvr987M9fLQcLn8TjjNbnxT+Hi/EnwXd6H9rNhLK6SR3Kru2MrZ6cdRkfjXaUVvTy3CUcNLB06aVOV7pdb7m/safs3SSsmcn8OvBR8A+DNM0E3j6gbNCpuZBguSxPTJ9f0rA+I/wADNI8f6pFrCXNxo2tRqEN5aHHmgdNw7kdMgg44zwMel0VpPA4aph44WcLwSSS9NhOhTlSVJrRHiei/s0WkerQXuu67ea+kDB0gmG1WbH8ZySw9q9kWOK0hGAsccYwAOABVisfxZ4V07xpoVzo+qwG4sLjb5kauyE4YMOVIPUCssJl2Gy+MlhIKLlv5vze5MKMKCbpLU8C/aO1iz1Lxf4HghkjlcagkbAOOAzp1/KvpCAYjT6CvMtI/Zs8AaNf215b6BE1xbSLLHJPLJKVYHIPzMa9RAAFeblGAxWGr4nE4trmqtOy6JKxyYShVp1KlWr9qwtFFFfSnqBRRRQAUUUUAFFFFABRRRQAUUUUAFFFFABRRRQAUUUUAFFRSS7SB615b46/aA03wJ4muNFn0jUL65gRXY2gQ5DLkcMy1w43HYbLqaq4qahFu133Ma1WFCPPUdker0ma4r4c/FC1+JFhdXMGkavpIt2CldUs2g35zgoTlXHHUE1reJ/GWl+DtKlv9VuVt4UGQpPzOewUdyatYvDuh9ac0qe93ovxGqtN0/a3906CiuN+HXxP0z4l2F3d6ZDcwpbSmF1uVCtnAORgnjmutMmT1rTD16WLpKtQlzRezWzKpzjVjzwd0S0V5Brf7R+k6Pq1zYR6Nql+9vIYme2WNhuHXguD+lQ2v7TGky3McU+h6vbhztLNbg7PdsE4FeGuIsqc3BV02nbZ79tjg/tHC/wA/key0VHDMJo0cdGUMPxp5OK+iTuro9IM0VyXxE+JGkfDTw+2r6tJJ5W8RxwwKHklc/wAKqSM/nivLo/2wdAiYS6h4Z8RaZpzEBb65sx5RJ/2lYj9a8rF5tgcDUVLEVVGXbr87bfM5quJo0JctSVme+7hS5rD0jxVpuv6Bb61plwt/p9xEZYZYTkSAZ4HvxjFea3X7S2nWokkk8Oa1BCgyXuIFjA5xyckD8avF5ng8DSjXxFTlhLZ6tP7kOtiKVCCqTej6nschxXif7XHPwavD6Xlt/wCjBXpXg7xna+OPDVrrVnDLDbXIbYsoG4YYg5x9K81/axO/4NXo7fbLf/0MVyZvUhXyevVpu8ZQbT7poyxbVTBTnHZo5j9ifA0DxTz/AMvyf+ilr6WHSvmb9iM/8SPxWPS+jP8A5CH+FfTI6VzcM/8AIow/+E48n/3Gn/XUWm7qbK23BzxmvJfh5qvifxSfE8l1rnlR2ur3Nla5tkbZHG20HjGfxr2MTi/q9SnSUHJzula3RX1uepOooSUbas9dzxRmvKvEc3jDwnp8uoJ4gi1gQFXNvJapGrpuG4bh0OM12XiHVtSstFlutKt0urzgJHKSFGepOOwrCjmMKntVODjKmrtPe3lb0FGqpKTatynR0Zrj/h54h1DXtJml1IwtOsxUNApCkYB7k9M4roYtUtbiaaO3vIJpYTh445AzIfcDpXVg8XTxuHhiKd0pK6vuOlVjVpqpHZl/NGR615r4W8aa7ffFLXtB1COEWFvbrPbMikNg46+vU/lVv4l+N9Q8Nw6bpmjQxza5qrvHbmY/JEqjLSN7AVzU8yo1MLPF2ajFtO610djGOKpypOt0TsegUVx/hrSfEdnbRNq/iBb6dly6xWaRqp9jkn86wvht4k1m/wDHfjjR9UvDeQaZcRLakoqlUeIPjgDPXvSeP5XQU4Ne10W2ml9S3WUZQi18R6Jd/cP0NeH/ALMBBl8Ze2osP1avbrkloj9DXiP7L4Im8Z55H9pN/Nq4cwX/AAqYL/t//wBJOHFf75R+Z7wOlLSDpS19IesFFFFABRRRQAUUUUAFFFFABRRRQAUUUUAFFFFABRRRQAUUUUAFFFFABRRRQAUUUUAfg/8A8FWv+T1fF3/Xpp//AKRxVe/4JJf8nl6N/wBgi/8A/RdUf+CrX/J6vi3/AK89P/8ASOKr/wDwSS/5PL0f/sEX/wD6LoA/dGiiigAooooAKKKKACiiigAooooAKKKKACiiigAooooAKKKKACiiigAooooAKKKKACiiigAooooAKKKKACuZ+J//ACTTxb/2CLv/ANEvXTVzPxP/AOSaeLf+wRd/+iXoA/mGj6JX7o/8EkP+TN9K/wCwxf8A/owV+F0fRK/dH/gkh/yZvpX/AGGL/wD9GCgbPs6iiigQUUUUAFFFFABRRRQAUUUUAFFFFABRRRQAUUUUAFFFFAEUnevEdL/5OP1T/r1/9ppXt0nevEtMH/GR2qn/AKdP/aaV8znf8XBf9fY/kzyMx3pf4ke2w9BUtRQ9BUtfS9T1wooopgFFFFABRRRQAUUUUAFFFFAGP4q/5F3VP+vSX/0A18Xfs1t/xe7SR/0xn/8AQGr7R8Vf8i9qg/6dZf8A0A18Wfs1f8lw0r2hn/8AQGr864i/5HGXf4v1Pls3/wB7w3r+p9zx9akqKKpa/RmfVMKKKKQgooooAKKKKACiiigAooooAKKKKACiiigAooooAKKKKACiiigAooooAKKKKAMzxB4gtfDek3Oo3jFbe3Xc2O+SAB+ZryqX4868zhrf4fapLaNzHdJKrow7HC5YZ+ldd8ZfDep+Kvh7qlhoqJLqTbJIYZJAgkKMG25PAJxxnAzjJFeZeD/jlY+Eba10bxlo2peErq3VYVmvYCYHIGMiRQQRkds/Wvjc2x2KoYyNFz9lRcfi5b+9fa/TQ8fFVqsa6pqXLFre3U9P8DfEG58YafNcXGjXWktG+wC4Urv+gODx9KpRfFkS/E+fwf8A2cVMUXmG6MucnaDjbj3rpba/tdXt7e6s5orm0mAdJ4GDI465BHBrx+FU/wCGmb9sfM9uRn6RJz+lXmGIxWCoYKMa3NKdSMZOy95P8jTFTq4alRtK7bSb8j3ZrkEgA81xvhv4np4g+IWv+GDYtA+mRpIJy+RJkAnjHGMiuodQoyOTjrXkHgBll/aC8ZnYA32YAtj08sV6Ga4qthsVgqVF+7Um1L0UW/0OnFTlTnSUHo3qdt49+Jy+Br/QoZLM3MOpXDQtKr4MeFznGOetcjrP7Q1/Dq1zZaN4J1bWordtr3UIzHnGT90MeOnSs39oSJbvUvBdoclZr+ROOo3BV/rXr2l6dFp1jawQr5cSxhQqcDpXmyqZjjc4r4OjW9nRpxi/hTfM/U5JfWK+JqUqc+VKxwnhb9ofRtZ8N6rqOqWs2j32mS+VcaY/zTgn7oCkAnOfaubn/arcIbqPwNraaWD/AMf06YjPvuUMvr/FXO33hu21L9qrUrO5gWW1ltI5pI2HyuRCF5/OvoWexhntWsXiRrV0MZi2jZtxjGK48BWzfMqdenGuoOjKUeblvzta3aei87CpfWq8ZQ57OPluUvBvjbTvHegWetaZJ5lrPxg/eRh1U+hFeK+KIIbj9qiyjkjEglgiBDDK7hExyfzFP/ZdD6fceMtKUsba1vh5YPbl1/koq1ryKf2m7JyfmFtHj6+U3+FefjcdLMcnwWJrpXdWCfyk0/yIrVXWwkJTWqa/M92EG3YDwBjpXlOvfBWTX/EWp6rrmq/b1nkZ7W2VTsiQZ2ryeoGORjNevKAyDPWobqIfZpm7iNgPyr73H4GhmFH2eIV4pPS9k9Op6tejSr0+WotEeG/snyl9J8TRH/lnqJGexGxR/Svcbr92hcHAX5iT6DmvDf2TsHRvEJA63uW+u0Zr3We3FzBJE5O10KHHuMV4fCfLHJqPs1Ze9b/wJnBli5cIow8zwX4AwR3mveKtRlQLcTXLJDu6lTI7Ej8wK9z8gBArRK+OpxzXjU37L0b7/L8Zarag9Ps6KmOf1rhfGHg/x38C7Ya7pvjGfWdJjlQTRXkQygLgDcPmyD0yMHmvCwFXHcPYBxxeE5oxcpSkpJ6N3vbe5z4edXAYflq0rpPVo+odQvf7N024uhGZTDE0giTqwUZwK4b4b/Giw+JN5c29rYXtoYADvmjwrevNdL4H8TQeNPDGma7AAq3kIcoDkK3Rh+ea1xaQxHZFDHCp5OxQM19xF1MXOjicPV/dNXat8Sa0s+h61pVZxq05+7bY+fvHVr/wsP8AaR0bR7qJZtJ0W0M5hcZVpCCSWHfqor2vUtCsdU0mXTLyzhuLOWMxNC6AqVx0Aryvw1Ep/aa8VllIb7EMMf8Ach6V7OwBByMjFfP8P0Y4qGLrYhc0qlSad19mPupHLhacazqTqK9219x83/s0xSeCPHfj34cebI+nWE5u7FHYny1yMgZ/2Xj/ABzXrPxYjM/ws8TFlEjCxkQbu2VxxXl/gNg37XPjLZ92SyYDHcgQZr1f4sfufhf4kbp/orD868/LZOrkGLovVQdSK9FczoSUsFVp7qLaRl/ANzJ8LNGHZUdcfRzzWP8AtToT8Hr0DvdQf+hitv4CoF+GmlY4GHP/AI8awv2r3MXweunBxi7t8/8AfYrul/ySq0/5cr/0lClL/hNfocb+xLgWHi9NwJ+0QNj0+Q19Oq1fE/7MXxl8I/DE+I08TaqulPfzQ+Q0kbsrhEIPKg8896+hF/ad+GzoGTxHDIp6ERyHP/jtYcO5ng6GVUKdaqlJLZvzObKa1OGBgpPY9RlIbA968t+EKFLfxaM8HX7tl9slSf1zSj9pT4dsw/4noUnpugkAP/jteX/Df426DoWt+LINQnkGm3mpy3dtcRxMy7XJ4IHzDoO1deJz3LY4vDSVZPWWzva68javjqFOtSknfc9Y+Inh2ysdI1TV7i9NnHLbeXJC0m1JG559yeBgfhXT+Ezc3nhXQru63JcSWUUkqMMEsYwSCPXNeRr8SPhTdXS3b3b3bwv5qrcNcyBW9QjZA6+ldbH+0L4K2xhdQkIAAB8l+PyWscNmWWUMZWxTrRjzpK1+19fxNFi8OqsqnNa6NP4TNDLot80J3Qm7Y5B74HH5Y/Ou2tZLSfzxbGImOQxy7MZDDscd+a8p0v48+ANNjkhs5ZLSMOXwLZwGY9+BntTdN+PfgOyuL2SO7aF7mXzZCtvJ874Az932FaYLN8twdGlQeIi7X1Jo4rD0YxpqWxuWcap8er+MAgtoaucdMedgH9DVPxh4Znuvi5p+s316lno0OnLa2xeVU33TSPlRk5YlccD2rKX49/D+LXZNUe+eK7kt1tfNNtLnyw5YDO3HUmrWoftA/Dq9tvKuNUhuI2/hkhdwPf7vBrGeYZNiMNOhVxCcZNuydr63IdfCyg4863uXNAkm074uTWEGs32o2L6Sbqe3nujNHbyCXauAfulgTx/s034aQsnxY+I0jdWmtQT/ANsuP0xWDY/H74VeHrSV9MvArkbDDa2cpd+eBjbk8muQ+HP7QPhnR/F/izUddvhpkeqTJNbtMjfcVdoDYzg4wRxXLUzjARqYOn7VXi3ez0Ss9yK+Nwyq0o8/X9D6dlX902K8P/ZmXF7459Bqzrj6M3+Nak37VfwzEBKeKLbOOCySAH8SuKzf2XL621qx8W6nY4eyudXlaKYciUE5BHtgivRrY7DYzNcJGhLma53pta1tR1a1Oti6XJK+/wCR7oOlLSDpS19ge2FFFFABRRRQAUUUUAFFFFABRRRQAUUUUAFFFFABRRRQAUUUUAFFFFABRRRQAUUUUAfg/wD8FW/+T1fFv/Xnp/8A6SRVf/4JI/8AJ5Wj/wDYIv8A/wBFiqP/AAVb/wCT1PFn/Xnp/wD6SRVf/wCCSP8AyeVpH/YHv/8A0WKAP3QooooAKKKKACiiigAooooAKKKKACiiigAooooAKKKKACiiigAooooAKKKKACiiigAooooAKKKKACiiigArmfif/wAk08W/9gi7/wDRL101cx8UP+SaeLf+wRd/+iXoA/mHj6JX7o/8EkP+TN9K/wCwxf8A/owV+F0fRK/dH/gkh/yZvpP/AGF7/wD9GCgZ9nUUUUCCiiigAooooAKKKKACiiigAooooAKKKKACiiigAooooAik714npw/4yN1T/rz/APZEr2yTvXiumc/tG6r/ANeQP/jiV81nX8TB/wDX2P5M8jMN6X+JHtUXQVLUURyKlr6TqewwooopiCiiigAooooAKKKKACiiigDG8V/8i7qv/XpL/wCgGvi39mjn43aWf+mE/wD6A1faHiw/8U7qo/6dJv8A0A18Yfs0rj426Z7W9wf/AB01+c8R6Zvl3+L9UfMZt/vWG9T7liPFS1BCamr9HZ9S9xaKKKRIUUUUAFFFFABRRRQAUUUUAFFFFABRRRQAUUUUAFFFFABRRRQAUUUUAFFFFAGZq+p2ulwebd3EdtGWChpXCgnsMmsTVLfTfEenTx6iLe6sXQ7xMVZcfj71d8aeCtK8d6SNN1i0F1aiQTKAxVkcdGBByDzXns/7LvhG8BS4n1mWFusTalKFx6YBHFeLjljpOUKMIzpyVrPv5+RxVpV+bljBSi+5x/7O5m0/xv400jS3kPhSGXfbQly0VvLnBVM/dDfM2B7dKZ401iLwX+0Xpl7eSCG1v4xh5DtUKw2E5PXBxn0zXuvhXwNo/gjSF0zRLGKwtAxcpGOXY/xMTyx9ye1VPHHwx8PfEOxgttc05LwQMXilztkjJ4OGHOD3HTpXgLh+usooYR1L1qUuZPpe97d7dDjqYKcsNGCfvRd1/kTXPiXSbOwN3NqNtHalc+a0gwR2x6/hXjfwa1pNb+NXie6QHE9tI6nr8okVVP4gZrr7D9mPwBptws0egxzlG3AXEjOufXaTj8xXdeHvBGi+GLiefTNMt7Ke4AEskK4LgdB9K2qYPNcfj8LiMSoQp0W3ZNtttW+5GvssRXqU51LJRPLPjYVTxd4EV+942M9juTH8q9jtxiOMkdAKy/Enw/0fxVqGnX1/bGW50+QS27ByNrA56d630gCgD06V6+CwVXD5hisXO3LU5bd9FY3w9GdOvUqS2lseDqEX9qa+c5Lyaeqoewwq5/lXtzITweD61kx/DzRYvGM3ihYJP7XljETO0rFAuAOFzgdBW+1vuLE857VOUYGtgVifatP2k5SVuzS/yLw1KVJ1HJ/EzwL9nqQS+I/G7RjaDfEN/wB9yUmsjP7SsDA87I0x7eU3/wBevWvC3w70bwXdalJpNs0DajN59wzyFyzc8DPQcnj3rxDx5r0Hhv49C/nfaITGXHU7fLIyB9DXxOYYOeU5TgqFb7FVN21Vm5S/U8jGr6ph4Rk9Ob9T6TX7oqLUXCWE/b9238qw/CPjvRvGPnppd7FdyQKrSohyVB6Zrobi2S7t5IZBmN1KkZ7Gv0uFWGJoc9J3TWh7ilGtSvB7nhv7KyFND13jbm+bjv8AdWvcnlWFGd22ooLEnoAOprnvBfw80jwEl1HpETxRXMhlcSSFzuP17V0U9slxBJDKgkikUo6N0YEYIrysiwNXLcvhharXNG+22rbObBUp4egqct0c3pnxE8Na7HvstbsblCN37udSce/PFeX/ALRvjvRpfAdxodldQ6lfX0iRmK2cSOmDuHA7kgAD3q/e/sn+DLi4keE6jaQsci3huiI19gMdK3/B37PPgjwVfw31jpAku4iGWW6leXaw6MAxwDnvjNeNjaOeZhh5YKShGM9HLV+71su9jml9bxEJUpxST63Lvwd0C48JfC/QbC/UwXMcBlnjbgxbiXKn3GcH6Vs+F/H+g+Mbq9h0e/ivZbQgTLG2Sua3p7SO5hlilQPHKpRwe4I5rkvA/wAI/DXw3u9QuPD+nixe/IafDs245J4BJA6npX0cKFbC/V6GGa9lFWlfeyWlvO+52qE6Sp06XwrRnlHxIu5fhj8cdM8V3JH9h6uhtXkII8qUBVKsenIAYeuGHavWdQ+Ivh7R/Dcut3GqW/2FELh1kDbvQDHU1seKfCOleNdBuNI1m0W8sJ8FoySCCDkMpHIIPcV5rY/sn/D2yvPOfTZ72EEt9lu7l3iz6lc8/jmvE+pY/Lq1Z5coyhVfNaTa5ZPd+ae9jldKvRqS9hbll36HK/s36PceJPGXiT4hz28kFvqXmxWbS8eZGZQcjvj5Fr0z41MIvhJ4kYnGbfH/AI8K7a1srfTLKK0tYI7e2hQJHDCgVVUdgB0HtXkHxx8f6HqHw91vS7TUra5uA6wyxJKNyMHBII7EY6VzYiFDIciqYfEVFzSjLXvKV27fN/cVKMcHhZQb1d/xN74EZ/4VfopIxujY/wDj7VzH7Xr7fgpfn/p6tv8A0YK6v4GkTfCzQZl+7JBuH4kmuS/a/wA/8KVvB2N5bA/9/BXRPXhlf9el/wCkoyeuWfI4D9kDwjpHiPw1rzapplpqJivwFW8t0lABQf3ga+i1+HPhXAUeGtKAHpZxj/2WvE/2JVH/AAi3iYgH/kIKP/IS19KhQK14doUZ5Th5Tgm+XsTldOm8JG8bnLH4aeE2OW8OaYe3/Hqn+FH/AArPwmcZ8OaYcdAbVD/SuqxRivolhcMtqcfuR6fsaP8AIjlD8MfCO4MPDWlqR/dtIx/Smn4V+D2bJ8M6Yf8At2X/AArrcUtH1ah/z7X3Ifsqf8qOQb4VeDzyPDWmqR/dt1X+Qpf+FV+EAOPDmnj6QiuuopfVMN/z7j9yF7Gl/IjkR8LPCIGB4b07HoYFP8xQnwq8Hx5x4Z0vB67rVG/mK62lprDYdbU19yB0aT3ijj/+FTeC9+8eFtJVvVbRB/IVInws8HoMDwxpJB6hrONs/mK6yij6rh783s1f0QewpfyL7jkT8JvBDklvCOhnPXOmwn/2Wug0nRbDQbNbTTbK3sLUEkQ20SxoD9FAFXqK1jThF3jFItU4Rd4oKKKK0LCiiigAooooAKKKKACiiigAooooAKKKKACiiigAooooAKKKKACiiigAooooAKKKKAPwg/4Kuf8AJ6niz/rz0/8A9JIqv/8ABJH/AJPK0j/sD3//AKLFUf8Agq5/yen4s/689P8A/SSKr3/BJD/k8nSf+wPf/wDosUAfuhRRRQAUUUUAFFFFABRRRQAUUUUAFFFFABRRRQAUUUUAFFFFABRRRQAUUUUAFFFFABRRRQAUUUUAFFFFABXMfFD/AJJp4t/7BF3/AOiXrp65j4of8k08W/8AYIu//RL0AfzDx9Er90f+CSH/ACZvpP8A2F7/AP8ARgr8Lo+iV+6P/BJD/kzfSf8AsL3/AP6MFA2fZ1FFFAgooooAKKKKACiiigAooooAKKKKACiiigAooooAKKKKAI5B1+leLaON37ROse1kP/QUr2mToa8W0YhP2h9Zyfv2oAH/AABP8K+czlXqYT/r5H9Tycf8VL/Ej2iKpahTNS19HY9d7i0UUUCCiiigAooooAKKKKACkboaCcVH58bs8aurOmNyg8jPTNAXMfxUc+H9U/69Jv8A0A18Z/s15X42afn/AJ9p8f8AfNfZHi8MvhbWj0IspyP++DXx9+zeq/8AC47Fhz/os+3/AL5r8+4jjfNcu/x/qfN5sl9aw/r+p9qxPt78VFaeINNvdQnsLe/tp723GZbeOUM8f1HUUkZzGe1eGfCEh/j54/YELjK/XlR/SvrMwxs8JiMPRjG/tZNellc9vEV3SqU42+I+hQwNBIFRxgBeSM01z8wGcV61tTrSTehLvFLkHvXyn8V7zxb4g+OkvhfSPEd7oiXIjMDwzMEQeUWY7QeeRXtHwn8Aa54B0+4h1rxrqfjC4nKlXv4o0WDrkJgbjnP8THpXzuBzWePxFWlCi1GnJxcm1a67I86hiZV6koRhona56JmjNeL/ABW+MOo6e+oaF4St/turwjy5rgjK27Ec49SBWf8AsyeK9b8T22uNrGqT6iY5EWMztkoecgVnLP8AC/2jDLY3cpX1+zp0v3IePpfWVhle7+494zikMijqQPrURk2AbhweM18x2OmeKvi58QPF8dr4qvtEstLvGhjeGZ8YDFQAoYD+E8105pmcsudKFOk6k6jskmlsrt69jbE15UHCMY8zkz6gEik4DDP1p9fP1v8AA3x/azJJF8RpJAhBHmCQ5+oLGvebRXht4Y5HDuqAMw6E45NbYHFYnE831jDulba7Tv8AcVRqVZ39pDlsWKQsB1NIHBPBz9K8a+PPxF1fRzp3hXwy5TxBqxz56EA28fr7E9BW+OxtLL8PLE1tl0W7b0SXm2aVasaVN1H0PZQ6noQTRu5r5quPgV8RLPTjqGnfE7UJtaCB/styWa3ZhztyWJ9s4/Cu/wDgd8VLvx/4Yni1i3Fn4l0iU2mpWw6BwSAwHocH8jXm4TNp1MTHC4ui6Upq8btO/lp1t0OejiXUn7OpHlb2PVfMGcZGfrTgc9Oa+bPiF4C8WeH/AA5q2uL49vrqO1iaVYJUKZAP3Wbfz6ZAFei/s66jeal8LtOmvrua+umkl3zTuWY/OSASfTOPwpYbNp1cwll1ai4SUeZNtNNXt0JhipPEvDzhZ9z0+iiivoj0AooooAKKKKACiiigAooooAKKKKACiiigAooooAKKKKAEIrG1TwZoWt3JuNQ0exvLggAyzW6OxA6DJFbVFRKEZq0ldEyjGatJXMvRfC+keHBINK0yz04Sff8AssCx7vrgDNalFFOMVBcsVZDSUVZIKKKKoYUUUUAFFFFABRRRQAhXIrnLz4a+E9Ru5bq68M6TcXMpLSSy2UbM5PUkleTXSUVnOnCokpxT9SXFS3RXtrG3sbSO2toUggjAVI41CqgHQADoK8U/bAQn4OXAAzi9tyf++69yPSvE/wBrkZ+D9z3/ANLt/wD0MV42ee7lWIS6Qf5HDjvdws0uxy37EnHhXxP/ANhIf+ilr6Wr5q/Yn/5FbxR/2Eh/6KWvpQVlw7plOG/wowyr/c4C0UUV9EeuFFFFABRRRQAUUUUAFFFFABRRRQAUUUUAFFFFABRRRQAUUUUAFFFFABRRRQAUUUUAFFFFABRRRQAUUUUAFFFFABRRRQAUUUUAfhD/AMFXP+T0/Ff/AF5af/6SRVf/AOCSH/J5Ok/9ge//APRYqh/wVc/5PT8V/wDXlp//AKSRVf8A+CSH/J5Ok/8AYHv/AP0WKAP3PooooAKKKKACiiigAooooAKKKKACiiigAooooAKKKKACiiigAooooAKKKKACiiigAooooAKKKKACiiigArmPih/yTTxb/wBgi7/9EvXT1zPxP/5Jp4t/7BF3/wCiXoA/mGj6JX7o/wDBJD/kzfSf+wvf/wDowV+F0fRK/dH/AIJIf8mb6V/2GL//ANGCgbPs6iiigQUUUUAFFFFABRRRQAUUUUAFFFFABRRRQAUUUUAFFFFADWGQa+a/F/iHUPA/xo1HVm0m7uotqrGY42KSAoBwQCMjFfSuKY8QfqoP1FeVmGAWPhCPO4uLTTXdHDi8M8So2lZp3PCY/wBpokYbQJ4fTzN2T/47U6ftIMwH/ErA+pb/AAr2l7KJ/vRI31UGo20m0braQH6xL/hXI8Dj+mK/8lRg8Pi+lb8Dx7/houTP/IMj/Nv8KT/houX/AKBcf/fTf4V66dDsD1sbY/8AbFf8KP7C0/8A58Lb/vyv+FR9QzL/AKC//JUR9Vx3/P8AX3HkX/DRcp/5hcf/AH0/+FKP2iZf+gXH/wB9N/hXro0LT/8Anwtf+/K/4Uf2JYf8+Ft/35X/AAp/UMy/6Cv/ACVC+q47/n+vuPJR+0PIf+YWn/fTf4Uo/aFlP/MLT/vpv8K9a/sSw/58Lb/vyv8AhR/Ylh/z4W3/AH5X/Cl9QzL/AKC//JUH1XH/APP9fceSn9oSXGf7Mj/76b/CgftEMgYtpakDrtZv8K9a/sWwH/Ljbf8Afpf8KX+yLIf8udvj/rkv+FL+z8y/6C//ACVFLDY1b1l9x5Bc/tKRwRhjoE0nus20fqK8N+KHjDVLrXrnxLp13f6Dd3xAMdrO0RcAALuwRnhepHavtVbSKIgRxJGO+xQP5V4t4x/Zyl+IXxB1LWdc1lodEZUjtdPshhwAuCWcjAySTgD8a8LOsnzXFYeMKVfnlfayj87rsc2PwmKq0oxjK7v00Pnu1/ak8caPpU2kX7W2vQ3MbQCWdMTKCCCcjrwe9Xv2aJvM+LulOOrRTrjrjKGvor/hR/g/wT4P1eHTNFheT7FOWu7kedOT5Z53tkj8MV8+/s0Js+LWkqw5EEx/8dxXzeKwWYYLHZfDGVud8yt5a7XPExeHxGHr4dV582v3ao+0IzhG9q+TNMg17XPjR4w8P+HdQOk3d3dStc36D54olYcj35AGP71fW6qNrA188fB1Ix+0X48kfh/3ygHv+8TpX2nEtCGJxGBpyk1ep07W1XzWh9LmEFUnSTe7NHV/2ary10q4u9B8b+I4teVCyvd3pZJmHODxkZPua0v2ffipqPjXT9U0PX4yniLQZFhuJDgeapyMn/aBUg17IcswbOBXzb8E7Z5P2iviPfQnNiyOpA6bzKuD+jfnSq4allWa4T6q3FVeaMo3bTsrp631RU6awtem6T30aJvE6MP2t9ElB3BY42IHoYWBz+pr6V2AHI6DpXzfrxJ/ap05mONsMSAev7qT/GvpJfuiq4elepjUtvay/QrBv97Wt3MmTRbG0897eyggM255mjjALnHU4HNeJfsqR7JPFb4AV7lSoHQLlsfzr367wLaX/cb+VeBfsqA+V4j3HJ89R/OlmMYUs3y+MEldz2X93/MxxTSxdFJdz3yfPkOyjcwUkD6CvlT4dfFbR/hvqfiObUIrydtSumupUihLFfmbHXGB81fV6ZA4qKS3icENAj+xUEflXp5nltfGV6GIw9b2cqXNbS97qx24jDSq1I1YSs4nj/hv9qLwH4gvVtGvJNNlLBV+2IVXJOB8wBA59a9dukN5ayQxPsMkZCyA9MjAIrx/9ovwTpF18NdV1JNNtINRttjxTpCqvneMgkDkEZ4ro/gJq9zq3wq0Oa7YySojQhz1IVio/QVwYLG4ynmU8qx0lN8vMpJW62aaMqdeoq7wtZ3bV0yD4X+AfFfhK6up/EHiE6mJeEt42Zk69fmHHHpXG/Zf7Y/aa1NplyLCBfLZvTyl6fi/6V78VywPSvB7S5h0/wDaU1XzW2Pcx+WFY9P3UZGB77a83N8Hh8BDAULv2arRbu2+71fqY4mnChTp018N0e3BMJgDt0FeDfDwDSf2l/HVlHxFd2onKDpkeWc/XLt+de9DLIe3FeE+BUbU/wBpjxPeRgmCOyZHftuBiXH5g16OfuSxeA5Pi9p+HK7/AIHRi58tSilvdHZ/GKIf8Kp8TByQDbkA++4YqP8AZtG34XWQ/wCm0n86m+Ov7v4Q+I2/6ZoPzkWm/s4Y/wCFUaUw53PKc/8AAyKJq/E7l/05/wDbkZ15c2Zx/wALPUqKKK+uPSCiiigAooooAKKKKACiiigAooooAKKKKACiiigAooooAKKKKACiiigAooooAKKKKACiiigAooooAKKKKAEboa8T/a3/AOSPXX/X3b/+jBXtbdK8U/a3/wCSPXP/AF+W/wD6MFeDn/8AyKcT/hZ5+Y/7pU9DmP2Kf+RW8Uf9hMf+ilr6TFfNf7FP/Ir+KP8AsJj/ANEpX0oKy4e/5FOG/wAKOfKP9yp+n6i0UUV9GewFFFFABRRRQAUUUUAFFFFABRRRQAUUUUAFFFFABRRRQAUUUUAFFFFABRRRQAUUUUAFFFFABRRRQAUUUUAFFFFABRRRQAUUUUAfhD/wVc/5PT8V/wDXlp//AKSRVf8A+CSH/J5Ok/8AYHv/AP0WKof8FXP+T0/Fn/Xlp/8A6SRVf/4JIf8AJ5Ok/wDYHv8A/wBFigD9z6KKKACiiigAooooAKKKKACiiigAooooAKKKKACiiigAooooAKKKKACiiigAooooAKKKKACiiigAooooAK5n4n/8k18W/wDYIu//AES9dNXM/E7/AJJr4s/7BF3/AOiXoA/mGj6JX7o/8EkP+TN9K/7DF/8A+jBX4XR9Er90P+CR/wDyZvpf/YYv/wD0YKBs+z6KKKBBRRRQAUUUUAFFFFABRRRQAUUUUAFFFFABRRRQAUUUUAFFFFABRRRQAUUUUAFFFFABRRRQAUUUUAJikZeKdSHpQBieLFA8L6wB3tJh/wCOGvjb9mpifjHpS9cwTg5/3Cf6V9l+LP8AkWdW/wCvWX/0A18bfszL/wAXo0wHtbzn/wAdNfnnETvm+Xx/vfqfJ5xd4zDrz/VH2rGNxx/OvmaH4fePtC+KWveLNJ0gGNbybZHNKP8AS4mPYZ6dx7ivp9Ixk1KIxnPevrcyyyjmTpSqSadN3VnbU+jxWGjiOW7s1qeHah8TfiDq1nPYaT8Pry11OQFBcXUypDH77iP8etb3wW+FU/w70W+udUmjuNf1ab7ReNCSY064RfUDJOfUmvVNuRgnNN8sBgcCsMPlKp4xY2vVlUlFNRva0b728wp0OWSqVJczWx8362y/8NU2CswAyv6QH+tfSK8jNeAfEj4PeM9W+I7eI/D81jFsdZIJZpWDKQuMEBTx1/OvRvhnaeOoPtp8ZXGlSIQotk04PuXruLFgPbpXjZIsRhMViKNei0pzlJS6WZ5mCdWnWqQqQerun0sdjqIc2M3lqXfY2FHc4rx39nPwrq3hqLW11PTZtPMtxlPPGC/Xke1e2AYo2jOe9fRYnL6eJxVHFSk06V7ed1Z3PRqYaNSrGq3rErXbTx2kzWyK9wEYxo5wrNjgE9hmvE5PjH4z0aVodW8KyfaFO0+TE4jz7Nzx717qQDSFKWPwVXF8rpVpU2u3X1Kr0qlW3JPlPnDxK/j/AONC2+kvoR0LSfMDPcSNhSvOTk8sQOgA69a9u8MeGYfB/hmy0fTlY29jDsj3n5nbrkn1J/nXQ7B35pQMVy5bk9PL6tTEzqSqVZ6OUt7LouyFSw6pydRu8npc8k+DPinx34g1jxHF4w0c6XbW822ydk2+YuT0554xzimfGr4cahrX2PxP4eTdr+nEboVwGuYc5A92U5I9iw9K9d2DOe9LitXldOrgngq8nNO7u91rdWfl0JeGUqLpVHfzPBLb4o/EG80v+zrbwRdDWTlPtExEcI/2vm6ZxXafCD4Zv4F0u6u7+RLnXdRdpbuaMkrksTtXPYZ9P6V6MVB6jNI6nqOK58Nk7p4qOKxFaVSUE1FOyUb77bu2lxUsNyNSnLma2PMP2hy0fwa8QBPvlYuD6eamf0zTv2c4hF8IdBVTkbZDn1zI1ct8TfCXxR8bW+raQtpor6XM5+zSLdurhAfl35Xr9K9H+EXhG98EfDvRdF1F4pL60h2TNCSULZPQkCuDCvEYnO6mInRlCChypu2r5r6eRxx9pVx3tXBpJNHZUUUV9ieyFFFFABRRRQAUUUUAFFFFABRRRQAUUUUAFFFFABRRRQAUUUUAFFFFABRRRQAUUUUAFFFFABRRRQAUUUUANbpXiX7XP/JHrj/r9t//AEMV7a3SvE/2uf8Akjlz/wBftt/6MFeDn/8AyKsT/hZ5+Y/7nU9Gcx+xP/yK3in/ALCg/wDRKV9KCvmv9iTnwl4pP/UUH/olK+lKx4d/5FOG/wAKObJ/9xpen6sWiiivpD2QooooAKKKKACiiigAooooAKKKKACiiigAooooAKKKKACiiigAooooAKKKKACiiigAooooAKKKKACiiigAooooAKKKKACiiigD8If+Crn/ACen4s/68tP/APSSKr//AASQ/wCTydJ/7A9//wCixVD/AIKuf8np+LP+vLT/AP0kiq//AMEkP+TydJ/7A9//AOixQB+59FFFABRRRQAUUUUAFFFFABRRRQAUUUUAFFFFABRRRQAUUUUAFFFFABRRRQAUUUUAFFFFABRRRQAUUUUAFcz8Tv8Akm3iz/sE3f8A6Jeumrmfid/yTbxZ/wBgm7/9EvQB/MNH0Sv3P/4JHf8AJnGl/wDYZv8A/wBGCvwwj6LX7nf8EjP+TN9M/wCwzf8A/owUkNn2jRRRTEFFFFABRRRQAUUUUAFFFFABRRRQAUUUUAFFFFABRRRQAUUUUAFFFFABRRRQAUUUUAFFFFABRRRQAUh6UtIelAGR4pXd4c1QetrKP/HDXxp+zGQ3xssPa1n/AJV9m+JBnQdRHrbSf+gmvjH9mDn43WX/AF6z/wAq/O+Iv+Rxl3+L9T5XN1/tmG9f8j7gj6mpKjj6mpK/RD6thRRRQITGKWiigAooooAKKKKACiiigAooooAKKKKAEwKWiigAoqOWdIEZ5HWNFBZmY4AA6k14jr37VWgWmp3Nnpen32rJbuUe6gQeUSOuDkk/lXm43McLl0FPFTUb7d36I5q+JpYdXqOx7lSZrgPhp8XdM+JQvUs4p7a4swrSxXCbThuhHt1q18QPipoXw10+O51a4YzTE+TaQAPLJ9FyOODzVwx+FnhvrnOlT7vT8yoV6c6Xtk/dO2pMivDLb9q/QUnX+1NH1jR7WTHlz3dqQGz9OPyJr2HTdZtdasLa+sZ0ubS4XfHLEdysPY1lgszweYNxw1RSa6dfxJoYiliG1Td2jToriZvifpsXxIXwYIpm1H7MblpBjYo4wD35BrrWnBYKM5rsoYijiXNUZX5XZ+T7G8JRqNqL23LNMMigckDtXI6J8S9N13xtrnhiGOZL/So0klZ8bWDDPHOeMj868w/aD+IC2t3o2hQNcQP9oS5nk5QMo5UA8Z59PSvIx+dYXBZfUzBPmjHTTunZr5HFicbSw2HliG7pO3zPf80teXeFvjZpur+J7Tw41nqR1GVAfNW1ZoQNucs4yF/HFeoA5r0MDjqGY0I4jDyvFnRRrwxEOeD0FooorvNwooooAKKKKACiiigAooooAKKKKACiiigAooooAKKKKACiiigBrdK8T/a6/wCSM3Z/6fbb/wBGCvbG6V4p+13/AMkUvj6Xlr/6OWvCz7/kVYn/AAs4Mw1wlT0Zy37EX/IoeKf+wt/7Rjr6Wr5p/Yh/5E7xT/2Fz/6Jjr6WrDh7/kU4b/Cjkyb/AHGl6fqwooor6Q9oKKKKACiiigAooooAKKKKACiiigAooooAKKKKACiiigAooooAKKKKACiiigAooooAKKKKACiiigAooooAKKKKACiiigAooooA/CH/AIKuf8np+K/+vLT/AP0kiq//AMEkP+TydJ/7A9//AOixVD/gq5/yen4r/wCvLT//AEkiq/8A8Ej/APk8nSf+wPf/APoAoA/c+iiigAooooAKKKKACiiigAooooAKKKKACiiigAooooAKKKKACiiigAooooAKKKKACiiigAooooAKKKKACuZ+J3/JNvFn/YJu/wD0S9dNXM/E7/km3iz/ALBN3/6JegD+YVOi1+53/BIz/kzjTf8AsM3/AP6GK/DFOi1+53/BIv8A5M507/sNX/8A6GtJAfaVFFFMAooooAKKKKACiiigAooooAKKKKACiiigAooooAKKKKACiiigAooooAKKKKACiiigAooooAKKKKACiiigDL8Qc6NfD/p3k/8AQTXxf+y+P+L323/XpP8A0r7S1wA6TeZ6eQ//AKCa+MP2Xjn422nHW0uMfkK/O+I/+Rtl3+L9T5fNVfGYb1PtyM1LUMZ61NX6Kz6lhRRRSEFFFFABRRRQAUUUUAFFFFABRRRQAUUUUAFFFFAHjX7VWvXWjfCe7tLJitxqk8dkGBwQpyzfmFI/Gui+FHgLTPB3gbRoLeygjnNrG88qoNzuRliT35Jrmv2r9Ilvvhh9ujVyumXkV1IyDJSPlWY+w3c11nwu8a2XizwZps6TRiVIhFNGrA7HUYI+nQj2Ir45On/b8/rVv4a5L7b+9bzvY8f928e/bdtLnUGwtxK0sUaQsww7ouGYDpk14J8OdIPxA+O3i/xHqarcW2mv9iskk5C7SVBUdOisfq1fQEGoWs8rw20sVxKmN6xuCV+vpXgHw21a3+Hvxm8WeGdTlNtNfzC5tmm+VWVmYpsz1zuI44yuOtGeunOtgvaP9z7TXtzW92/lzbm2Mceakn8F/wDhj2nXPD+m+INLuNL1C1iuLWdSrI6AgZ7j0I9a8N/Znv7rwv438ffDme4lntdGuRc2LO2cRngj8jGfqWr3jXNa03w3pNzql/OsNvApZj1LegA7mvDv2brWbxL4z8eeNjbmK21C4+zQSN/HhiTj6DYPr9K0x7pRzrBLDpc75r2/lt18r7eY68aaxNJ0fi6+hJdSL/w1qWx8zaYAW+i17vnEgPWvnXxfqI8O/td6FHIdsV7p27LcAAq68H6rivonzIfKMjzRomPvlgBWPDtaNCrjaVdqLVSTd30drfkZ5bO066m9eZ/kjxHwSwH7UXjpFTDf2epLevEP+NV/2orVW8LeH7s/6yLUwgPcqyNkfnimfDDVI9Y/ae8ayxA+SLFgr44bBhH9DWt+1BalvBWikrkLrEQ590fivApONbhjFyjqnKbXW6573+44akI1Mtqq2nM3+J7PpVrHZafaxxKEQRrgAe1aI6VkaDqMGp6ZazRSAgxr8vccVrjpX6Pg5UpYen7H4bLY9+m4unFw2sLRRRXWaBRRRQAUUUUAFFFFABRRRQAUUUUAFFFFABRRRQAUUUUAFFFFACN9014n+15x8EdRPpd2p/8AIyV7Y3SvFP2vFz8DtT/6+7T/ANHpXiZ5rleI/wAL/I4cf/ulT0Zyv7D3/ImeKD/1Fz/6Iir6VFfNf7Dy/wDFD+JW451g/wDoiKvpSufh3/kU4f8Awo48m/3Cl6fqLRRRX0Z7QUUUUAFFFFABRRRQAUUUUAFFFFABRRRQAUUUUAFFFFABRRRQAUUUUAFFFFABRRRQAUUUUAFFFFABRRRQAUUUUAFFFFABRRRQB+EP/BVz/k9PxX/15af/AOkkVX/+CR//ACeTpX/YHv8A/wBAFUP+Crn/ACen4r/68tP/APSSOr//AASP/wCTydJ/7A1//wCgCgD9z6KKKACiiigAooooAKKKKACiiigAooooAKKKKACiiigAooooAKKKKACiiigAooooAKKKKACiiigAooooAK5r4m/8k28Wf9gm7/8ARL10tc18Tf8Akm3iz/sE3f8A6JegD+YSPon0r9zf+CRX/JnOn/8AYav/AP0Na/DKPon0r9zP+CRH/JnVj/2G7/8A9CWkhn2pRRRTEFFFFABRRRQAUUUUAFFFFABRRRQAUUUUAFFFFABRRRQAUUUUAFFFFABRRRQAUUUUAFFFFABRRRQAUUUUAUNZwNLvC3QQuT+Rr4p/Zgcf8Lp01ycFrafj/tnX2l4hRn0XUAgJY28mAO52mvzl8FeP734f+LINf0+NZbq1DxrFMuUYNwc857V+b8U1Y4bH4HETWkZNs+TzirGhicPVnsmfpKhJYntUoJr40h/bY8SvuB0bToyDwDvP68VJ/wANp+J1AzpGmn2O7/GvZlxZla+0/uZ2yz/AX+J/cz7JyfSjJ9K+ND+2x4n7aPpf/j/+NMP7bXikf8wfSv8AyJ/8VUrizLHtJ/8AgLM/9YMB/M/uZ9n0V8XH9tvxSP8AmD6T/wCRP/iqQ/tu+Kh/zB9J/wDIn+NUuKstf2n9zF/rDl/87+5n2lRXxb/w294q/wCgNpP5yf40v/Db3in/AKAuk/nJ/jVf60Zb/M/uYf6w5f8Az/gz7Ror4u/4bf8AFOf+QLpP5yf40f8ADb/ikf8AME0n85P8aP8AWjLf5n9zD/WHL/5/wZ9o0V8W/wDDb/in/oCaT+cn+NB/be8VY/5Amk/nJ/jR/rRlv8z+5h/rDl/87+5n2lRXxaP23fFR/wCYLpI/GT/Gj/htzxWf+YPpP/kT/wCKqf8AWrLf5n/4Cw/1hy/+d/cz7Ro5r4u/4bb8Wf8AQI0n8pP/AIqkP7bfiztpGk/lJ/8AFVP+teW95f8AgLD/AFhwH8z+5n2lk+lBJ9K+Kj+234u/6BOk/lJ/8VTT+294uUHOkaSfbEn/AMVS/wBbMtXWX/gLH/rBgP5n9zPs+7tor22mtrmBLi2mQxyQyqGR1IwVYHggjtXjc/7L/hy3uJH0XVNX0CJzn7Pa3JMa/QHP65xXiX/DcPizr/ZGk/TEn/xVH/DcPi4Md2iaOy/SQf8As1cWKz7JcdHlxEW7f3WZVs2yrEW9rrbyZ9QfD74Zad8OobsWE13eXF2VM91eS73fGcDoAByegHWl+Inwh8N/FCC2/tq0cX1rn7NqNtIY7iEE5IDjqPY5HfGea+YV/bm8S7Ru0HSwf9ln4/Wk/wCG5/FDZCaHpRx6mT/GnDP8khQ+qRg/Z9uV2L/tnLPZ+yT930Z7YP2X9Gu3jj1bxF4g1yxjbclneahIU+hIOSPxFesaXo9noem2+nabaRWdlAu2OGJQqqPavj4fty+J+N2g6Uc9w0g/rSH9uTxNzjQtMB/3nP8AWssNnWQ4Cbq0INSe7s7/AIip51llH4H+DPpb4ofBnwx8WrazXXrSYXdnn7Nf2kpinhBILAMOoOBwQfbmuPtv2XPCcESQzXuvX0SHIW41acD8lZRj2rxb/huHxcwO3Q9HyO5Mhz+tKP23vFmRu0HRzn0Mg/rSxGc5Bi5e0r03J/4X+JMs3ymc+ee/oz6c8E/Cfw78P9SudQ0exaC8uU8uSVpnfK8HGCcdQK2PGHg/TPHPh+40bWbdp7Gcqx8uRo3VlIZWVlIIIIB4r5NH7cPikDnQNKX0G6Q/1o/4be8WOp2aHpO4epkx/Ot6XEuTUKX1enBqPZR0Nf7cyuMHTT93tZn0P4U+Clt4U1+11K28Sa/cQ24YCwuLsG3fIIyyhRnGcjnAwK9LUsT04r4sT9uLxWhHmaBpDKe4aQf1NTf8NxeJiCRoOmA+m9/8ajCZ/kuApunh04pu+zM6WdZVQjy0pWXoz7QyfSlr4u/4bi8T/wDQA0v/AL7f/Gmn9uPxR20HS/8Avt/8a9BcV5Y/tP8A8BZr/b+Xv7f4M+06K+K/+G4/FH/QB0v/AL6f/Gj/AIbk8Uf9ALS/++pP8af+tWW/zP8A8BYf2/gP5/wZ9qUV8Vf8NzeJx/zAdLP/AAKT/Gj/AIbn8Tj/AJgGl/8Afcn+NP8A1py3+Z/+AsP9YMv/AJ/wZ9q0V8Vf8N0+Jv8AoX9L/wC+5P8AGj/hurxMP+Ze0v8A7+Sf40/9act/mf8A4Cxf6wZf/P8Agz7Vor4q/wCG7PEv/Qu6X/38k/xpP+G7PEv/AELul/8AfySj/WjLf5n/AOAsP9YMv/n/AAZ9rUV8Uf8ADdviX/oXdL/7+SUf8N3eJv8AoXdL/wC/klH+tGW/zP8A8BYf6wZd/P8Agz7Xor4n/wCG7vEw/wCZd0v/AL+SUn/Dd/ib/oXdL/7+SUf605b/ADP/AMBYf6wZd/P+DPtmiviQ/t4eJ/8AoXtL/wC+5P8AGmn9vPxMP+Ze0r/vuSl/rTlv8z/8BYf6w5d/P+D/AMj7dor4hP7e/iUf8y7pX/fclJ/w334jHXw3pf8A38kpf61ZZ/M//AWH+sGX/wA/4P8AyPt+iviEft/eIO/hnTfwlk/wp6/t+66SAfC+n8+k0n+FP/WrLP5n/wCAsf8ArBl/8/4P/I+2WzjivHv2rYRL8EdWDjgXFqx/CdK8NX9vvV8Ev4ZsgvYiVzn9K5X4jftdah8TvC91od3o1nY2Eu13mjkct8rBh191ryM24lwNfA1qNLmcpRaWjW5z4rO8FVw84U5XbT6P/I9s/YdIb4feInC7QdacZ9f3EVfSQ5r5x/Yaukv/AIU6jcxZ8mTVZAuRjOEQEj1r6OHSvpeH4uOVYdNW91Hp5R/uFH0Fooor6A9cKKKKACiiigAooooAKKKKACiiigAooooAKKKKACiiigAooooAKKKKACiiigAooooAKKKKACiiigAooooAKKKKACiiigAooooA/CH/AIKuf8nqeK/+vLT/AP0kjq//AMEj/wDk8nSf+wNf/wDoArP/AOCrv/J6niv/AK8dP/8ASSOtD/gkf/yeTpP/AGBr/wD9AFAH7n0UUUAFFFFABRRRQAUUUUAFFFFABRRRQAUUUUAFFFFABRRRQAUUUUAFFFFABRRRQAUUUUAFFFFABRRRQAVzXxM/5Jv4r/7BN3/6JeulrmviZ/yTfxX/ANgm7/8ARL0AfzBp0Sv3M/4JDnP7Hdl/2G7/AP8AQlr8M06JX7lf8EhT/wAYeWn/AGHL7+aUhn2vRRRTEFFFFABRRRQAUUUUAFFFFABRRRQAUUUUAFFFFABRRRQAUUUUAFFFFABRRRQAUUUUAFFFFABRRRQAUUUUANZA4IIBBGCD3rmrj4Z+FLk/vPDelNjkf6HHx+ldPRUShCfxpMiUIz+JXOMk+EHguT73hfSSP+vNP8Khf4K+BX6+FdK/8BV/wruaKx+rUP5F9yI9jS/lX3HAn4G+Am6+E9L/APAZaYfgT4BP/Mp6Z/4DivQMUYo+rUP+fa+5B7Cj/IvuPPT8Bvh+f+ZT03/vzSf8KD+H3/Qp6d/36r0PFGKX1XD/APPtfcL6vR/kX3Hnh+Afw+P/ADKenf8Afqj/AIUF8Pv+hU07/v1XoeKWj6ph/wDn2vuD6vR/kX3Hnf8AwoL4ff8AQp6d/wB+qP8AhQfw+/6FTTf+/VeiUUvqmH/59r7g+r0f5F9x55/woP4ff9Cnpv8A35o/4UJ8P/8AoU9N/wC/Neh0U/qmH/59r7g+r0f5F9x56PgN8Px/zKemf9+BSj4DfD//AKFPTP8AvwK9Boo+qYf/AJ9r7g+r0f5F9x5//wAKI+H/AP0Kel/9+BS/8KJ8Af8AQp6X/wCA4rv6KPqmH/59r7g9hR/kX3HAj4FeAAc/8Inpf/gOtKPgb4BH/MpaT+Nqv+Fd7RR9Uw/8i+4fsKX8i+44P/hR/gL/AKFLSP8AwET/AApR8EvAinjwnpP/AICr/hXd0UfVaH8i+5D9lT/lX3HEf8KZ8Dj/AJlTSf8AwET/AApG+DHgZuvhPSf/AAET/Cu4oo+qYf8A59r7kHsqX8q+44dfgz4HB48KaSP+3RP8Kcfg34H6f8IppP8A4CJ/hXbUlH1TDv8A5dr7kHsqf8q+44Zvgp4Ebr4T0r8LZRQPgp4EH/Mp6X/4DrXc4oxS+qYf/n2vuQeypfyr7jhh8FfAo/5lPSv/AAFX/Ck/4Ul4Dxj/AIRLSsf9ey13WKMUfU8N/wA+19yD2NL+RfccL/wpPwJ/0Kelf+Aq/wCFNPwP8Bn/AJlPSv8AwGX/AArvMUYo+qYf/n2vuQvYUf5F9xwJ+BfgFuvhPS//AAHFJ/woj4f/APQpaX/4DrXoFFP6rh/+fa+5B7Gl/IvuPP8A/hQ3w+/6FLSv/AcUf8KG+H3/AEKWlf8AgOK9Aop/VaH8i+4PYUv5F9x59/wob4ff9CjpX/gOtL/wob4ff9CjpX/gMtegUUvqtD+RfcHsKP8AIvuPP/8AhQ/w+/6FHSv/AAGWj/hQ/wAPv+hQ0n/wGWvQKKPqtD+RfcHsKX8i+48//wCFD/D7/oUNJ/8AAZaP+FDfD3/oUNJ/8Blr0Cin9VofyL7g9hS/kX3Hn/8Awob4e/8AQoaT/wCAq0n/AAoX4e/9ChpP/gKteg0UfVaH8i+4PYUv5F9x59/woX4e/wDQoaT/AOAq0v8Awob4e/8AQn6R/wCAq/4V6BRR9WofyL7g9hS/kX3Hn/8Awof4e/8AQn6R/wCAif4Uo+BPw+H/ADJ+j/8AgGn+Fd/RR9WofyL7g9hS/kX3HBf8KK+Hw/5k7Rv/AADT/ClHwN+H4/5k7Rf/AACT/Cu8oo+rUP5F9yD2NL+VfccMPgj4BXp4O0Uf9uMf+FPHwW8Bjr4P0X/wBj/wrtqKPq1D+Rfcg9jS/lX3HEn4K+AjyfB2iN9bCP8AwqSL4M+A4nDjwdoe4dzp8R/9lrsqKaw9FfYX3IapU1tFfcVdP0uz0m1W2sbWGztl+7DAgRB9AOKtUUVukoqyNEktEFFFFMYUUUUAFFFFABRRRQAUUUUAFFFFABRRRQAUUUUAFFFFABRRRQAUUUUAFFFFABRRRQAUUUUAFFFFABRRRQAUUUUAFFFFABRRRQB+EH/BV3/k9TxX/wBeWn/+kkdX/wDgkh/yeVpP/YHv/wD0WKof8FXP+T1fFf8A15af/wCkkdX/APgkh/yeVpH/AGB7/wD9FigD90KKKKACiiigAooooAKKKKACiiigAooooAKKKKACiiigAooooAKKKKACiiigAooooAKKKKACiiigAooooAK5v4l/8k48V/8AYJu//RLV0lc38S/+Sc+Kv+wTd/8AolqAP5gl6J9K/cn/AIJCHP7Htt/2Hb7+aV+GqdFr9yf+CQX/ACZ7b/8AYdvv5pSA+2aKKKYBRRRQAUUUUAFFFFABRRRQAUUUUAFFFFABRRRQAUUUUAFFFFABRRRQAUUUUAFFFFABRRRQAUUUUAFFFFABRRRQAUUUUAFFFFABRRRQAUUUUAFFFFABRRRQAUUUUAFFFFABRRRQAUUUUAFFFFABRRRQAUUUUAFFFFABRRRQAUUUUAFFFFABRRRQAUUUUAFFFFABRRRQAUUUUAFFFFABRRRQAUUUUAFFFFABRRRQAUUUUAFFFFABRRRQAUUUUAFFFFABRRRQAUUUUAFFFFABRRRQAUUUUAFFFFABRRRQAUUUUAFFFFABRRRQAUUUUAFFFFABRRRQAUUUUAfhB/wVc/5PV8V/9eWn/wDpJHV//gkh/wAnlaR/2B7/AP8ARYqh/wAFXP8Ak9XxX/15af8A+kkVX/8Agkj/AMnlaR/2B7//ANFigD90KKKKACiiigAooooAKKKKACiiigAooooAKKKKACiiigAooooAKKKKACiiigAooooAKKKKACiiigAooooAK5v4lf8AJOfFX/YKu/8A0S1dJXN/Ern4c+Kv+wVd/wDolqAP5gU/h+lfuR/wSB/5M9t/+w9ff+yV+G6fw/Sv3I/4JA/8me2//Yevv/adAH21RRRQAUUUUAFFFFABRRRQAUUUUAFFFFABRRRQAUUUUAFFFFABRRRQAUUUUAFFFFABRRRQAUUUUAFFFFABRRRQAUUUUAFFFFABRRRQAUUUUAFFFFABRRRQAUUUUAFFFFABRRRQAUUUUAFFFFABRRRQAUUUUAFFFFABRRRQAUUUUAFFFFABRRRQAUUUUAFFFFABRRRQAUUUUAFFFFABRRRQAUUUUAFFFFABRRRQAUUUUAFFFFABRRRQAUUUUAFFFFABRRRQAUUUUAFFFFABRRRQAUUUUAFFFFABRRRQAUUUUAFFFFABRRRQAUUUUAFFFFABRRRQAUUUUAFFFFAH4Qf8FXP+T1PFn/Xlp/8A6SRVf/4JI/8AJ5Wkf9ge/wD/AEWKz/8Agq3/AMnq+Lf+vPT/AP0kiq//AMEkf+Ty9H/7A9//AOixQB+6NFFFABRRRQAUUUUAFFFFABRRRQAUUUUAFFFFABRRRQAUUUUAFFFFABRRRQAUUUUAFFFFABRRRQAUUUUAFc58Sefh14p/7BV1/wCiWro6534jDPw98Uf9gu6/9FNQB/L8vRK/cn/gkD/yZ7b/APYevv5pX4bL/BX7lf8ABIIY/Y8tvfXb7+aUAfbNFFFABRRRQAUUUUAFFFFABRRRQAUUUUAFFFFABRRRQAUUUUAFFFFABRRRQAUUV8//ALUv7angn9ki48Nw+MNO1u/OvCdrY6RBFIEEJjD7zJImP9auMZ6HpQB9AUVxXwZ+LWi/HT4aaL458PRXkOjassj26X8axzAJK8TblVmH3kbGCcjBrtaACiiigAor5+/ar/bT8GfsiP4ZXxbpetal/b/2g239kRRPsEJiD7/MkTGfOXGM9D0r0T4G/GbQ/wBoH4YaR478Nw3tvo+pmYQx6hGscymOV4myFZh95GwQTkYoA72iiigAooooAKKKKACiiigAooooAKKKKACiiigAooooAKKKKACiiigAooooAKKKKACiiigAooooAKKKKACiiigAooooAKKKKACiiigAooooAKKKKACiiigAooooAKKKKACiiigAooooAKKKKACiiigAooooAKKKKACiiigAooooAKKKKACiiigAooooAKKKKACiiigAooooAKKKKACiiigAooooAKKKKACiiigAooooAKKKKACiiigAooooAKKKKAPwe/4Ktf8AJ63i7/rz0/8A9I4q0P8Agkl/yeXo/wD2CL//ANFis/8A4Ks/8nreLv8Arz0//wBI4qv/APBJL/k8vR/+wRf/APosUAfulRRRQAUUUUAFFFFABRRRQAUUUUAFFFFABRRRQAUUUUAFFFFABRRRQAUUUUAFFFFABRRRQAUUUUAFFFFABWB8QRnwF4kHrplz/wCimrfrA8f8+BPEn/YNuf8A0U1AH8va/wAFfuX/AMEhP+TO7T/sOX/80r8NF6JX7l/8EhP+TO7T/sOX/wD6ElAH2xRRRQB8tft7/tgaP+zX8IdbtdI1+xT4m6hALfRtMWRJLiFpCAbl4+dqou9lLjazKq85NfMX/BOz9vbwZ4A+Cmuaf8Z/iNPBrreIZp7N9UW6vJnt5IYOhRHIXzRK3OBlyfWsr/gsb+zj4W8OWOm/GbT3u4fE+t6tb6RqNuZA0E6i1k2SgEZV1WBF4OCMcA9eU/4J+f8ABPv4cftOfAu48YeML/xDFqa6zcWKR6XexQxCKNIiuQ0THcS7ZOemOKBn66aHruneJtFsNX0m9g1LS7+BLm1vLaQPFPE6hkdGHBBBBBHrXjHxc/bi+CHwN8RPoHi/x9ZWWtx/66ws4Jr2W3PHEogR/LbBB2tgkHOMV5x+1v4zt/2I/wBh+fTPA1xcafc20Nv4b0KeaUyTRSSk7pd/HzrEszggYDKuABxXwV/wT0/YE0H9qzQvEPjPxzq+qQaJZ6gdPgtNNmWOa5uAqSSPJIyt8uJEHAySTzxQB+p3wd/bA+Dnx81L+zfA3jzTtY1TBZdOlWS0upAASxSGdEdwACSVBwOTXsRzjjrX4Xft8fsex/sT+OfB/iTwJruqHRdTeSSyuZ5ALvT7yFlbAkQLxtZSpxnKtnoK/WX9jz45z/tI/s3+FPGt0qW+s3UElpqKx42i6hdopHAHQOVEgXsHA7UCHfBD9sP4W/tA2HiO78KeIk8vQHAv11JDaNFGd22X58DyzsfnPG05A4zyfir/AIKQ/s6eENbGl3XxJtL2fOHm0mzub6CMeplhjZCP90k1+IPwP+EM/wAdPjV4U8A2VwtlLrl/9me7ZN/kRAM8sgXIyVRXIGeSMV99/tLf8EmPCnwu+Bnifxf4Q8Wa7e6z4esG1CS01RYGiuool3TAFEVkO0Mw5b7uD13AGfqN4Y8T6T408P2GuaFqNtq2j38Qntr20kDxSoehBH5exBBrUr8vf+CK/wAZtQ1LT/G/wxvrhp7HT1j1vS0Yk+SHby7lBk8KW8lgBwGaQ9Wr9QqBBXj/AMdP2rvhz+zlrXhfS/HesS6RP4jaVbKVbWSaJfLaNWaQoDsXMq849fSvYK/KT/guDEp1n4PMRktBqo/JrT/GgD7/APjh+1d8Lv2cptLt/H/imHRr3URugs44ZLmcx5IMrRxKzLHkEbyACQQMkGq/wE/a4+GP7S17rtn4D15tRvNHYGa3uraS1kkiJws8aSAFoyeM4yCQGC7lz+ev7Gv/AAS/8KfHP4QaP8RvH3ijXDNrySSW2maU8cPkqkzxqzyyLIXJCZwAuMjrXxZ8Y9Kv/wBm79o3xtoPg3W9W0uTw9q11YWOoQXbRXfkcquZItvzMjYOAAcngdKAP21+NH7f/wAFPgP4mk8OeJfFTTa/CwW507SrSS7ktcjP70oNqHp8hbdyPlr0j4J/tBeAP2iPDk2t+APEUGvWdvIIrlBG8M9u5HCyRSKrrnBwSMHBwTg18H6H/wAEi/BWm/AHUNV8S6xq998RH0ea/M9tcCO1t7nyTIiCPblwGwGLHnnAWvmT/gkr41ufDX7Xmkaakri217S72xmiDEKxWE3IJHQ4Nvx6ZNAH7mTTJbxPLK6xxopZnc4CgdST2FfMPjH/AIKX/s6+C9aXTJ/iBHqkobbLPo9jcXtvEPUyxoUYf7hY+1fPX/BZH4/ap4S8KeFvhfol41n/AMJEkuo6w8Um2R7WJgsUJ/2Hfex6Z8kDkEiuD/ZE/wCCVXhf4l/BTSvGPxJ1TWbbUfEEAvNPsdInjiW1tXAMTuWR97sMPjgAEDrQM/Sj4R/HHwJ8ePDZ17wF4ms/Eemq2yRrfcksLc4EsThZIycHAdRkcjiu5LYHr9K/AfxVbeL/APgmz+2JNFo1/cXtvo9zHcxFmMUer6ZKN3lSgDBJXdGTghZELL90Gv05/wCCknx5uPhv+x7fan4cuHW68Xy22jWl9C20ww3MbyySDvzDHIoI5BcHtQI7TxN/wUP/AGePCXiCTRtQ+Jmnm9icxyNZ2tzdQxtnG0yxRsmc9eeMc4r4h/4LG+O/CnxF0X4L6v4W8QaZ4is5f7WK3Wl3kdxGV/0UclCcc5H1DDqK8l/4J9fsE6P+1noviXxB4o1/UtH0PTLldPgi0nyxNLOUDsWaRHAUKy9Bkk9sc8Z+31+xrbfse+OPDdpo2t3eueHPEFrLPbS36ItxFLEyrKjbAFYYkjIYBfvEY4yQD9a/+Ce06/8ADF3wvZUwF0+VNoHUi5lGfxxWt4N/bg+DHxA+K8Pw48P+MBqfi2Wae2S1jsLlY2lhV3kUStGEOBG5znBxwTXO/wDBN5jcfsT/AAzMnJ8i7HXsL64A/QCvy1/YwuEj/wCCkXhiYABX8RaqowP70F0B/OgD90PEniLT/CPh/U9c1a5Wz0vTbWW9u7hgSIoY0Lu5A5wFUnj0ryH4JftqfB79ojxPP4e8B+Kn1jWIbZrt7WTTbq2PlAgFg0saqcFhwDnmul/aRKn9nn4pb8Ff+EV1XOf+vSWvyM/4I7oD+1pKemPDd4cf8DhoA90/4LhIv2f4NHqxk1cfgBZ/419W/wDBNIg/sSfDXChf3d9wP+v+4r5R/wCC4LYT4ND1bWP5WdfTv/BPHW7Dwz+wN4I1i9lMWn6fZald3MmM7UjvLl3OPYA0Ae2/GD4//D34B6PHqXj7xXYeHLeYMYI7hi89xjG7yoUBkkxkZ2qcZFeW/D3/AIKLfs/fEnVrfS9P8f2+najcSGOKDWrWaxVsHj97KgjG7sCwJyOMkCvyG8OeIbH9tD9ry31b4reKo/Cnh7Xb6We7vbq8SCKwtEjZorWOWT5YxhUjUt3OeSeffv22/wBmr9nDwP8ABj/hJPhL4u0SLxDpUsMR0+x8Rx6jJqkbMqOdnmMwkTeH3LhcK4IztpDP2Oor4O/4JHftB6p8VvgzrHgrXbmW91LwTLBDb3czFmexnEnkRkk5JjMMqeyeWO1feNMQUUUUAFFFFABRRRQAUUUUAFFFFABRRRQAUUUUAFFFFABRRRQAUUUUAFFFFABRRRQAUUUUAFFFFABRRRQAUUUUAFFFFABRRRQAUUUUAFFFFABRRRQAUUUUAFFFFABRRRQAUUUUAFFFFABRRRQAUUUUAFFFFABRRRQAUUUUAFFFFABRRRQAUUUUAFFFFABRRRQAUUUUAFFFFABRRRQAUUUUAFFFFABRRRQAUUUUAFFFFABRRRQAUUUUAfg//wAFWhj9tXxb/wBeen/+kkVXf+CSX/J5mjf9gi//APRQql/wVb/5PV8Wf9eWn/8ApJFV3/gkl/yeZo3/AGCNQ/8ARVAH7p0UUUAFFFFABRRRQAUUUUAFFFFABRRRQAUUUUAFFFFABRRRQAUUUUAFFFFABRRRQAUUUUAFFFFABRRRQAVh+Ol3+CfEK+unXA/8htW5WP4xXd4R1setjOP/ACG1AH8uqfwV+5X/AASEXH7Hdp767fn/AMeSvw1T+H6V+5f/AASF/wCTO7P/ALDl/wD+hLQB9r0UUUAfnx/wWoiZ/wBnPwc4BKJ4rh3HHTNrc4pf+COXi3TU/Zk8SafLqFrFc2Hia4klikmVWjjkt7fYxBPAZlkAPqpHavqz9qL9nXRv2o/hBqXgXWbuTTRNLHdWmowxiR7S4jOVcKSNwwWUjIyrHkHmvzNv/wDgil8UINXeLT/HfhK40oONl1ObqCcr6mIROufbzD9aBn1p/wAFYvB1141/ZB1G+sQ9wvh/VLPWXEC798WWgY8dgLjeT2Ck9MkeK/8ABHT45eGdK8BeKvh7q+tWGla0urHVbKC8uUha7jlhRHEYYjcUMGSBziQHHBx94/Bj4IWnw0+AWhfC/Wb3/hLrGy0ttLvJr6L5LyJ9wkQoS2I9rlApJwoAr8/PjH/wRWvJ9bubz4X+N7GHS5pS0WkeJo5VNqp/hFzEHMgHQbowcYyWPJAOV/4LG/Hbw7468S+CvAmg6nbapceHxc3mqSWkqyJBNKI1jhJUkbwqOWHYOuecgfWn/BKTwnfeEP2LtFub+OSE6vfXuqQxyjaRCX8tCPZhFuB7hga8A+Bn/BGCTSvFNpqXxW8V6fquj2riRtD8PLKFuyDkLJO6oyp6hVyR0Zetfp9a6bbaZpUVhZW8VpZ28Iggt4UCxxRqu1VVRwAAAAB2FAH87f7GvxF034V/tR/DnxZrdyllpNjqZW8uZM7YYpUeFnOOcKJCT7A1+w37cv7Rvgbwp+yn49e08U6Rqd9rmmT6Np9tY30U8lxLcIYjsCschVdnJ6AKe+Afxz/ZG+Emj/HX9pHwn4A197uLSdaku4p5rCRY549lrPIroSGGVZFbBBBxgg19gaj/AMETPGa+LDFY/EjQH8MsR/p9zYzLeop6/wCjglCR/wBdQD6CgA/4Il+Cry5+JPxE8XeW66dZ6TDpQk2na8sswkIB9VEAyP8AbHrX6615V+zV+zv4a/Zg+Ftl4K8MeZPBHI11eX86qJr66fG+Z8cDhVUAdFRRk4zXqtAgr8n/APguDIf+Eg+EK5+VbXVDj6va/wCFfrBXxB/wUU/YZ8afteav4P1Hwjr2h6b/AGJa3FvJb6y80YcyujblaON+yYIIoA9n/Yc0tNG/ZD+EkKjh/D9tcn6ygyn9XNfjh+23pkcf7enj61I8yObxFAzL6+YkTEf+PGv3H+BHgG9+FXwX8DeDNRuoL6/0DRrTTZ7i2BEUjxRKhKZAO3jjIB9hXwv+0H/wS08afGD9pnXfiNp3jbRNN0bVtRhvWiuIpjdQBI0UgKF2scocfMOCKBn6HeIrcS+FNVgzs32cyZPQZQivwe/4Jhbv+G3/AIZAZI3agDj/ALB111r96dcsX1PRb+xjl8qS5gkhWXGdpZSM/hmvzm/Y8/4Je+Pf2df2gvDvxB1zxf4evtN0ZroraacJ3mnEtrNDzvRQhBlB6sMZoEcH/wAFrvhze2vjD4c+PY43k024sJtCmmxlYpY5GmjB93WWXH/XM19Zf8E+/wBorw38V/2ZPDFqNTtINc8H6XDpetWbSBGtUhUpFO27HyPHGG3/AHQdwzlTXvPxt+CfhX9oP4dal4K8Y2b3ej3u1t0D+XNbyqcpLE+DtdT0OCDkgggkH8yvFn/BE/xha6jcr4V+JOjXunOT5Q1e2ntpQhPCuY/MVsDAyAM9cDpQM+c/+CiXxn0T9ob9qDUdR8HTf2zpVra22jWd1bKzC9dMlmjHUgySMq8fNtyOtfbv/BT7wHqPhz9hD4d6Y6STt4d1DSIbx8Z2COxlgLMe3zso+rCu7/ZA/wCCXHhf9nzxJZeNPGGrp428Z2Z8yxjS3Edhp8nGJEVstJIv8LtgDOQgYBh9bfFL4Y+H/jJ4C1rwZ4qsRqGg6vB5FzDnawwQyOp7MjBXU9mUHtQI/PL/AII4fFTwxo3wx8c+GdT1vT9K1S31ldSEN7cxwNJBJAqbl3EbgpgbdjO3cucZFeO/8Fevj94L+L3j/wACaF4O12y8SR+HLW7e9vtNlWe3WWdosRLKpKuyiHJ2kgbgM5BA7DxZ/wAETPFK62y+GviTo9zopkJRtWs5YrmKM5wD5e5XYDAz8gPXA6V6N8Q/+COfh2T4G6RoXgnWIv8AhY9jc/aLvxDqzSRw6irDDxFE3iJBgFMBiMHJO4mgD6P/AOCbEgk/Yl+GLAY/0e7H5XtwP6V+SvwS162+GP8AwUH0S61e4j0y207xxcWtzNcNtSFWnkhJYnoBv5J6Dmv2g/ZH+DWrfs/fs9eEfh/rd/aalqejx3CzXNju8lzJcyzDbuAOAJAOQOnQV8h/tc/8EnLr4z/FXW/HfgHxXp2h3Otzfar3SdXhkEInIHmSJLGGI3kFipQ/MTzg4AB7J+3b+1Z8Ofhr8AvHPh2fxXp194r8QaNdaXYaNp063FyXniMW9whIjRQ5Ys5UEKQuWwD8C/8ABG6ETftX6iQN3leFrxwfT9/br/7NX0B8E/8Agi7oujXcl98UvGH/AAkGYmWLS9Aia3iSQ9JGnfLPjOQuxRkDJIyD6D+xd/wTj8QfspftB614zuPF+n6z4ck0yfTrGCGJ0u5BJJG4MwwEXaI/4ScnBwOlAHlH/Bb9c23wcbcOJdXGPws699/YQ8OS+P8A/gmxonh+3cQS6tpOuaajyfdDSXV3ECcdsnNTf8FE/wBi7xX+13pngr/hE9Y0jTL7QJrsyJrDyRxyJOIcENHG5BUw9Mc7vavYv2QPglqn7O37PPhb4fazqFpqep6T9pM11YB/JYy3Ms3y7wGOBIOSBznigD8I/gH4B8H678etG8E/Fi/v/Cugy3sumajc28kcEtncDciCRpEZUUSgBiw+UEkkAEj9UbP/AII7/AqKKJ21XxldpsGHbU7fDDjkbbcdf6/SrP7ZH/BLzQP2ifFV1418Ia1F4O8X3nzahFcQGWx1BwABIwUhopMAbmXcGwCV3EsfmGL/AII9/HNLQad/wsHwqumDgQrql/sA/wCuf2fHpxmkB95/se/sv/DH9n6TxhffDbVLrV4dVuktLuae/ivEhNuZP3KvGo5BlO4HJHA7V9J14f8Asdfs0Q/spfBm28Epq39uXj3cuo3t8sPlI88gUEImThVVEUZOTgnjOK9wpgFFFFABRRRQAUUUUAFFFFABRRRQAUUUUAFFFFABRRRQAUUUUAFFFFABRRRQAUUUUAFFFFABRRRQAUUUUAFFFFABRRRQAUUUUAFFFFABRRRQAUUUUAFFFFABRRRQAUUUUAFFFFABRRRQAUUUUAFFFFABRRRQAUUUUAFFFFABRRRQAUUUUAFFFFABRRRQAUUUUAFFFFABRRRQAUUUUAFFFFABRRRQAUUUUAFFFFABRRRQAUUUUAFFFFAH4Q/8FXf+T1PFf/Xjp/8A6Sx1c/4JIj/jMvR/+wRqH/osVT/4Ku/8nq+Kv+vHT/8A0ljq7/wSOGf2ytJPpo9+f/IYoA/dGiiigAooooAKKKKACiiigAooooAKKKKACiiigAooooAKKKKACiiigAooooAKKKKACiiigAooooAKKKKACsnxbx4U1r/rym/9FtWtWX4oGfDOr5/585v/AEA0Afy5J0Wv3L/4JDAD9jqyOeuuX5P/AH0tfhqowEr9xv8AgkFL5n7IEScYj16+UY+kZ/rQB9tUUUUAFFFFABRRSZoAWoL64a0sp5khkuHjjZlhixvcgcKM8ZPTmps0ZFAH4s/sD/sqfGLwR+1p4C8WeIvh1rug6DYXF213e6ja+SkQeynUEhiDgl1XOOpAr9pCc06kIoA5n4j+CU+I/gfWPDMmtax4eTU4DA2p6Bci2vbcEglopCrbSQMZweCfWvkh/wDglT4RmiCSfGH4suq/dV9ehIH4eRX25ijFAHxDH/wSh8HRyRv/AMLc+K37vBXZrsKkEdCD5BxX2zYWn2Cxt7XzZZxDGsYlnbc74GMse5OOT3NSin0AJwDRkUh60lAB3p1NpQcUAOopMiloAKTFLSZoACPSgClooAKKKKACiiigAooooAKKKKACiiigAooooAKKKKACiiigAooooAKKKKACiiigAooooAKKKKACiiigAooooAKKKKACiiigAooooAKKKKACiiigAooooAKKKKACiiigAooooAKKKKACiiigAooooAKKKKACiiigAooooAKKKKACiiigAooooAKKKKACiiigAooooAKKKKACiiigAooooAKKKKACiiigAooooAKKKKACiiigAooooAKKKKACiiigAooooAKKKKACiiigAooooA/CL/grBGU/bT8Tk5w+n6ew/wDAZB/StD/gkUu79sfTj6aJfn/x1aq/8FZR/wAZneIT66bYd/8Ap3Wr3/BIVgv7YdoD1OhX4H/kM/0oA/cmiiigAooooAKKKKACiiigAooooAKKKKACiiigAooooAKKKKACiiigAooooAKKKKACiiigAooooAKKKKACszxOu/w1qy5xm0mGf+AGtOqWtWkl/o99awsElngeJGboCVIBP50Afy2A4I5r6T/Z3/b++KX7MngW48JeEH0WTR5bx74LqVgZnjkYKG2sHXghBwc98da7C5/4JN/tGxyvs8N6VOucBk1m2GfflxxSf8Omv2jQM/8ACN6ST6f2zb//ABVAzpP+Hxfx4Ax5HhE+/wDZMv8A8foH/BYv48D/AJd/CJ+uky//AB+ua/4dOftHH/mWNKH/AHGrb/4ulX/gkv8AtGHr4c0gfXWbf/4qgNDpf+Hxvx4/59fB/wD4Kpf/AJIpD/wWM+PB/wCXbwgP+4TL/wDH650f8Elf2iz/AMy/o4/7jMH/AMVTh/wST/aKP/MB0Yf9xiD/ABoA3/8Ah8V8ef8Anh4R/wDBTL/8fo/4fF/Hj/n38If+CmX/AOP1g/8ADpL9or/oBaL/AODiH/Gj/h0j+0T/ANAPRf8AwcQ/40AdAP8Agsb8dx/y6eDz9dJl/wDkil/4fHfHb/nz8Hf+Cmb/AOSKwP8Ah0f+0R/0BdE/8HEVKP8Agkf+0R/0BtDH/cYioA3D/wAFi/juT/x7eEB9NJl/+P00/wDBYj48nOIvCQ/7hMn/AMfrGH/BI39ocjnR9CH/AHGIqcP+CRf7Qx/5hWgj/uMR/wCFAGk3/BYT49t0HhRfppD/APx6oj/wV9+Px/5beFx9NIP/AMcqoP8AgkT+0Kf+YZ4fH11hP/iaUf8ABIj9oU/8w7w8PrrC/wDxNAaFn/h778f/APnv4Y/8FH/2yj/h77+0B/z8eGf/AAUf/bKgH/BIb9oM9bDw6PrrC/8AxFO/4dB/tBf8+fhv/wAG4/8AiKA0JT/wV9+P5/5b+GP/AAUH/wCOUn/D3v8AaAP/AC8+GR/3B/8A7ZTD/wAEgv2ggP8Aj08Nn6auP/iKB/wSC/aBI/49PDY9jq4/+IoDQk/4e+/H/wD57+GP/BQf/jlKP+Cv3x/H/Lfwx/4KD/8AHKjH/BIL9oHH/Hr4bH/cX/8AtdL/AMOgf2gf+fbw1/4N/wD7XQGhKP8AgsB8fh/y08LH66Qf/jtO/wCHwXx9/veFf/BQ3/x2of8Ah0B+0B/z7+Gv/Bv/APa6D/wSA/aA/wCeHhk/9xf/AO10ATf8Pg/j76+Ff/BQ3/x2j/h8H8ffXwr/AOChv/jtQ/8ADoD9oD/n38M/+Df/AO10f8OgP2gP+ffwz/4N/wD7XQBL/wAPgvj7/e8Lf+Chv/jtNb/gsB8fj0k8Lj6aQf8A47TP+HQH7QGf+Pfwz9f7X/8AtdB/4I//ALQA/wCWHhk/TV//ALXQGgv/AA9+/aA/57+GP/BR/wDbKD/wV9/aA/5+PDP/AIKP/tlIP+CP/wC0B/z7+Gf/AAb/AP2uk/4dAftAf8+3hr/wb/8A2ugBf+Hvv7QH/Px4Z/8ABR/9spv/AA96/aB/5+/DX0/scf8AxdL/AMOgP2gP+fbw1/4N/wD7XR/w6B/aBz/x6+Gv/Bv/APa6A0E/4e8/tA5/4/PDf/gnH/xdA/4K9/tAj/l78NH66OP/AIug/wDBIL9oEf8ALr4bP/cX/wDtdKP+CQP7QB/5dvDQ/wC4v/8Aa6A0D/h75+0B/wA/Phr/AMFH/wBspf8Ah75+0B/z8+Gj/wBwf/7ZSD/gkB+0Af8Al38ND/uL/wD2uj/h0B+0Bn/j28NfX+1//tdAC/8AD334/j/l48M/+Cf/AO2Uv/D3/wCP3/Pfwx/4Jz/8cph/4JA/tAg/8e3hs/8AcX/+10f8Ogf2gf8An28N/wDg3/8AtdAhx/4K/wDx/wD+fjwz/wCCf/7ZR/w9++P/APz8eGf/AAT/AP2ykH/BID9oA/8ALv4aH/cX/wDtdKP+CP3x/wD+ePhn/wAG/wD9roAP+Hv3x/8A+fnw1/4J/wD7ZSf8Pffj/wD8/Xhr/wAE/wD9sp//AA59+P8A/wA8vDH/AINz/wDGqX/hz58fv+efhj/wbn/41QMj/wCHvv7QH/P14a/8E/8A9spP+Hvv7QH/AD9+G/8AwT//AGdTD/gj38fT/B4XH/cXb/41Sj/gjz8ffTwsP+4s3/xqgCD/AIe+ftAf8/nhv/wTj/4uj/h75+0B/wA/nhv/AME4/wDi6sD/AII8fHz18K/+DZ//AIzTv+HO3x7/AL/hT/wbP/8AGaAK3/D339oD/n78N/8Agn/+2Uv/AA9+/aA/5+vDX/gn/wDtlWf+HOvx7/56eE//AAbP/wDGaP8Ahzp8ev8Anr4T/wDBtJ/8ZoDQrf8AD3/4/wD/AD8+Gf8AwUf/AGyl/wCHv/x//wCfjwz/AOCj/wC2VZ/4c6fHr/nt4S/8G0n/AMYo/wCHOfx6/wCe3hL/AMG0n/xigNCv/wAPgPj/AP8APfwz/wCCg/8Axyj/AIfA/H7/AJ7eGP8AwUH/AOOVY/4c5/Hr/nt4S/8ABtJ/8Yo/4c5/Hr/nv4S/8G0n/wAYoDQr/wDD4L4/f89fDH/goP8A8dpf+HwXx+/56+GP/BQf/jtT/wDDnP49f89/CX/g2k/+MUf8Oc/j1/z38Jf+DaT/AOMUBoQf8Pg/j9/z08L/APgoP/x2j/h8H8fv+enhf/wUH/47U/8Aw5z+PX/Pfwl/4NpP/jFH/DnP49f89/CX/g2k/wDjFAaEH/D4P4/f89PC/wD4KD/8dpf+Hwfx+/56eF//AAUH/wCO1N/w5z+PX/Pfwl/4NpP/AIxR/wAOc/j1/wA9/CX/AINpP/jFAaEH/D4P4/f89PC//goP/wAdo/4fB/H7/np4X/8ABQf/AI7U/wDw5z+PX/Pfwl/4NpP/AIxR/wAOc/j1/wA9/CX/AINpP/jFAaEH/D4P4/f89PC//goP/wAdo/4fBfH7/nr4Y/8ABQf/AI7U/wDw5z+PX/Pfwl/4NpP/AIxR/wAOc/j1/wA9/CX/AINpP/jFAaEH/D4L4/f89fDH/goP/wAdo/4fBfH7/nt4Y/8ABQf/AI7U/wDw5z+PX/Pfwl/4NpP/AIxR/wAOc/j1/wA9/CX/AINpP/jFAaFf/h8D8fv+e3hj/wAFB/8AjlH/AA+B+P3/AD28Mf8AgoP/AMcqx/w5z+PX/Pfwl/4NpP8A4xR/w5z+PX/Pfwl/4NpP/jFAaFf/AIfA/H7/AJ7+GP8AwUH/AOOUf8Pgfj9/z38Mf+Cg/wDxyrH/AA5z+PX/AD38Jf8Ag2k/+MUf8Oc/j1/z38Jf+DaT/wCMUBoV/wDh8D8fv+e/hj/wUH/45R/w+B+P3/Pfwx/4KD/8cqx/w5z+PX/Pfwl/4NpP/jFH/DnP49f89/CX/g2k/wDjFAaFf/h8D8fv+e/hj/wUH/45R/w+B+P3/Pfwx/4KD/8AHKsf8Oc/j1/z38Jf+DaT/wCMUf8ADnP49f8APfwl/wCDaT/4xQGhX/4fA/H7/nv4Y/8ABQf/AI5R/wAPgfj9/wA9vDH/AIKD/wDHKsf8Oc/j1/z38Jf+DaT/AOMUf8Oc/j1/z38Jf+DaT/4xQGhX/wCHwPx+/wCe3hj/AMFB/wDjlL/w+B+P3/Pbwx/4KD/8dqf/AIc5/Hr/AJ7+Ev8AwbSf/GKP+HOfx6/57+Ev/BtJ/wDGKA0IP+HwXx+/57eGP/BQf/jtH/D4L4/f89fC/wD4KD/8dqx/w5z+PX/Pfwl/4NpP/jFH/DnP49f89/CX/g2k/wDjFAaFf/h8F8fv+evhf/wUH/47S/8AD4L4/f8APXwv/wCCg/8Ax2p/+HOXx6/5+PCP/g1k/wDjFH/DnL48/wDPx4R/8Gsn/wAYoDQg/wCHwfx9/wCenhf/AMFDf/HaP+Hwfx9/56eF/wDwUN/8dqf/AIc5fHn/AJ+PCP8A4NZf/jFL/wAOcfjz/wA/PhH/AMGsv/xigNCD/h8J8ff7/hb/AMFDf/HaP+Hwnx9/veFv/BQ3/wAdqf8A4c4/Hn/n58I/+DWX/wCMUf8ADnH48/8AP14Q/wDBrL/8YoDQg/4fC/H318Lf+Chv/jtL/wAPhvj56+Ff/BS3/wAdqf8A4c4fHn/n68If+DWX/wCMUf8ADnD48/8AP14Q/wDBrL/8YoDQg/4fDfHz/qVf/BS//wAepf8Ah8P8fPTwr/4KX/8Aj1Tf8OcPjx/z9eEP/BrL/wDGKP8Ahzh8eP8An78If+DWX/4xQGhD/wAPh/j56eFf/BS//wAeo/4fEfHz+74U/wDBS/8A8eqb/hzf8eP+fvwf/wCDWX/5Ho/4c3fHj/n78H/+DWX/AOR6AIv+HxHx7/u+FP8AwUv/APHqP+HxHx7/ALnhT/wUv/8AHql/4c3fHj/n78H/APg1l/8Akel/4c3fHf8A5+/B/wD4NZv/AJHoAh/4fFfHv+54T/8ABS//AMeo/wCHxXx6/ueE/wDwUv8A/Hqm/wCHN3x3/wCfzwf/AODWb/5Ho/4c2/Hf/n88H/8Ag1m/+R6BEX/D4r49f88/Cf8A4KZP/j1H/D4v49f88/Cf/gpk/wDj1Tf8Obfjv/z+eD//AAazf/I9H/Dmz47f8/vg7/wazf8AyPQMh/4fF/Hr/nn4S/8ABTJ/8eo/4fF/Hr/nl4S/8FMn/wAeqb/hzZ8dv+f3wd/4NZv/AJHo/wCHNfx2/wCf7wd/4NZv/kegRF/w+M+PX/PLwl/4KZP/AI/R/wAPjPj1/wA8vCX/AIKZP/j9S/8ADmv47f8AP/4O/wDBrN/8j0v/AA5q+O3/AD/+Dv8Awazf/I9AEP8Aw+M+PP8Azy8Jf+CmT/4/R/w+M+PP/PLwl/4KZP8A4/U3/Dmr47f8/wD4O/8ABrP/API1H/Dmr47f9BDwd/4NZ/8A5GoAh/4fGfHn/nl4S/8ABTJ/8fo/4fGfHn/nl4S/8FMn/wAfqb/hzV8df+gh4N/8Gs//AMjUf8Oavjr/ANBDwb/4NZ//AJGoAh/4fGfHn/nl4S/8FMn/AMfo/wCHxnx5/wCeXhL/AMFMn/x+pv8AhzV8df8AoIeDf/BrP/8AI1H/AA5p+Ov/AEEPBv8A4NZ//kagCH/h8Z8ef+eXhL/wUyf/AB+j/h8Z8ef+eXhL/wAFMn/x+p/+HNPx1/6CHg3/AMGs/wD8jUf8Oafjr/0EPBv/AINZ/wD5GoAg/wCHxnx5/wCeXhL/AMFMn/x+j/h8Z8ef+eXhL/wUyf8Ax+p/+HNPx1/6CHg3/wAGs/8A8jUf8Oafjr/0EPBv/g1n/wDkagCD/h8Z8ef+eXhL/wAFMn/x+j/h8Z8ef+eXhL/wUyf/AB+p/wDhzT8df+gh4N/8Gs//AMjUf8Oafjr/ANBDwb/4NZ//AJGoAg/4fGfHn/nj4S/8FMn/AMfo/wCHxnx5/wCePhH/AMFUn/x+p/8AhzT8df8AoIeDf/BrP/8AI1H/AA5p+Ov/AEEPBv8A4NZ//kagCD/h8Z8ef+ePhH/wVSf/AB+j/h8Z8ef+ePhH/wAFUn/x+p/+HNXx1/6CHg3/AMGk/wD8jUf8Oavjr/0EPBv/AINZ/wD5GoGQf8PjPjz/AM8fCP8A4KpP/j9H/D4z48/88fCX/gqk/wDj9T/8Oa/jr/z/APg3/wAGs/8A8jUn/Dmv47f8/wD4N/8ABrN/8j0AQ/8AD4z48/8APLwl/wCCmT/4/R/w+M+PP/PLwl/4KZP/AI/U3/Dmz47f8/3g7/wazf8AyPTT/wAEbfjv/wA/ng8/9xWb/wCR6AI/+Hxnx5/55eEv/BTJ/wDH6P8Ah8Z8ef8Anl4S/wDBTJ/8fp5/4I3/AB4/5+/B5/7isv8A8j00/wDBHH48j/l48In/ALisv/xigBP+Hxnx5/55eEv/AAUyf/H6D/wWM+PP/PLwl/4KZP8A4/SH/gjn8eh/y28JH/uKyf8Aximn/gjp8ex/y08Jn/uKv/8AGaAHf8Pi/j1/zz8J/wDgpk/+PUn/AA+J+Pf9zwn/AOCl/wD49TT/AMEdvj5/e8Kf+DZ//jNMP/BHj4/Dt4WP01Zv/jVAiQ/8Fh/j4e3hUf8AcJf/AOPUxv8AgsH8fT0k8Lr9NIb/AOO0xv8Agj5+0AOkfhhvpqx/+N1E/wDwSC/aDXpaeG2+mrj+qUD0JG/4K/ftAN0uvDS/TSP8ZKYP+CvP7QQkDfbvDhA/gOjjB/8AH81Vf/gkX+0QnTStAf8A3dYj/qKjP/BJL9osc/2Hoh+msQ/40CPnr46/HjxT+0T8Qbrxn4xms5tZnhjtz9htlgjWNBhQFHJ+rEntnAAH0h/wSIO79sawwM40W/8A/QVrPm/4JMftGxgbfDmkS5/u6zb8fmwr6Y/4J3fsG/GD9nz9oiPxf430ax03RYtLurXzIdRhnd5JNoUBUYnHB5PpQB+o1FFFABRRRQAUUUUAFFFFABRRRQAUUUUAFFFFABRRRQAUUUUAFFFFABRRRQAUUUUAFFFFABRRRQAUUUUAFFFFABRRRQAUUUUAFFFFABRRRQAUUUUAFFFFABRRRQAUUUUAFFFFABRRRQAUUUUAFFFFABRRRQAUUUUAFFFFABRRRQAUUUUAFFFFABRRRQAUUUUAFFFFABRRRQAUUUUAFFFFABRRRQAUUUUAFFFFABRRRQAUUUUAFFFFABRRRQAUUUUAFFFFABRRRQAUUUUAFFFFABRRRQAUUUUAFFFFABRRRQAUUUUAFFFFABRRRQAUUUUAFFFFABRRRQAUUUUAFFFFABRRRQAUUUUAFFFFABRRRQAUUUUAFFFFABRRRQAUUUUAFFFFABRRRQAUUUUAFFFFABRRRQAUUUUAFFFFABRRRQAUUUUAFFFFABRRRQAUUUUAFFFFABRRRQAUUUUAFFFFABRRRQAUUUUAFFFFABRRRQAUUUUAFFFFABRRRQAUUUUAFFFFABRRRQAUUUUAFFFFABRRRQAUUUUAFFFFABRRRQAUUUUAFFFFABRRRQAUUUUAFFFFABRRRQAUUUUAFFFFABRRRQAUUUUAFFFFABRRRQAUUUUAFFFFABRRRQAUUUUAFFFFABRRRQAUUUUAFFFFABRRRQAUUUUAFFFFABRRRQAUUUUAFFFFABRRRQAUUUUAFFFFABRRRQAUUUUAFFFFABRRRQAUUUUAFFFFABRRRQAUUUUAFFFFABRRRQAUUUUAFFFFABRRRQAUUUUAFFFFABRRRQAUUUUAFFFFABRRRQAUUUUAFFFFABRRRQAUUUUAFFFFABRRRQAUUUUAFFFFABRRRQAUUUUAFFFFABRRRQAUUUUAFFFFABRRRQAUUUUAFFFFABRRRQB//9k=;" vertex="1" parent="1">
          <mxGeometry x="32" y="180" width="763.26" height="480" as="geometry" />
        </mxCell>
        <mxCell id="V-b0fp75Tb7XbdA_kdbv-3" value="0" style="text;html=1;strokeColor=none;fillColor=none;align=center;verticalAlign=middle;whiteSpace=wrap;rounded=0;fontSize=20;labelBackgroundColor=default;fontColor=#FF8000;fontStyle=1" vertex="1" parent="1">
          <mxGeometry x="35" y="280" width="30" height="30" as="geometry" />
        </mxCell>
        <mxCell id="V-b0fp75Tb7XbdA_kdbv-4" value="5" style="text;html=1;strokeColor=none;fillColor=none;align=center;verticalAlign=middle;whiteSpace=wrap;rounded=0;fontSize=20;labelBackgroundColor=default;fontColor=#FF8000;fontStyle=1" vertex="1" parent="1">
          <mxGeometry x="385" y="380" width="30" height="30" as="geometry" />
        </mxCell>
        <mxCell id="V-b0fp75Tb7XbdA_kdbv-5" value="1" style="text;html=1;strokeColor=none;fillColor=none;align=center;verticalAlign=middle;whiteSpace=wrap;rounded=0;fontSize=20;labelBackgroundColor=default;fontColor=#FF8000;fontStyle=1" vertex="1" parent="1">
          <mxGeometry x="35" y="330" width="30" height="30" as="geometry" />
        </mxCell>
        <mxCell id="V-b0fp75Tb7XbdA_kdbv-6" value="3" style="text;html=1;strokeColor=none;fillColor=none;align=center;verticalAlign=middle;whiteSpace=wrap;rounded=0;fontSize=20;labelBackgroundColor=default;fontColor=#FF8000;fontStyle=1" vertex="1" parent="1">
          <mxGeometry x="255" y="310" width="30" height="30" as="geometry" />
        </mxCell>
        <mxCell id="V-b0fp75Tb7XbdA_kdbv-7" value="2" style="text;html=1;strokeColor=none;fillColor=none;align=center;verticalAlign=middle;whiteSpace=wrap;rounded=0;fontSize=20;labelBackgroundColor=default;fontColor=#FF8000;fontStyle=1" vertex="1" parent="1">
          <mxGeometry x="255" y="260" width="30" height="30" as="geometry" />
        </mxCell>
        <mxCell id="V-b0fp75Tb7XbdA_kdbv-8" value="8" style="text;html=1;strokeColor=none;fillColor=none;align=center;verticalAlign=middle;whiteSpace=wrap;rounded=0;fontSize=20;labelBackgroundColor=default;fontColor=#FF8000;fontStyle=1" vertex="1" parent="1">
          <mxGeometry x="245" y="480" width="30" height="30" as="geometry" />
        </mxCell>
        <mxCell id="V-b0fp75Tb7XbdA_kdbv-9" value="9" style="text;html=1;strokeColor=none;fillColor=none;align=center;verticalAlign=middle;whiteSpace=wrap;rounded=0;fontSize=20;labelBackgroundColor=default;fontColor=#FF8000;fontStyle=1" vertex="1" parent="1">
          <mxGeometry x="245" y="530" width="30" height="30" as="geometry" />
        </mxCell>
        <mxCell id="V-b0fp75Tb7XbdA_kdbv-10" value="11" style="text;html=1;strokeColor=none;fillColor=none;align=center;verticalAlign=middle;whiteSpace=wrap;rounded=0;fontSize=20;labelBackgroundColor=default;fontColor=#FF8000;fontStyle=1" vertex="1" parent="1">
          <mxGeometry x="520" y="500" width="40" height="30" as="geometry" />
        </mxCell>
        <mxCell id="V-b0fp75Tb7XbdA_kdbv-11" value="6" style="text;html=1;strokeColor=none;fillColor=none;align=center;verticalAlign=middle;whiteSpace=wrap;rounded=0;fontSize=20;labelBackgroundColor=default;fontColor=#FF8000;fontStyle=1" vertex="1" parent="1">
          <mxGeometry x="525" y="320" width="30" height="30" as="geometry" />
        </mxCell>
        <mxCell id="V-b0fp75Tb7XbdA_kdbv-12" value="12" style="text;html=1;strokeColor=none;fillColor=none;align=center;verticalAlign=middle;whiteSpace=wrap;rounded=0;fontSize=20;labelBackgroundColor=default;fontColor=#FF8000;fontStyle=1" vertex="1" parent="1">
          <mxGeometry x="750" y="410" width="40" height="30" as="geometry" />
        </mxCell>
        <mxCell id="V-b0fp75Tb7XbdA_kdbv-13" value="7" style="text;html=1;strokeColor=none;fillColor=none;align=center;verticalAlign=middle;whiteSpace=wrap;rounded=0;fontSize=20;labelBackgroundColor=default;fontColor=#FF8000;fontStyle=1" vertex="1" parent="1">
          <mxGeometry x="385" y="410" width="30" height="30" as="geometry" />
        </mxCell>
        <mxCell id="V-b0fp75Tb7XbdA_kdbv-15" value="10" style="text;html=1;strokeColor=none;fillColor=none;align=center;verticalAlign=middle;whiteSpace=wrap;rounded=0;fontSize=20;labelBackgroundColor=default;fontColor=#FF8000;fontStyle=1" vertex="1" parent="1">
          <mxGeometry x="370" y="570" width="40" height="30" as="geometry" />
        </mxCell>
        <mxCell id="V-b0fp75Tb7XbdA_kdbv-16" value="4" style="text;html=1;strokeColor=none;fillColor=none;align=center;verticalAlign=middle;whiteSpace=wrap;rounded=0;fontSize=20;labelBackgroundColor=default;fontColor=#FF8000;fontStyle=1" vertex="1" parent="1">
          <mxGeometry x="395" y="220" width="30" height="30" as="geometry" />
        </mxCell>
        <mxCell id="V-b0fp75Tb7XbdA_kdbv-17" value="0" style="text;html=1;strokeColor=none;fillColor=none;align=center;verticalAlign=middle;whiteSpace=wrap;rounded=0;fontSize=20;fontColor=#FF3333;fontStyle=1" vertex="1" parent="1">
          <mxGeometry x="415" y="270" width="60" height="30" as="geometry" />
        </mxCell>
        <mxCell id="V-b0fp75Tb7XbdA_kdbv-18" value="1" style="text;html=1;strokeColor=none;fillColor=none;align=center;verticalAlign=middle;whiteSpace=wrap;rounded=0;fontSize=20;fontColor=#FF3333;fontStyle=1" vertex="1" parent="1">
          <mxGeometry x="415" y="440" width="60" height="30" as="geometry" />
        </mxCell>
        <mxCell id="V-b0fp75Tb7XbdA_kdbv-19" value="0" style="text;html=1;strokeColor=none;fillColor=none;align=center;verticalAlign=middle;whiteSpace=wrap;rounded=0;fontSize=20;fontColor=#007FFF;fontStyle=1" vertex="1" parent="1">
          <mxGeometry x="160" y="260" width="60" height="30" as="geometry" />
        </mxCell>
        <mxCell id="V-b0fp75Tb7XbdA_kdbv-20" value="1" style="text;html=1;strokeColor=none;fillColor=none;align=center;verticalAlign=middle;whiteSpace=wrap;rounded=0;fontSize=20;fontColor=#007FFF;fontStyle=1" vertex="1" parent="1">
          <mxGeometry x="150" y="350" width="60" height="30" as="geometry" />
        </mxCell>
        <mxCell id="V-b0fp75Tb7XbdA_kdbv-21" value="2" style="text;html=1;strokeColor=none;fillColor=none;align=center;verticalAlign=middle;whiteSpace=wrap;rounded=0;fontSize=20;fontColor=#007FFF;fontStyle=1" vertex="1" parent="1">
          <mxGeometry x="340" y="220" width="60" height="30" as="geometry" />
        </mxCell>
        <mxCell id="V-b0fp75Tb7XbdA_kdbv-22" value="3" style="text;html=1;strokeColor=none;fillColor=none;align=center;verticalAlign=middle;whiteSpace=wrap;rounded=0;fontSize=20;fontColor=#007FFF;fontStyle=1" vertex="1" parent="1">
          <mxGeometry x="340" y="390" width="60" height="30" as="geometry" />
        </mxCell>
        <mxCell id="V-b0fp75Tb7XbdA_kdbv-23" value="4" style="text;html=1;strokeColor=none;fillColor=none;align=center;verticalAlign=middle;whiteSpace=wrap;rounded=0;fontSize=20;fontColor=#007FFF;fontStyle=1" vertex="1" parent="1">
          <mxGeometry x="580" y="360" width="60" height="30" as="geometry" />
        </mxCell>
        <mxCell id="V-b0fp75Tb7XbdA_kdbv-24" value="&lt;div style=&quot;text-align: left; font-size: 20px;&quot;&gt;&lt;span style=&quot;background-color: initial;&quot;&gt;&lt;font color=&quot;#ff8000&quot; style=&quot;font-size: 20px;&quot;&gt;0 - 引脚&lt;/font&gt;&lt;/span&gt;&lt;/div&gt;&lt;div style=&quot;text-align: left; font-size: 20px;&quot;&gt;&lt;span style=&quot;background-color: initial;&quot;&gt;&lt;font color=&quot;#ff3333&quot; style=&quot;font-size: 20px;&quot;&gt;0 - Node&lt;/font&gt;&lt;/span&gt;&lt;/div&gt;&lt;div style=&quot;text-align: left; font-size: 20px;&quot;&gt;&lt;span style=&quot;background-color: initial;&quot;&gt;&lt;font color=&quot;#007fff&quot; style=&quot;font-size: 20px;&quot;&gt;0 - Net&lt;/font&gt;&lt;/span&gt;&lt;/div&gt;" style="text;html=1;strokeColor=none;fillColor=none;align=center;verticalAlign=middle;whiteSpace=wrap;rounded=0;fontStyle=1" vertex="1" parent="1">
          <mxGeometry x="590" y="210" width="100" height="90" as="geometry" />
        </mxCell>
      </root>
    </mxGraphModel>
  </diagram>
</mxfile>
